SplineFontDB: 3.2
FontName: RoutedGothic
FullName: Routed Gothic
FamilyName: Routed Gothic
Weight: Regular

StartChar: exclam
Encoding: 33 33 0
Width: 288
Flags: HW
LayerCount: 2
Back
SplineSet
166.717353187 72 m 1
 162.615859143 59.0688118425 149.307929572 48 136 48 c 0
 128 48 120 56 120 64 c 0
 120 66.6920704285 120.452952699 69.384140857 121.282646813 72 c 1025
121.282646813 72 m 1
 125.384140857 84.9311881575 138.692070428 96 152 96 c 0
 160 96 168 88 168 80 c 0
 168 77.3079295715 167.547047301 74.615859143 166.717353187 72 c 1025
144 688 m 0
 144 288 l 1024
EndSplineSet
Fore
SplineSet
98.3701093398 78.2156641754 m 0
 97.2220705144 74.7715476992 96 68.730653837 96 64 c 0
 96 50.7051129808 101.87800347 41.6770430908 110.186309975 34.5851390153 c 0
 118.122021495 28.3218570432 125.620381895 24 136 24 c 0
 148.410261051 24 157.259098425 27.683809154 166.687195291 33.9692070641 c 0
 178.442151445 41.8058445001 183.633770126 46.6963357701 190.231600847 67.5894663844 c 0
 191.230199365 70.5852619377 192 75.269346163 192 80 c 0
 192 90.3613368889 188.335835602 97.0446679306 181.414860985 105.813690025 c 0
 174.878461409 113.471211973 165.479214613 120 152 120 c 0
 139.589738949 120 130.740901575 116.316190846 121.312804709 110.030792936 c 0
 110.726999616 102.97358954 103.109063146 92.6526576429 98.3701093398 78.2156641754 c 0
236.218642843 53.8085145353 m 0
 227.945823357 28.6057702711 212.19128533 6.61644668328 193.312804709 -5.96920706411 c 0
 178.740901575 -15.683809154 159.589738949 -24 136 -24 c 0
 110.335560345 -24 91.933989946 -12.2821882965 79.8199290815 -2.5909396049 c 0
 63.4917693294 11.0158601886 48 33.3742151757 48 64 c 0
 48 72.8094777932 49.1077854171 81.6114308931 51.7813571573 90.1914854647 c 0
 60.0541766426 115.394229729 75.8087146695 137.383553317 94.6871952906 149.969207064 c 0
 109.259098425 159.683809154 128.410261051 168 152 168 c 0
 182.611615161 168 204.997806862 152.49183021 218.590939605 136.180070918 c 0
 228.285232827 124.062204391 240 105.668198883 240 80 c 0
 240 71.1905222068 238.892214583 62.3885691069 236.218642843 53.8085145353 c 0
72 688 m 2
 72 727.432573364 104.567461977 760 144 760 c 0
 183.432573364 760 216 727.432538023 216 688 c 2
 216 288 l 2
 216 248.567426636 183.432538023 216 144 216 c 0
 104.567426636 216 72 248.567461977 72 288 c 2
 72 688 l 2
120 688 m 2
 120 288 l 2
 120 275.432538023 131.432573364 264 144 264 c 0
 156.567461977 264 168 275.432573364 168 288 c 2
 168 688 l 2
 168 700.567461977 156.567426636 712 144 712 c 0
 131.432538023 712 120 700.567426636 120 688 c 2
EndSplineSet
EndChar

StartChar: quotedbl
Encoding: 34 34 1
Width: 384
Flags: HW
LayerCount: 2
Back
SplineSet
272 688 m 0
 272 480 l 1024
112 688 m 0
 112 480 l 1024
EndSplineSet
Fore
SplineSet
40 688 m 2
 40 727.432573364 72.5674619767 760 112 760 c 0
 151.432573364 760 184 727.432538023 184 688 c 2
 184 480 l 2
 184 440.567426636 151.432538023 408 112 408 c 0
 72.5674266362 408 40 440.567461977 40 480 c 2
 40 688 l 2
88 688 m 2
 88 480 l 2
 88 467.432538023 99.4325733638 456 112 456 c 0
 124.567461977 456 136 467.432573364 136 480 c 2
 136 688 l 2
 136 700.567461977 124.567426636 712 112 712 c 0
 99.4325380233 712 88 700.567426636 88 688 c 2
200 688 m 2
 200 727.432573364 232.567461977 760 272 760 c 0
 311.432573364 760 344 727.432538023 344 688 c 2
 344 480 l 2
 344 440.567426636 311.432538023 408 272 408 c 0
 232.567426636 408 200 440.567461977 200 480 c 2
 200 688 l 2
248 688 m 2
 248 480 l 2
 248 467.432538023 259.432573364 456 272 456 c 0
 284.567461977 456 296 467.432573364 296 480 c 2
 296 688 l 2
 296 700.567461977 284.567426636 712 272 712 c 0
 259.432538023 712 248 700.567426636 248 688 c 2
EndSplineSet
EndChar

StartChar: numbersign
Encoding: 35 35 2
Width: 672
Flags: HW
LayerCount: 2
Back
SplineSet
336 48 m 0
 512 688 l 1024
160 48 m 0
 336 688 l 1024
112 448 m 0
 560 448 l 1024
112 288 m 0
 560 288 l 1024
EndSplineSet
Fore
SplineSet
325.181155208 376 m 1
 320.681155208 360 l 1
 346.818844792 360 l 1
 351.318844792 376 l 1
 325.181155208 376 l 1
283.896377436 406.497893846 m 2
 286.741992223 416.61563531 296.321237727 424 307 424 c 2
 383 424 l 1
 383 424 386.033850867 423.8654903 387.665221146 423.542211274 c 0
 399.052838907 421.285594231 406.976713345 410.95878115 406.976713345 399.828280906 c 0
 406.976713345 397.731882664 406.695616616 395.606973896 406.103622564 393.502106154 c 2
 388.103622564 329.502106154 l 2
 385.258007777 319.38436469 375.678762273 312 365 312 c 2
 289 312 l 1
 289 312 285.966149133 312.1345097 284.334778854 312.457788726 c 0
 272.947161093 314.714405769 265.023286655 325.04121885 265.023286655 336.171719094 c 0
 265.023286655 338.268117336 265.304383384 340.393026104 265.896377436 342.497893846 c 2
 283.896377436 406.497893846 l 2
264 48 m 0
 264 55.9303275736 265.397734623 61.5454735072 266.78124818 67.0795277366 c 2
 307.547187515 216 l 1
 281.237293086 216 l 1
 229.057687638 28.3365067224 l 2
 220.139424366 -1.39103751767 193.450077273 -24 160 -24 c 0
 120.567426636 -24 88 8.5674619767 88 48 c 0
 88 55.9303275736 89.3977346231 61.5454735072 90.7812481804 67.0795277366 c 2
 131.547187515 216 l 1
 112 216 l 2
 72.5674266362 216 40 248.567461977 40 288 c 0
 40 327.432573364 72.5674619767 360 112 360 c 2
 170.818844792 360 l 1
 175.318844792 376 l 1
 112 376 l 2
 72.5674266362 376 40 408.567461977 40 448 c 0
 40 487.432573364 72.5674619767 520 112 520 c 2
 214.762706914 520 l 1
 266.942312362 707.663493278 l 2
 275.860575634 737.391037518 302.549922727 760 336 760 c 0
 375.432573364 760 408 727.432538023 408 688 c 0
 408 680.069672426 406.602265377 674.454526493 405.21875182 668.920472263 c 2
 364.452812485 520 l 1
 390.762706914 520 l 1
 442.942312362 707.663493278 l 2
 451.860575634 737.391037518 478.549922727 760 512 760 c 0
 551.432573364 760 584 727.432538023 584 688 c 0
 584 680.069672426 582.602265377 674.454526493 581.21875182 668.920472263 c 2
 540.452812485 520 l 1
 560 520 l 2
 599.432573364 520 632 487.432538023 632 448 c 0
 632 408.567426636 599.432538023 376 560 376 c 2
 501.181155208 376 l 1
 496.681155208 360 l 1
 560 360 l 2
 599.432573364 360 632 327.432538023 632 288 c 0
 632 248.567426636 599.432538023 216 560 216 c 2
 457.237293086 216 l 1
 405.057687638 28.3365067224 l 2
 396.139424366 -1.39103751767 369.450077273 -24 336 -24 c 0
 296.567426636 -24 264 8.5674619767 264 48 c 0
312 48 m 0
 312 35.4325380233 323.432573364 24 336 24 c 0
 346.549922727 24 355.860575634 31.3910375177 358.942312362 41.6634932776 c 2
 415.877186864 246.429269994 l 2
 418.716925166 256.642363888 428.323069965 264 439 264 c 2
 560 264 l 2
 572.567461977 264 584 275.432573364 584 288 c 0
 584 300.567461977 572.567426636 312 560 312 c 2
 465 312 l 1
 465 312 461.966149133 312.1345097 460.334778854 312.457788726 c 0
 448.947161093 314.714405769 441.023286655 325.04121885 441.023286655 336.171719094 c 0
 441.023286655 338.268117336 441.304383384 340.393026104 441.896377436 342.497893846 c 2
 459.896377436 406.497893846 l 2
 462.741992223 416.61563531 472.321237727 424 483 424 c 2
 560 424 l 2
 572.567461977 424 584 435.432573364 584 448 c 0
 584 460.567461977 572.567426636 472 560 472 c 2
 509 472 l 2
 507.659680253 472 505.975842779 472.143866788 504.498985307 472.425843245 c 0
 493.040129209 474.613683098 485.022102606 484.975055683 485.022102606 496.168007614 c 0
 485.022102606 498.211413696 485.289334062 500.282535346 485.851647267 502.33669991 c 2
 534.789756255 681.110608252 l 2
 535.366839755 683.515122839 536 687.942735025 536 688 c 0
 536 700.567461977 524.567426636 712 512 712 c 0
 501.450077273 712 492.139424366 704.608962482 489.057687638 694.336506722 c 2
 432.122813136 489.570730006 l 2
 429.283074834 479.357636112 419.676930035 472 409 472 c 2
 333 472 l 2
 331.659680253 472 329.975842779 472.143866788 328.498985307 472.425843245 c 0
 317.040129209 474.613683098 309.022102606 484.975055683 309.022102606 496.168007614 c 0
 309.022102606 498.211413696 309.289334062 500.282535346 309.851647267 502.33669991 c 2
 358.789756255 681.110608252 l 2
 359.366839755 683.515122839 360 687.942735025 360 688 c 0
 360 700.567461977 348.567426636 712 336 712 c 0
 325.450077273 712 316.139424366 704.608962482 313.057687638 694.336506722 c 2
 256.122813136 489.570730006 l 2
 253.283074834 479.357636112 243.676930035 472 233 472 c 2
 112 472 l 2
 99.4325380233 472 88 460.567426636 88 448 c 0
 88 435.432538023 99.4325733638 424 112 424 c 2
 207 424 l 1
 207 424 210.033850867 423.8654903 211.665221146 423.542211274 c 0
 223.052838907 421.285594231 230.976713345 410.95878115 230.976713345 399.828280906 c 0
 230.976713345 397.731882664 230.695616616 395.606973896 230.103622564 393.502106154 c 2
 212.103622564 329.502106154 l 2
 209.258007777 319.38436469 199.678762273 312 189 312 c 2
 112 312 l 2
 99.4325380233 312 88 300.567426636 88 288 c 0
 88 275.432538023 99.4325733638 264 112 264 c 2
 163 264 l 2
 164.340319747 264 166.024157221 263.856133212 167.501014693 263.574156755 c 0
 178.959870791 261.386316902 186.977897394 251.024944317 186.977897394 239.831992386 c 0
 186.977897394 237.788586304 186.710665938 235.717464654 186.148352733 233.66330009 c 2
 137.210243745 54.8893917477 l 2
 136.633160245 52.4848771606 136 48.0572649752 136 48 c 0
 136 35.4325380233 147.432573364 24 160 24 c 0
 170.549922727 24 179.860575634 31.3910375177 182.942312362 41.6634932776 c 2
 239.877186864 246.429269994 l 2
 242.716925166 256.642363888 252.323069965 264 263 264 c 2
 339 264 l 2
 340.340319747 264 342.024157221 263.856133212 343.501014693 263.574156755 c 0
 354.959870791 261.386316902 362.977897394 251.024944317 362.977897394 239.831992386 c 0
 362.977897394 237.788586304 362.710665938 235.717464654 362.148352733 233.66330009 c 2
 313.210243745 54.8893917477 l 2
 312.633160245 52.4848771606 312 48.0572649752 312 48 c 0
EndSplineSet
EndChar

StartChar: dollar
Encoding: 36 36 3
Width: 504
Flags: HW
LayerCount: 2
Back
SplineSet
384 536 m 0
 384 536 340 592 252 592 c 0
 177 592 120 545 120 492 c 0
 120 450.420898438 144.2109375 390.134765625 252 380 c 0
 370.188476562 368.887695312 392 316.170898438 392 264 c 0
 392 200 343.5 144 252 144 c 0
 168 144 112 216 112 216 c 1024
256 688 m 0
 256 48 l 1024
EndSplineSet
Fore
SplineSet
314.733126292 180.533747416 m 0
 312.634443716 179.484406128 308.923837291 178.313295466 305.882970051 178.073980193 c 0
 305.266711785 178.025480866 304.653712538 178.001668106 304.044917584 178.001668106 c 0
 291.067208887 178.001668106 280 188.822576046 280 202 c 2
 280 321 l 2
 280 321.18643734 280.269939625 325.02094516 280.706337208 326.779729555 c 0
 283.408186997 337.668816546 293.485005831 344.967992684 304.193845516 344.967992684 c 0
 306.652941589 344.967992684 309.145364765 344.583099693 311.589466384 343.768399153 c 0
 327.869009853 338.341884664 338.165993816 329.602201287 343.180070918 325.590939605 c 0
 361.77785912 310.09278277 368 288.850346531 368 264 c 0
 368 235.859561045 356.80811742 209.699005709 333.489717667 191.86728825 c 0
 327.755311424 187.566483568 321.748401324 184.041384932 314.733126292 180.533747416 c 0
199.086623768 558.283440581 m 0
 200.420040617 558.816807321 203.772694361 559.741521351 206.117029949 559.926019807 c 0
 206.733288215 559.974519134 207.346287462 559.998331894 207.955082416 559.998331894 c 0
 220.932791113 559.998331894 232 549.177423954 232 536 c 2
 232 439 l 2
 232 437.719974379 231.521815841 433.577273641 230.674728401 431.135097462 c 0
 227.244877541 421.24674394 217.705987881 415.050849974 207.782592973 415.050849974 c 0
 204.625999776 415.050849974 201.430500367 415.677782295 198.380347984 417.012223962 c 0
 180.166978705 424.980573022 167.152110216 433.895884415 158.403970975 446.143279353 c 0
 147.966606327 461.053800279 144 477.380930761 144 492 c 0
 144 503.586731223 148.283993194 516.045324259 156.8 527.4 c 0
 165.904459166 539.539278888 180.189208311 550.724474399 199.086623768 558.283440581 c 0
456 536 m 0
 456 496.567426636 423.432538023 464 384 464 c 0
 361.158697741 464 341.332143059 475.575807504 328.89160792 490.233017269 c 0
 328.744037002 490.395318974 328.005545366 491.208461114 328 491.214488249 c 2
 328 439.535912039 l 1
 359.090059425 430.281321529 384.118808894 417.79072 405.505022923 399.320807884 c 0
 453.785069798 359.283695841 464 303.485067332 464 264 c 0
 464 207.818993242 438.832725436 152.815035758 391.656266377 115.994384784 c 0
 372.84057139 101.658617175 350.423221121 89.6989429679 328 82.5585078488 c 1
 328 48 l 2
 328 8.56742663621 295.432538023 -24 256 -24 c 0
 216.567426636 -24 184 8.5674619767 184 48 c 2
 184 82.7809332828 l 1
 157.881636887 91.2667700703 137.594723466 102.388964687 119.803291408 113.953395525 c 0
 80.9593789456 139.849337166 58.8227685975 166.937866311 54.8450996445 172.517230205 c 0
 44.8847551292 186.295099513 40 199.077181647 40 216 c 0
 40 255.432573364 72.5674619767 288 112 288 c 0
 135.582430103 288 155.746273676 275.877231027 168.534863613 260.246732216 c 2
 168.534863613 260.246732216 174.674889347 253.113691349 184 245.189416711 c 1
 184 320.501308891 l 1
 139.012868049 334.168789874 105.545097202 357.625925726 81.7976788858 388.600819183 c 0
 56.0122700856 423.762740274 48 460.820656915 48 492 c 0
 48 526.545662457 60.0647771573 558.864362273 79.9390390046 584.583995251 c 0
 105.03606236 617.71206608 142.329845842 642.317273011 184 654.768668233 c 1
 184 688 l 2
 184 727.432573364 216.567461977 760 256 760 c 0
 295.432573364 760 328 727.432538023 328 688 c 2
 328 653.684148778 l 1
 401.606884958 631.54933617 436.216727841 587.044362879 441.2 580.4 c 0
 450.340390325 568.2128129 456 552.709913957 456 536 c 0
408 536 m 0
 408 541.207841045 405.987820382 547.165310488 402.906634304 551.459194844 c 0
 401.715121455 553.032289833 366.825439178 597.24750185 299.055748455 611.51480516 c 0
 288.325677001 613.773767572 280 623.67464841 280 635 c 2
 280 688 l 2
 280 700.567461977 268.567426636 712 256 712 c 0
 243.432538023 712 232 700.567426636 232 688 c 2
 232 636 l 2
 232 626.387422852 224.539424306 614.832591196 212.706787243 612.466063783 c 0
 173.036637968 604.532033928 139.340177458 583.50457048 118.060960995 555.416004749 c 0
 103.935222843 537.135637727 96 515.454337543 96 492 c 0
 96 469.061311301 101.285806146 443.593625309 120.182505118 417.423730449 c 0
 139.418541511 392.620567577 168.852770068 372.385468655 213.256920215 362.41719005 c 0
 223.528743152 360.111270615 232 350.35091368 232 339 c 2
 232 202 l 2
 232 201.157431258 231.532785708 196.668191144 230.733220435 194.305801624 c 0
 227.357625291 184.332293695 217.771338355 178.049218695 207.783511418 178.049218695 c 0
 204.685155044 178.049218695 201.548157565 178.653853252 198.545936834 179.94051928 c 0
 157.402610316 197.573373501 132.534329641 228.460460763 131.465136387 229.753267784 c 0
 126.253726324 236.122768973 118.417569897 240 112 240 c 0
 99.4325380233 240 88 228.567426636 88 216 c 0
 88 210.915986206 89.8418132262 205.877582365 93.2 201.4 c 0
 93.310969911 201.252040119 93.5754109575 200.88856341 93.7482654167 200.638403418 c 0
 95.5924015409 198.194427318 115.245321958 174.680862232 146.196708592 154.046604475 c 0
 164.418272268 142.202588086 187.077139451 130.526675676 213.453510775 124.372189034 c 0
 223.440811843 122.041818784 232 112.362779472 232 101 c 2
 232 48 l 2
 232 35.4325380233 243.432573364 24 256 24 c 0
 268.567461977 24 280 35.4325733638 280 48 c 2
 280 101 l 2
 280 111.846380271 287.889796924 122.092649735 298.97130187 124.467257938 c 0
 323.193375556 129.657702299 343.998811895 140.028531994 362.343733623 154.005615216 c 0
 397.167274564 181.184964242 416 222.181006758 416 264 c 0
 416 296.514932668 408.214930202 334.716304159 374.494977077 362.679192116 c 0
 355.960562719 378.686186334 331.132148752 390.179408645 298.652204764 397.603395842 c 0
 288.512251108 399.921099535 280 409.643200736 280 421 c 2
 280 534 l 2
 280 534.18643734 280.269939625 538.02094516 280.706337208 539.779729555 c 0
 283.408186997 550.668816546 293.485005831 557.967992684 304.193845516 557.967992684 c 0
 306.652941589 557.967992684 309.145364765 557.583099693 311.589466384 556.768399153 c 0
 318.207086917 554.562525642 323.876799426 552.479986182 331.56214105 548.04736176 c 0
 349.874053108 537.957985051 361.551385948 525.686518276 364.42349031 522.505363947 c 0
 364.756790861 522.151429311 365.216289292 521.636100831 365.574975181 521.197706966 c 0
 370.568967565 515.093938497 376.760496061 512 384 512 c 0
 396.567461977 512 408 523.432573364 408 536 c 0
EndSplineSet
EndChar

StartChar: percent
Encoding: 37 37 5
Width: 864
Flags: HW
LayerCount: 2
Back
SplineSet
752 168 m 0
 752 101.725585938 694.692382812 48 624 48 c 0
 553.307617188 48 496 101.725585938 496 168 c 0
 496 234.274414062 553.307617188 288 624 288 c 0
 694.692382812 288 752 234.274414062 752 168 c 0
368 568 m 0
 368 501.725585938 310.692382812 448 240 448 c 0
 169.307617188 448 112 501.725585938 112 568 c 0
 112 634.274414062 169.307617188 688 240 688 c 0
 310.692382812 688 368 634.274414062 368 568 c 0
256 48 m 0
 608 688 l 1024
EndSplineSet
Fore
SplineSet
256 -24 m 0
 216.567426636 -24 184 8.5674619767 184 48 c 0
 184 59.8907598582 187.069417461 72.2450270473 193.065100377 82.7374721503 c 2
 390.106092539 440.993821535 l 1
 352.877254145 400.691267319 298.521730253 376 240 376 c 0
 133.040992553 376 40 458.476504536 40 568 c 0
 40 677.521948454 133.041657633 760 240 760 c 0
 346.959007447 760 440 677.523495464 440 568 c 0
 440 551.605739331 437.91522693 535.81744796 434.011071429 520.821055881 c 2
 544.896297767 722.430558314 l 2
 556.902613233 744.942399811 581.05690702 760 608 760 c 0
 647.432573364 760 680 727.432538023 680 688 c 0
 680 676.109240142 676.930582539 663.754972953 670.934899623 653.26252785 c 2
 473.893907461 295.006178465 l 1
 511.122745855 335.308732681 565.478269747 360 624 360 c 0
 730.959007447 360 824 277.523495464 824 168 c 0
 824 58.4780515455 730.958342367 -24 624 -24 c 0
 517.040992553 -24 424 58.4765045356 424 168 c 0
 424 184.394260669 426.08477307 200.18255204 429.988928571 215.178944119 c 2
 319.103702233 13.5694416861 l 2
 307.097386767 -8.94239981133 282.94309298 -24 256 -24 c 0
256 24 m 0
 265.05690702 24 272.902613233 28.9423998113 276.896297767 36.4305583139 c 2
 629.065100377 676.73747215 l 2
 631.069417461 680.245027047 632 683.890759858 632 688 c 0
 632 700.567461977 620.567426636 712 608 712 c 0
 598.94309298 712 591.097386767 707.057600189 587.103702233 699.569441686 c 2
 234.934899623 59.2625278497 l 2
 232.930582539 55.7549729527 232 52.1092401418 232 48 c 0
 232 35.4325380233 243.432573364 24 256 24 c 0
392 568 m 0
 392 648.476504536 323.040992553 712 240 712 c 0
 156.958342367 712 88 648.478051546 88 568 c 0
 88 487.523495464 156.959007447 424 240 424 c 0
 323.041657633 424 392 487.521948454 392 568 c 0
296 568 m 0
 296 590.509696563 274.956912173 616 240 616 c 0
 205.042972837 616 184 590.509490333 184 568 c 0
 184 545.490303437 205.043087827 520 240 520 c 0
 274.957027163 520 296 545.490509667 296 568 c 0
344 568 m 0
 344 516.509490333 299.042972837 472 240 472 c 0
 180.956912173 472 136 516.509696563 136 568 c 0
 136 619.490509667 180.957027163 664 240 664 c 0
 299.043087827 664 344 619.490303437 344 568 c 0
776 168 m 0
 776 248.476504536 707.040992553 312 624 312 c 0
 540.958342367 312 472 248.478051546 472 168 c 0
 472 87.5234954644 540.959007447 24 624 24 c 0
 707.041657633 24 776 87.5219484545 776 168 c 0
680 168 m 0
 680 190.509696563 658.956912173 216 624 216 c 0
 589.042972837 216 568 190.509490333 568 168 c 0
 568 145.490303437 589.043087827 120 624 120 c 0
 658.957027163 120 680 145.490509667 680 168 c 0
728 168 m 0
 728 116.509490333 683.042972837 72 624 72 c 0
 564.956912173 72 520 116.509696563 520 168 c 0
 520 219.490509667 564.957027163 264 624 264 c 0
 683.043087827 264 728 219.490303437 728 168 c 0
EndSplineSet
EndChar

StartChar: ampersand
Encoding: 38 38 6
Width: 784
Flags: HW
LayerCount: 2
Back
SplineSet
676 48 m 0
 676 288 516 414 300 414 c 0
 196 414 132 464 132 552 c 0
 132 616 188 696 340 696 c 0
 484 696 552 624 552 552 c 0
 552 480 493.0703125 414.848632812 388 406.75 c 1024
668 372 m 0
 668 372 588 320 548 192 c 0
 508 64 409.171875 40 316 40 c 0
 180 40 108 128 108 224 c 0
 108 344 221.555664062 409.096679688 300 414 c 1024
EndSplineSet
Fore
SplineSet
301 486 m 2
 330.703381228 486 361.891029574 483.906085491 389.653425956 479.246448791 c 1
 421.476324088 483.502927524 441.639996088 493.496208271 455.007448333 503.744032044 c 0
 473.640777532 519.418369553 480 534.708841627 480 552 c 0
 480 561.60622185 476.761788734 572.111436231 468.435755248 582.789232946 c 0
 460.858103732 591.701863743 450.0543086 599.956260684 430.840925313 607.816281119 c 0
 409.702138635 616.624108902 380.054432366 624 340 624 c 0
 283.642702125 624 249.708275187 610.821911658 231.665625439 598.270503138 c 0
 209.124385269 582.724820262 204 564.776428295 204 552 c 0
 204 539.335184291 206.375728921 529.571131131 209.042978602 522.517813619 c 0
 213.392579929 513.378191081 216.603398488 509.578224049 226.949848163 503.211178095 c 0
 240.781039294 493.990384008 263.447365285 486 299 486 c 2
 300 486 l 1
 301 486 l 2
301 438 m 2
 300 438 l 1
 299 438 l 2
 256.709015577 438 224.658377323 447.32914484 201.170273731 462.709929283 c 0
 185.481922991 472.603728624 172.963476805 486.141182669 165.208974772 502.942603741 c 0
 165.086193262 503.208630347 164.863488812 503.719300284 164.716559419 504.086623768 c 0
 159.5904952 516.901784315 156 532.987719861 156 552 c 0
 156 579.233628655 168.83832257 613.249461006 204.374409061 637.757106862 c 0
 232.249578657 657.14852919 276.375562784 672 340 672 c 0
 385.945567634 672 422.297861365 663.375891098 449.159074687 652.183718881 c 0
 473.885381172 642.068411682 492.290448879 629.140659789 505.590939605 613.180070918 c 0
 521.123871797 593.763905678 528 572.49749717 528 552 c 0
 528 519.372519997 513.127392433 489.497027369 485.013109401 466.272184865 c 0
 462.521330122 448.778578759 431.722442665 435.599244372 391.650356626 431.146790368 c 0
 389.823004235 430.943751213 386.997214422 430.977990019 384.781024676 431.373738188 c 0
 358.605111444 436.048008408 329.933815479 438 301 438 c 2
505.826919479 280.16529465 m 0
 503.447677782 282.060265913 502.681845689 282.697548474 502.060886941 283.208217005 c 0
 452.861458646 320.305739419 385.066685312 341.628800169 303.255758321 341.999117179 c 0
 286.718099392 340.125789521 262.025881826 332.89687642 242.220866981 321.343951094 c 0
 224.104705006 310.474253908 208.586729184 297.974972757 198.559998958 284.091807829 c 0
 187.248605031 267.932673648 180 248.895048674 180 224 c 0
 180 190.525010162 192.97022099 161.920491849 218.029427768 141.711454126 c 0
 238.418432059 125.400250692 269.776831616 112 316 112 c 0
 352.530341014 112 385.023609464 116.070305344 409.363639526 126.981353303 c 0
 444.240636037 141.928637522 464.366991127 167.143275762 479.185882829 213.45231233 c 0
 487.224561899 237.568349542 496.863093774 261.149180081 505.826919479 280.16529465 c 0
551.364425592 305.43731071 m 0
 556.800652436 300.907121674 559.913723272 293.903058661 559.913723272 286.778420135 c 0
 559.913723272 283.074092885 559.0721692 279.337170549 557.278036308 275.898415839 c 0
 545.9750172 254.234295882 534.30223727 227.012047966 524.814117171 198.54768767 c 0
 507.633008873 144.856724238 477.759363963 104.071362478 428.636360474 83.0186466972 c 0
 394.976390536 67.9296946563 355.469658986 64 316 64 c 0
 260.239733806 64 217.543158172 80.6304771229 188.007318859 104.259148573 c 0
 150.995323089 134.107532258 132 177.463770626 132 224 c 0
 132 259.104951326 142.751394969 288.067326352 159.440001042 311.908192171 c 0
 175.413270816 334.025027243 195.895294994 349.525746092 217.779133019 362.656048906 c 0
 245.493653656 378.822852612 275.782011671 387.497902658 299.611910743 389.880892565 c 0
 300.17896444 389.937597935 301.237908673 390 302 390 c 0
 393.145601337 390 472.495391066 365.92439416 531.513021765 321.114711592 c 0
 531.716631239 320.960119213 532.09901341 320.658487529 532.364425592 320.43731071 c 0
 537.398181266 316.242514315 544.398181266 311.242514315 551.364425592 305.43731071 c 0
624 552 m 0
 624 499.617938321 603.5599785 450.410628912 568.245816807 412.37567862 c 1
 575.225033476 408.063313508 582.589855092 403.155518235 588.894397377 398.573483798 c 1
 611.490544561 420.794812908 624.609948537 429.251042562 628.980796619 432.164941283 c 0
 640.063271956 439.091488369 652.771298561 444 668 444 c 0
 707.432573364 444 740 411.432538023 740 372 c 0
 740 346.331090383 726.181957911 325.947142609 708.905335812 313.135829277 c 0
 705.945048563 310.631347847 703.404815746 308.71377634 696.711960739 302.857528209 c 0
 693.403985795 300.022121113 689.08459881 295.894123436 684.939563144 291.574656969 c 1
 726.016401719 223.032700323 748 141.72577557 748 48 c 0
 748 8.56742663621 715.432538023 -24 676 -24 c 0
 636.567426636 -24 604 8.5674619767 604 48 c 0
 604 74.9400256875 601.575682421 100.245410456 597.539447063 121.961790701 c 1
 587.246223648 101.294267508 577.100211399 85.4565188246 564.827344785 70.1154355569 c 0
 537.340984095 34.9328938732 502.635165472 10.2899184863 466.397323938 -5.08371125509 c 0
 415.155804262 -26.8886132452 362.717282553 -32 316 -32 c 0
 241.17423436 -32 176.667801562 -9.44817189032 128.033347769 29.2383254453 c 0
 66.9181526188 78.1304815653 36 150.342292127 36 224 c 0
 36 302.655369781 72.6655209477 365.289306046 117.050683654 407.085306531 c 1
 81.965987895 442.228627848 60 490.662888544 60 552 c 0
 60 610.855359157 88.9318078745 673.224737131 149.22784367 715.655280839 c 0
 197.14125507 749.083242281 261.202069354 768 340 768 c 0
 443.687852975 768 528.513168483 735.473396265 579.412999971 674.393598479 c 0
 609.068842157 639.034709719 624 595.448880292 624 552 c 0
576 552 m 0
 576 584.537083136 564.905652876 616.995700049 542.611402965 643.577305713 c 0
 503.464064877 690.554111419 434.321089792 720 340 720 c 0
 268.77907605 720 214.901432931 702.946540045 176.732358305 676.316953097 c 0
 129.103386476 642.800269218 108 595.135117444 108 552 c 0
 108 492.395688838 132.913560151 452.167761753 168.172239865 426.368727816 c 0
 168.438353027 426.174010868 170.810733617 424.201067383 171.862010886 423.029615314 c 0
 175.920600269 418.507075857 177.892945192 412.785624436 177.892945192 407.082732843 c 0
 177.892945192 399.838537435 174.710411956 392.624289766 168.578802582 387.935412009 c 0
 121.958433262 352.284541352 84 297.023629897 84 224 c 0
 84 163.64991055 109.057282975 105.88916996 157.992681141 66.7408514266 c 0
 197.306814682 35.4682452009 250.836173984 16 316 16 c 0
 359.282717447 16 404.844195738 20.8886132452 447.602676062 39.0837112551 c 0
 477.364834528 51.7100815137 504.659015905 71.0671061268 527.172655215 99.8845644431 c 0
 545.378290901 122.641609051 560.776590329 151.399154784 571.135950499 185.302515342 c 2
 577.231600847 203.589466384 l 2
 578.981043166 208.837793343 583.223067658 214.23636952 588.657847528 217.150781955 c 0
 592.18607553 219.042801836 596.005384388 219.931750692 599.785228071 219.931750692 c 0
 609.030230192 219.931750692 618.039140792 214.613814446 621.975456725 205.647761489 c 0
 641.503037327 161.168272338 652 108.74287279 652 48 c 0
 652 35.4325380233 663.432573364 24 676 24 c 0
 688.567461977 24 700 35.4325733638 700 48 c 0
 700 140.87424017 676.166849594 218.983110304 635.030792936 280.687195291 c 0
 629.432227364 289.085043648 629.723944169 301.157931447 636.56268929 309.364425592 c 0
 647.278053501 322.222862646 657.240777211 332.244818606 665.288039261 339.142471791 c 0
 671.571148712 344.640192561 675.737168844 347.974938423 677.615123429 349.53682772 c 0
 678.260151271 350.136114812 679.412953242 351.091530646 680.338960508 351.732612599 c 0
 688.124365929 357.12250866 692 363.992011816 692 372 c 0
 692 384.567461977 680.567426636 396 668 396 c 0
 663.092467904 396 660.80477478 395.34564445 655.023432551 391.837584223 c 0
 652.922147356 390.431475034 633.807101287 377.687115082 608.83905951 349.944846441 c 0
 604.476917609 345.098022107 597.655186782 342.212202834 590.68843842 342.212202834 c 0
 585.566527422 342.212202834 580.366232984 343.772017273 576.007318859 347.259148573 c 0
 569.502175953 352.463262898 565.16643972 356.71129665 561.687195291 359.030792936 c 0
 561.477278001 359.170737796 561.082236258 359.444639697 560.807272073 359.646280099 c 0
 547.339103938 369.522936732 532.242292054 378.077371093 516.233730249 387.082187109 c 0
 514.303706165 388.167825656 512.015087202 389.923031055 510.318629747 391.771347993 c 0
 506.143092607 396.320661031 504.107928286 402.132087824 504.107928286 407.926776762 c 0
 504.107928286 415.07789666 507.207397622 422.203525512 513.20860172 426.900120024 c 0
 553.772348341 458.645660857 576 503.612920182 576 552 c 0
EndSplineSet
EndChar

StartChar: quotesingle
Encoding: 39 39 7
Width: 224
Flags: HW
LayerCount: 2
Back
SplineSet
112 688 m 0
 112 480 l 1024
EndSplineSet
Fore
SplineSet
40 688 m 2
 40 727.432573364 72.5674619767 760 112 760 c 0
 151.432573364 760 184 727.432538023 184 688 c 2
 184 480 l 2
 184 440.567426636 151.432538023 408 112 408 c 0
 72.5674266362 408 40 440.567461977 40 480 c 2
 40 688 l 2
88 688 m 2
 88 480 l 2
 88 467.432538023 99.4325733638 456 112 456 c 0
 124.567461977 456 136 467.432573364 136 480 c 2
 136 688 l 2
 136 700.567461977 124.567426636 712 112 712 c 0
 99.4325380233 712 88 700.567426636 88 688 c 2
EndSplineSet
EndChar

StartChar: parenleft
Encoding: 40 40 8
Width: 344
Flags: HW
LayerCount: 2
Back
SplineSet
232 768 m 0
 232 768 112 600 112 368 c 0
 112 136 232 -32 232 -32 c 1024
EndSplineSet
Fore
SplineSet
232 840 m 0
 271.432573364 840 304 807.432538023 304 768 c 0
 304 753.34838276 299.543471389 738.057961853 290.3165821 725.755442801 c 2
 290.3165821 725.755442801 260.157423487 684.160805279 229.400294549 604.384502097 c 0
 205.184806226 541.424232458 184 460.315541479 184 368 c 0
 184 275.694712583 205.193145479 194.55406371 229.393333665 131.633574425 c 0
 260.566446304 50.7783135179 288.668926554 12.5325122569 291.996185226 7.91423873699 c 0
 299.028850007 -1.94496449358 304 -18.3216311693 304 -32 c 0
 304 -71.4325733638 271.432538023 -104 232 -104 c 0
 207.645286163 -104 186.758235145 -91.0597177971 174.276568054 -75.0325407902 c 0
 167.438249923 -66.6907258752 129.947811643 -11.5205458135 94.591803514 80.4050753205 c 0
 65.8150130986 155.430278904 40 253.374463182 40 368 c 0
 40 482.637220945 65.8055405972 580.544996677 94.5997054511 655.615497903 c 0
 130.129995932 747.994253153 168.084973377 803.479640233 174.276568054 811.03254079 c 0
 188.065393416 828.738184051 208.131220191 840 232 840 c 0
232 792 m 0
 224.252484471 792 217.166941462 788.222588615 212.2 781.6 c 0
 212.09459425 781.459459001 211.788126796 781.057607951 211.374081688 780.55947413 c 0
 206.920248449 774.506499611 171.136341458 720.898224061 139.400294549 638.384502097 c 0
 112.194459403 567.455003323 88 475.362779055 88 368 c 0
 88 260.625536818 112.184986901 168.569721096 139.408196486 97.5949246795 c 0
 170.930046446 15.6381147828 206.382372256 -37.7754998834 211.373433955 -44.5585938291 c 0
 211.622779296 -44.8588686343 211.938276722 -45.2510356289 212.2 -45.6 c 0
 217.167174988 -52.2228999846 224.25196455 -56 232 -56 c 0
 244.567461977 -56 256 -44.5674266362 256 -32 c 0
 256 -26.6516172398 254.456528611 -21.9420381474 251.6834179 -18.2445571995 c 0
 250.488205666 -16.5959931522 217.549251245 28.9215959641 184.606666335 114.366425575 c 0
 158.806854521 181.44593629 136 268.305287417 136 368 c 0
 136 467.684458521 158.815193774 554.575767542 184.599705451 621.615497903 c 0
 217.558572065 707.102558184 250.480223907 752.58498386 251.6834179 754.244557199 c 0
 254.456528611 757.942038147 256 762.65161724 256 768 c 0
 256 780.567461977 244.567426636 792 232 792 c 0
EndSplineSet
EndChar

StartChar: parenright
Encoding: 41 41 9
Width: 344
Flags: HW
LayerCount: 2
Back
SplineSet
80 768 m 0
 80 768 200 600 200 368 c 0
 200 136 80 -32 80 -32 c 1024
EndSplineSet
Fore
SplineSet
8 768 m 0
 8 807.432573364 40.5674619767 840 80 840 c 0
 104.354713837 840 125.241764855 827.059717797 137.723431946 811.03254079 c 0
 144.561750077 802.690725875 182.052188357 747.520545814 217.408196486 655.59492468 c 0
 246.184986901 580.569721096 272 482.625536818 272 368 c 0
 272 253.362779055 246.194459403 155.455003323 217.400294549 80.3845020966 c 0
 181.870004068 -11.9942531525 143.915026623 -67.4796402327 137.723431946 -75.0325407902 c 0
 123.934606584 -92.7381840505 103.868779809 -104 80 -104 c 0
 40.5674266362 -104 8 -71.4325380233 8 -32 c 0
 8 -17.3483827602 12.4565286106 -2.05796185259 21.6834178996 10.2445571995 c 2
 21.6834178996 10.2445571995 51.8425765134 51.8391947211 82.5997054511 131.615497903 c 0
 106.815193774 194.575767542 128 275.684458521 128 368 c 0
 128 460.305287417 106.806854521 541.44593629 82.6066663347 604.366425575 c 0
 51.4335536958 685.221686482 23.3310734465 723.467487743 20.003814774 728.085761263 c 0
 12.9711499935 737.944964494 8 754.321631169 8 768 c 0
56 768 m 0
 56 762.65161724 57.5434713894 757.942038147 60.3165821004 754.244557199 c 0
 61.5117943341 752.595993152 94.4507487551 707.078404036 127.393333665 621.633574425 c 0
 153.193145479 554.55406371 176 467.694712583 176 368 c 0
 176 268.315541479 153.184806226 181.424232458 127.400294549 114.384502097 c 0
 94.4414279348 28.8974418164 61.5197760932 -16.5849838598 60.3165821004 -18.2445571995 c 0
 57.5434713894 -21.9420381474 56 -26.6516172398 56 -32 c 0
 56 -44.5674619767 67.4325733638 -56 80 -56 c 0
 87.7475155292 -56 94.8330585384 -52.2225886155 99.8 -45.6 c 0
 99.9054057496 -45.4594590005 100.211873204 -45.0576079505 100.625918312 -44.5594741296 c 0
 105.079751551 -38.506499611 140.863658542 15.1017759391 172.599705451 97.6154979034 c 0
 199.805540597 168.544996677 224 260.637220945 224 368 c 0
 224 475.374463182 199.815013099 567.430278904 172.591803514 638.40507532 c 0
 141.069953554 720.361885217 105.617627744 773.775499883 100.626566045 780.558593829 c 0
 100.377220704 780.858868634 100.061723278 781.251035629 99.8 781.6 c 0
 94.8328250116 788.222899985 87.7480354504 792 80 792 c 0
 67.4325380233 792 56 780.567426636 56 768 c 0
EndSplineSet
EndChar

StartChar: asterisk
Encoding: 42 42 10
Width: 512
Flags: HW
LayerCount: 2
Back
SplineSet
328 684.708007812 m 0
 184 435.291992188 l 1024
184 684.708007812 m 0
 328 435.291992188 l 1024
112 560 m 0
 400 560 l 1024
EndSplineSet
Fore
SplineSet
328 757 m 0
 367.432573364 757 400 724.432538023 400 685 c 0
 400 672.386514585 397.14390935 660.128294873 390.777698892 648.987426571 c 2
 380.841656935 632 l 1
 400 632 l 2
 439.432573364 632 472 599.432538023 472 560 c 0
 472 520.567426636 439.432538023 488 400 488 c 2
 380.841656935 488 l 1
 390.777698892 471.012573429 l 2
 397.14390935 459.871705127 400 447.613485415 400 435 c 0
 400 395.567426636 367.432538023 363 328 363 c 0
 301.109532233 363 277.454400704 377.581252277 265.137913499 399.135104887 c 2
 256 415.278752069 l 1
 246.862086501 399.135104887 l 2
 234.54536212 377.58083722 210.890655632 363 184 363 c 0
 144.567426636 363 112 395.567461977 112 435 c 0
 112 447.613485415 114.85609065 459.871705127 121.222301108 471.012573429 c 2
 131.158343065 488 l 1
 112 488 l 2
 72.5674266362 488 40 520.567461977 40 560 c 0
 40 599.432573364 72.5674619767 632 112 632 c 2
 131.158343065 632 l 1
 121.222301108 648.987426571 l 2
 114.85609065 660.128294873 112 672.386514585 112 685 c 0
 112 724.432573364 144.567461977 757 184 757 c 0
 210.890467767 757 234.545599296 742.418747723 246.862086501 720.864895113 c 2
 256 704.721247931 l 1
 265.137913499 720.864895113 l 2
 277.45463788 742.41916278 301.109344368 757 328 757 c 0
328 709 m 0
 318.882362472 709 310.567197979 703.619049974 306.837835411 697.092665479 c 2
 276.886164522 644.177642724 l 2
 275.25747816 641.300296819 272.488337814 638.173179816 269.424582359 636.105764944 c 0
 265.384350294 633.379425984 260.76443157 632.088508401 256.179061594 632.088508401 c 0
 247.785938127 632.088508401 239.508567262 636.413616572 235.113835478 644.177642724 c 2
 205.113835478 697.177642724 l 2
 201.476227342 703.543456962 193.101188317 709 184 709 c 0
 171.432538023 709 160 697.567426636 160 685 c 0
 160 679.613485415 161.14390935 675.871705127 162.777698892 673.012573429 c 2
 193.716502475 620.117199561 l 2
 195.312987428 617.387725287 196.998331894 612.557823008 196.998331894 608.044917584 c 0
 196.998331894 595.067208887 186.177423954 584 173 584 c 2
 112 584 l 2
 99.4325380233 584 88 572.567426636 88 560 c 0
 88 547.432538023 99.4325733638 536 112 536 c 2
 173 536 l 2
 175.607044166 536 180.223663262 535.166817994 183.454491791 533.603323851 c 0
 191.984134327 529.475575802 196.923950831 520.727194876 196.923950831 511.794191388 c 0
 196.923950831 507.722019477 195.897429408 503.611481969 193.716502475 499.882800439 c 2
 162.777698892 446.987426571 l 2
 161.14390935 444.128294873 160 440.386514585 160 435 c 0
 160 422.432538023 171.432573364 411 184 411 c 0
 193.117637528 411 201.432802021 416.380950026 205.162164589 422.907334521 c 2
 235.113835478 475.822357276 l 2
 236.74252184 478.699703181 239.511662186 481.826820184 242.575417641 483.894235056 c 0
 246.615649706 486.620574016 251.23556843 487.911491599 255.820938406 487.911491599 c 0
 264.214061873 487.911491599 272.491432738 483.586383428 276.886164522 475.822357276 c 2
 306.886164522 422.822357276 l 2
 310.523772658 416.456543038 318.898811683 411 328 411 c 0
 340.567461977 411 352 422.432573364 352 435 c 0
 352 440.386514585 350.85609065 444.128294873 349.222301108 446.987426571 c 2
 318.283497525 499.882800439 l 2
 316.687012572 502.612274713 315.001668106 507.442176992 315.001668106 511.955082416 c 0
 315.001668106 524.932791113 325.822576046 536 339 536 c 2
 400 536 l 2
 412.567461977 536 424 547.432573364 424 560 c 0
 424 572.567461977 412.567426636 584 400 584 c 2
 339 584 l 2
 336.392955834 584 331.776336738 584.833182006 328.545508209 586.396676149 c 0
 320.015865673 590.524424198 315.076049169 599.272805124 315.076049169 608.205808612 c 0
 315.076049169 612.277980523 316.102570592 616.388518031 318.283497525 620.117199561 c 2
 349.222301108 673.012573429 l 2
 350.85609065 675.871705127 352 679.613485415 352 685 c 0
 352 697.567461977 340.567426636 709 328 709 c 0
EndSplineSet
EndChar

StartChar: plus
Encoding: 43 43 11
Width: 640
Flags: HW
LayerCount: 2
Back
SplineSet
536 368 m 0
 104 368 l 1024
320 584 m 0
 320 152 l 1024
EndSplineSet
Fore
SplineSet
536 440 m 2
 575.432573364 440 608 407.432538023 608 368 c 0
 608 328.567426636 575.432538023 296 536 296 c 2
 392 296 l 1
 392 152 l 2
 392 112.567426636 359.432538023 80 320 80 c 0
 280.567426636 80 248 112.567461977 248 152 c 2
 248 296 l 1
 104 296 l 2
 64.5674266362 296 32 328.567461977 32 368 c 0
 32 407.432573364 64.5674619767 440 104 440 c 2
 248 440 l 1
 248 584 l 2
 248 623.432573364 280.567461977 656 320 656 c 0
 359.432573364 656 392 623.432538023 392 584 c 2
 392 440 l 1
 536 440 l 2
536 392 m 2
 368 392 l 2
 357.699291841 392 344 401.472763659 344 416 c 2
 344 584 l 2
 344 596.567461977 332.567426636 608 320 608 c 0
 307.432538023 608 296 596.567426636 296 584 c 2
 296 416 l 2
 296 405.699291841 286.527236341 392 272 392 c 2
 104 392 l 2
 91.4325380233 392 80 380.567426636 80 368 c 0
 80 355.432538023 91.4325733638 344 104 344 c 2
 272 344 l 2
 282.300708159 344 296 334.527236341 296 320 c 2
 296 152 l 2
 296 139.432538023 307.432573364 128 320 128 c 0
 332.567461977 128 344 139.432573364 344 152 c 2
 344 320 l 2
 344 330.300708159 353.472763659 344 368 344 c 2
 536 344 l 2
 548.567461977 344 560 355.432573364 560 368 c 0
 560 380.567461977 548.567426636 392 536 392 c 2
EndSplineSet
EndChar

StartChar: comma
Encoding: 44 44 12
Width: 296
Flags: HW
LayerCount: 2
Back
SplineSet
152 96 m 0
 160 96 168 88.0009765625 168 79.9990234375 c 0
 168 64 152 48 136 48 c 0
 128.000976562 48 120 56 120 64 c 0
 120 80 136 96 152 96 c 0
 160 96 176 88 176 64 c 0
 176 24 142 -56 142 -56 c 1024
EndSplineSet
Fore
SplineSet
248 64 m 0
 248 50.0933554067 246.61882097 34.9951297192 243.422514358 21.7344930208 c 0
 239.417027795 2.54480076906 233.787881697 -10.6037327329 229.96532698 -23.9826742428 c 0
 220.732774947 -52.6035855454 211.150853132 -76.0966312681 209.049283069 -81.688518261 c 0
 208.778841301 -82.609625556 208.374491772 -83.6954673339 208.192274363 -84.1379953261 c 0
 197.506776277 -110.08849068 171.769436187 -128 142 -128 c 0
 102.567426636 -128 70 -95.4325380233 70 -56 c 0
 70 -44.3356647134 73.2738580336 -35.2837620553 75.2316008468 -29.4105336156 c 0
 75.3487466842 -29.0590961034 75.5279843762 -28.568884089 75.6272411181 -28.3132480172 c 2
 75.6272411181 -28.3132480172 79.3896661709 -18.5618227296 83.7872594913 -6.49449319156 c 1
 77.0600920179 -0.990447076932 73.7919683288 2.69785912052 69.5131888549 7.68976850679 c 0
 59.6052310784 20.0747157274 48 38.2724659807 48 64 c 0
 48 99.223346136 65.6431832035 126.195878545 85.6800587783 142.475839949 c 0
 101.149006262 155.564949359 123.904074648 168 152 168 c 0
 164.16013663 168 173.642719906 165.417314646 181.96466775 162.643332031 c 0
 218.659358851 149.052705698 248 113.148479036 248 64 c 0
200 64 m 0
 200 92.6488057764 184.106216419 110.425841 166.0217274 117.360393442 c 0
 162.352948403 118.545691272 155.84764717 120 152 120 c 0
 138.095925352 120 126.850993738 114.435050641 116.319941222 105.524160051 c 0
 104.356816797 95.804121455 96 82.776653864 96 64 c 0
 96 53.6946176089 99.7656260902 46.826777947 106.489326638 38.3077062954 c 0
 111.090116788 33.0072263952 116.561751812 28.2423446007 121.201833514 26.5550421637 c 0
 129.869357358 23.4032153115 136.930002695 13.9431796503 136.930002695 3.57108592463 c 0
 136.930002695 1.11317364506 136.533501692 -1.39595660684 135.667923121 -3.88449499859 c 0
 128.418395185 -24.7268878156 122.203948697 -40.9412799476 120.586862292 -45.1338308913 c 0
 118.951031403 -50.0572274675 118 -53.9771603718 118 -56 c 0
 118 -68.5674619767 129.432573364 -80 142 -80 c 0
 151.765968183 -80 159.544688511 -74.7545307673 163.4083903 -66.7766460515 c 0
 165.752792389 -60.0210374742 174.201298104 -40.2478303588 184.020309747 -10.0643674806 c 0
 188.345833348 4.80132021838 194.099694543 19.8749410391 196.466063783 31.7067872433 c 0
 196.51870331 31.9699848746 196.628628165 32.4690476757 196.716579997 32.8208550009 c 0
 199.10080471 42.3577538535 200 52.2068674161 200 64 c 0
EndSplineSet
EndChar

StartChar: hyphen
Encoding: 45 45 13
Width: 416
Flags: HW
LayerCount: 2
Back
SplineSet
80 264 m 0
 336 264 l 1024
EndSplineSet
Fore
SplineSet
80 192 m 2
 40.5674266362 192 8 224.567461977 8 264 c 0
 8 303.432573364 40.5674619767 336 80 336 c 2
 336 336 l 2
 375.432573364 336 408 303.432538023 408 264 c 0
 408 224.567426636 375.432538023 192 336 192 c 2
 80 192 l 2
80 240 m 2
 336 240 l 2
 348.567461977 240 360 251.432573364 360 264 c 0
 360 276.567461977 348.567426636 288 336 288 c 2
 80 288 l 2
 67.4325380233 288 56 276.567426636 56 264 c 0
 56 251.432538023 67.4325733638 240 80 240 c 2
EndSplineSet
EndChar

StartChar: period
Encoding: 46 46 14
Width: 288
Flags: HW
LayerCount: 2
Back
SplineSet
166.717353187 72 m 1
 162.615859143 59.0688118425 149.307929572 48 136 48 c 0
 128 48 120 56 120 64 c 0
 120 66.6920704285 120.452952699 69.384140857 121.282646813 72 c 1025
121.282646813 72 m 1
 125.384140857 84.9311881575 138.692070428 96 152 96 c 0
 160 96 168 88 168 80 c 0
 168 77.3079295715 167.547047301 74.615859143 166.717353187 72 c 1025
EndSplineSet
Fore
SplineSet
98.3701093398 78.2156641754 m 0
 97.2220705144 74.7715476992 96 68.730653837 96 64 c 0
 96 50.7051129808 101.87800347 41.6770430908 110.186309975 34.5851390153 c 0
 118.122021495 28.3218570432 125.620381895 24 136 24 c 0
 148.410261051 24 157.259098425 27.683809154 166.687195291 33.9692070641 c 0
 178.442151445 41.8058445001 183.633770126 46.6963357701 190.231600847 67.5894663844 c 0
 191.230199365 70.5852619377 192 75.269346163 192 80 c 0
 192 90.3613368889 188.335835602 97.0446679306 181.414860985 105.813690025 c 0
 174.878461409 113.471211973 165.479214613 120 152 120 c 0
 139.589738949 120 130.740901575 116.316190846 121.312804709 110.030792936 c 0
 110.726999616 102.97358954 103.109063146 92.6526576429 98.3701093398 78.2156641754 c 0
236.218642843 53.8085145353 m 0
 227.945823357 28.6057702711 212.19128533 6.61644668328 193.312804709 -5.96920706411 c 0
 178.740901575 -15.683809154 159.589738949 -24 136 -24 c 0
 110.335560345 -24 91.933989946 -12.2821882965 79.8199290815 -2.5909396049 c 0
 63.4917693294 11.0158601886 48 33.3742151757 48 64 c 0
 48 72.8094777932 49.1077854171 81.6114308931 51.7813571573 90.1914854647 c 0
 60.0541766426 115.394229729 75.8087146695 137.383553317 94.6871952906 149.969207064 c 0
 109.259098425 159.683809154 128.410261051 168 152 168 c 0
 182.611615161 168 204.997806862 152.49183021 218.590939605 136.180070918 c 0
 228.285232827 124.062204391 240 105.668198883 240 80 c 0
 240 71.1905222068 238.892214583 62.3885691069 236.218642843 53.8085145353 c 0
EndSplineSet
EndChar

StartChar: slash
Encoding: 47 47 15
Width: 576
Flags: HW
LayerCount: 2
Back
SplineSet
112 48 m 0
 464 688 l 1024
EndSplineSet
Fore
SplineSet
112 -24 m 0
 72.5674266362 -24 40 8.5674619767 40 48 c 0
 40 59.8907598582 43.0694174614 72.2450270473 49.0651003774 82.7374721503 c 2
 400.896297767 722.430558314 l 2
 412.902613233 744.942399811 437.05690702 760 464 760 c 0
 503.432573364 760 536 727.432538023 536 688 c 0
 536 676.109240142 532.930582539 663.754972953 526.934899623 653.26252785 c 2
 175.103702233 13.5694416861 l 2
 163.097386767 -8.94239981132 138.94309298 -24 112 -24 c 0
112 24 m 0
 121.05690702 24 128.902613233 28.9423998113 132.896297767 36.4305583139 c 2
 485.065100377 676.73747215 l 2
 487.069417461 680.245027047 488 683.890759858 488 688 c 0
 488 700.567461977 476.567426636 712 464 712 c 0
 454.94309298 712 447.097386767 707.057600189 443.103702233 699.569441686 c 2
 90.9348996226 59.2625278497 l 2
 88.9305825386 55.7549729527 88 52.1092401418 88 48 c 0
 88 35.4325380233 99.4325733638 24 112 24 c 0
EndSplineSet
EndChar

StartChar: zero
Encoding: 48 48 16
Width: 672
Flags: HW
LayerCount: 2
Back
SplineSet
584 368 m 0
 584 186.850585938 472.966796875 40 336 40 c 0
 199.033203125 40 88 186.850585938 88 368 c 0
 88 549.149414062 199.033203125 696 336 696 c 0
 472.966796875 696 584 549.149414062 584 368 c 0
EndSplineSet
Fore
SplineSet
656 368 m 0
 656 228.923580702 600.806620767 101.520158721 505.674740026 28.0091599666 c 0
 457.996649247 -8.83300109015 398.963724698 -32 336 -32 c 0
 273.03624436 -32 214.003375599 -8.83302028923 166.325259974 28.0091599666 c 0
 71.1933723929 101.520164007 16 228.923562716 16 368 c 0
 16 507.076419298 71.1933792333 634.479841279 166.325259974 707.990840033 c 0
 214.003350753 744.83300109 273.036275302 768 336 768 c 0
 398.96375564 768 457.996624401 744.833020289 505.674740026 707.990840033 c 0
 600.806627607 634.479835993 656 507.076437284 656 368 c 0
608 368 m 0
 608 494.923562716 557.193372393 607.520164007 476.325259974 670.009159967 c 0
 436.003375599 701.166979711 387.03624436 720 336 720 c 0
 284.963724698 720 235.996649247 701.16699891 195.674740026 670.009159967 c 0
 114.806620767 607.520158721 64 494.923580702 64 368 c 0
 64 241.076437284 114.806627607 128.479835993 195.674740026 65.9908400334 c 0
 235.996624401 34.8330202892 284.96375564 16 336 16 c 0
 387.036275302 16 436.003350753 34.8330010901 476.325259974 65.9908400334 c 0
 557.193379233 128.479841279 608 241.076419298 608 368 c 0
512 368 m 0
 512 469.654022819 469.205782721 553.559653964 417.164620699 594.134119269 c 0
 391.782689941 614.264616077 364.272735898 624 336 624 c 0
 307.731504624 624 280.210485009 614.259203106 254.835379301 594.134119269 c 0
 202.793873442 553.559385888 160 469.654258433 160 368 c 0
 160 266.345977181 202.794217279 182.440346036 254.835379301 141.865880731 c 0
 280.217310059 121.735383923 307.727264102 112 336 112 c 0
 364.268495376 112 391.789514991 121.740796894 417.164620699 141.865880731 c 0
 469.206126558 182.440614112 512 266.345741567 512 368 c 0
560 368 m 0
 560 253.654258433 512.793873442 155.559385888 446.835379301 104.134119269 c 0
 414.210485009 78.2592031061 375.731504624 64 336 64 c 0
 296.272735898 64 257.782689941 78.2646160774 225.164620699 104.134119269 c 0
 159.205782721 155.559653964 112 253.654022819 112 368 c 0
 112 482.345741567 159.206126558 580.440614112 225.164620699 631.865880731 c 0
 257.789514991 657.740796894 296.268495376 672 336 672 c 0
 375.727264102 672 414.217310059 657.735383923 446.835379301 631.865880731 c 0
 512.794217279 580.440346036 560 482.345977181 560 368 c 0
EndSplineSet
Substitution2: "(ss01) Slashed Zero subtable" zero.ss01
Substitution2: "(ss02) Dotted Zero subtable" zero.ss02
EndChar

StartChar: one
Encoding: 49 49 17
Width: 352
Flags: HW
LayerCount: 2
Back
SplineSet
176 688 m 0
 176 48 l 1024
EndSplineSet
Fore
SplineSet
104 688 m 2
 104 727.432573364 136.567461977 760 176 760 c 0
 215.432573364 760 248 727.432538023 248 688 c 2
 248 48 l 2
 248 8.56742663621 215.432538023 -24 176 -24 c 0
 136.567426636 -24 104 8.5674619767 104 48 c 2
 104 688 l 2
152 688 m 2
 152 48 l 2
 152 35.4325380233 163.432573364 24 176 24 c 0
 188.567461977 24 200 35.4325733638 200 48 c 2
 200 688 l 2
 200 700.567461977 188.567426636 712 176 712 c 0
 163.432538023 712 152 700.567426636 152 688 c 2
EndSplineSet
Substitution2: "(ss03) Serifed One subtable" one.ss03
Substitution2: "Tabular Figures subtable" one.tnum
EndChar

StartChar: two
Encoding: 50 50 18
Width: 672
Flags: HW
LayerCount: 2
Back
SplineSet
128 536 m 0
 128 642.828125 214.243164062 696 322 696 c 0
 434 696 516 624 516 528 c 0
 516 466.232421875 489.022460938 435.219726562 400 382 c 0
 216 272 136 232 136 48 c 0
 544 48 l 1024
EndSplineSet
Fore
SplineSet
200 536 m 0
 200 496.567426636 167.432538023 464 128 464 c 0
 88.5674266362 464 56 496.567461977 56 536 c 0
 56 625.605066835 101.223718937 689.551966238 158.237564819 725.325359732 c 0
 206.078158712 755.364802409 263.614486149 768 322 768 c 0
 369.26024748 768 414.049851001 758.307890229 453.733126292 738.466252584 c 0
 532.886666391 698.889482535 588 620.925724373 588 528 c 0
 588 490.261653137 579.004614395 452.083294983 555.735044758 418.34241901 c 0
 527.524978647 377.71992381 488.673213735 350.610479247 437.287074511 320.383338526 c 0
 384.65109187 288.603122592 323.060546602 252.078475543 291.370586892 228.777034579 c 0
 267.855147277 210.905300472 250.316422701 193.985317626 239.46657324 178.962449143 c 0
 227.535270292 162.391195048 219.611877677 145.292273339 214.10202591 120 c 1
 544 120 l 2
 583.432573364 120 616 87.4325380233 616 48 c 0
 616 8.56742663621 583.432538023 -24 544 -24 c 2
 136 -24 l 2
 96.5674266362 -24 64 8.5674619767 64 48 c 0
 64 135.147970427 81.8235739556 205.86342406 123.528233252 264.030448868 c 0
 146.441709369 295.672868268 174.454456165 321.361654902 205.777374534 344.331795038 c 0
 249.17139994 376.360718552 306.868139097 410.708010539 362.701934406 443.610068489 c 0
 408.832902515 471.480861722 431.141457078 491.397242967 437.122889056 499.472155154 c 0
 442.082448408 507.389829128 444 510.473636485 444 528 c 0
 444 563.678128136 426.318682738 591.925883618 390.367181109 609.483593715 c 0
 372.050547883 618.641910329 348.882230877 624 322 624 c 0
 284.274536462 624 253.88577335 615.626664948 234.44647612 603.477104179 c 0
 221.037002717 595.589178648 213.812402205 586.708606828 207.639292896 574.613006432 c 0
 202.990190722 564.312528111 200 552.598417683 200 536 c 0
152 536 m 0
 152 559.403661336 156.566458601 578.498611223 164.366083241 595.397797943 c 0
 174.304045779 615.273723018 188.901005751 632.374355745 209.55352388 644.522895821 c 0
 238.11422665 662.373335052 277.725463538 672 322 672 c 0
 355.117769123 672 385.949452117 665.358089671 411.632818891 652.516406285 c 0
 461.681317262 628.074116382 492 582.321871864 492 528 c 0
 492 503.889364681 485.9287087 486.756297179 477.247875706 473.114988187 c 0
 477.085618543 472.860012646 476.766742639 472.382278412 476.529603309 472.050283351 c 0
 462.577020725 452.516667733 436.61382471 432.18486931 387.298065594 402.389931511 c 0
 331.152792836 369.30432435 274.789147043 335.610161363 234.252455124 305.69022209 c 0
 205.51255559 284.614295765 181.568535775 262.341279788 162.471766748 235.969551132 c 0
 128.176426044 188.13657594 112 128.852029573 112 48 c 0
 112 35.4325380233 123.432573364 24 136 24 c 2
 544 24 l 2
 556.567461977 24 568 35.4325733638 568 48 c 0
 568 60.5674619767 556.567426636 72 544 72 c 2
 186 72 l 2
 174.205193883 72 162.00366991 82.4253197533 162.00366991 96.0803174929 c 0
 162.00366991 142.046399212 181.712425806 180.897271755 200.523175805 207.02331342 c 0
 215.690780297 228.024611948 236.141695935 247.092300369 262.629413108 267.222965421 c 0
 298.939453398 293.921524457 359.34890813 329.396877408 412.712925489 361.616661474 c 0
 463.343454345 391.399325507 494.449020273 414.242634635 516.287120824 445.689499428 c 0
 532.972333418 469.88305769 540 497.752952884 540 528 c 0
 540 601.074275627 497.113333609 663.110517465 432.266873708 695.533747416 c 0
 399.950148999 711.692109771 362.73975252 720 322 720 c 0
 270.385513851 720 221.921841288 708.635197591 183.762435181 684.674640268 c 0
 138.776281063 656.448033762 104 608.394933165 104 536 c 0
 104 523.432538023 115.432573364 512 128 512 c 0
 140.567461977 512 152 523.432573364 152 536 c 0
EndSplineSet
EndChar

StartChar: three
Encoding: 51 51 19
Width: 672
Flags: HW
LayerCount: 2
Back
SplineSet
244 422 m 0
 459.064453125 512.845703125 484 688 484 688 c 0
 116 688 l 1024
135.443359375 153.767578125 m 0
 170.8671875 86.4765625 246.462890625 40 334 40 c 0
 455.502929688 40 556 129.54296875 556 240 c 0
 556 350.45703125 476 444 344 444 c 0
 311.763671875 444 271.587890625 433.32421875 244 422 c 1024
EndSplineSet
Fore
SplineSet
484 760 m 2
 525.608232074 760 556 726.535223154 556 688 c 2
 556 681 l 2
 556 679.500227937 555.80347623 677.717710897 555.562743016 676.440608119 c 0
 554.081706666 668.564679249 537.654508149 580.119690101 463.554454092 492.774571229 c 1
 504.99167037 475.345419374 539.204721467 449.555220768 566.538211664 416.24252959 c 0
 607.328261954 366.633008968 628 304.119089374 628 240 c 0
 628 83.5476198146 489.070361676 -32 334 -32 c 0
 221.538509292 -32 120.133490762 28.3268703268 72.3050400209 118.791079891 c 0
 64.7096503131 132.822599192 63 141.673201776 63 154 c 0
 63 193.432573364 95.5674619767 226 135 226 c 0
 163.537924207 226 187.350145479 209.468477228 199.147241701 187.348921811 c 0
 221.760399588 145.472703501 271.648750974 112 334 112 c 0
 421.784803558 112 484 176.539251181 484 240 c 0
 484 274.010124496 473.761011189 302.298959503 455.409673616 324.821055616 c 0
 433.100777968 352.08748363 397.614009497 372 344 372 c 0
 327.56074594 372 290.882260361 363.529742155 270.745584366 355.650173287 c 0
 270.381892498 355.507859078 269.863833955 355.323056704 269.589466384 355.231600847 c 0
 264.686894177 353.597410111 255.834948624 350 244 350 c 0
 204.567426636 350 172 382.567461977 172 422 c 0
 172 448.03261616 185.96926672 469.015132285 204.512040284 481.85243706 c 0
 208.385785285 484.434933727 214.912314142 487.526773658 217.428684697 488.435770951 c 0
 300.101081673 523.845117801 345.578508696 570.051765679 373.10012858 610.416808175 c 0
 374.144183572 611.982890664 376.140355591 615.029308629 376.770955249 616 c 2
 116 616 l 2
 76.5674266362 616 44 648.567461977 44 688 c 0
 44 727.432573364 76.5674619767 760 116 760 c 2
 484 760 l 2
484 712 m 2
 116 712 l 2
 103.432538023 712 92 700.567426636 92 688 c 0
 92 675.432538023 103.432573364 664 116 664 c 2
 418 664 l 2
 420.434656717 664 423.679248137 663.48726915 426.316733926 662.512928215 c 0
 435.976992695 658.944231994 441.944785337 649.533639487 441.944785337 639.781115126 c 0
 441.944785337 636.469246509 441.256567639 633.117945632 439.791025228 629.942603741 c 0
 432.895656719 615.002638637 423.482037729 599.456441288 412.89987142 583.583191825 c 0
 380.469011373 536.017930422 326.657997194 482.728298651 235.392750593 443.9143432 c 0
 234.97246996 443.735603161 234.171553579 443.425629912 233.589466384 443.231600847 c 0
 232.052880639 442.719405598 233.639364514 443.525611449 231.518998847 442.171192851 c 0
 224.046745072 436.816873103 220 430.085485787 220 422 c 0
 220 409.432538023 231.432573364 398 244 398 c 0
 246.363654056 398 246.512158788 398.100732852 253.830862585 400.574768777 c 0
 278.518721869 410.097556594 316.696373067 420 344 420 c 0
 410.380073841 420 460.913803547 393.894694518 492.574975181 355.197706966 c 0
 518.252624306 323.684228495 532 283.996342696 532 240 c 0
 532 145.460748819 444.215196442 64 334 64 c 0
 254.351249026 64 188.239600412 106.527296499 156.852758299 164.651078189 c 0
 152.649854521 172.531522772 144.462075793 178 135 178 c 0
 122.432538023 178 111 166.567426636 111 154 c 0
 111 149.784862096 111.796096535 146.480377554 114.055959421 142.525617503 c 0
 153.960147964 66.3448939213 238.27138365 16 334 16 c 0
 466.929638324 16 580 114.452380185 580 240 c 0
 580 293.880910625 562.671738046 345.366991032 529.461788336 385.75747041 c 0
 500.593720464 420.940428129 462.160593191 446.063695031 414.760636637 458.825221796 c 0
 412.650943568 459.393216083 408.090345206 461.463789482 405.413210039 463.750288256 c 0
 399.905018634 468.454747358 397.110263499 475.239760086 397.110263499 482.035569945 c 0
 397.110263499 488.182230181 399.39659784 494.337723337 404.029437252 498.970562748 c 0
 486.864446845 581.805572342 505.346763599 669.327862093 508 683.226603388 c 2
 508 688 l 2
 508 701.464776846 498.391767926 712 484 712 c 2
EndSplineSet
EndChar

StartChar: four
Encoding: 52 52 20
Width: 672
Flags: HW
LayerCount: 2
Back
SplineSet
592 270 m 0
 112 270 l 0
 112 332 l 0
 418 686 l 0
 480 686 l 0
 480 46 l 1024
EndSplineSet
Fore
SplineSet
480 -26 m 0
 440.567426636 -26 408 6.5674619767 408 46 c 2
 408 198 l 1
 112 198 l 2
 72.5674266362 198 40 230.567461977 40 270 c 2
 40 332 l 2
 40 349.618847029 46.7900894565 366.263634375 57.9518080948 378.820567843 c 2
 363.630732255 732.449127166 l 2
 376.785762247 748.527497156 397.1279871 758 418 758 c 2
 480 758 l 2
 519.432573364 758 552 725.432538023 552 686 c 2
 552 342 l 1
 592 342 l 2
 631.432573364 342 664 309.432538023 664 270 c 0
 664 230.567426636 631.432538023 198 592 198 c 2
 552 198 l 1
 552 46 l 2
 552 6.56742663621 519.432538023 -26 480 -26 c 0
480 22 m 0
 492.567461977 22 504 33.4325733638 504 46 c 2
 504 222 l 2
 504 232.300708159 513.472763659 246 528 246 c 2
 592 246 l 2
 604.567461977 246 616 257.432573364 616 270 c 0
 616 282.567461977 604.567426636 294 592 294 c 2
 528 294 l 2
 517.699291841 294 504 303.472763659 504 318 c 2
 504 686 l 2
 504 698.567461977 492.567426636 710 480 710 c 2
 418 710 l 2
 410.8720129 710 405.214237753 707.472502844 400.369267745 701.550872834 c 2
 94.0481919052 347.179432157 l 2
 89.2099105435 341.736365625 88 338.381152971 88 332 c 2
 88 270 l 2
 88 257.432538023 99.4325733638 246 112 246 c 2
 432 246 l 2
 442.300708159 246 456 236.527236341 456 222 c 2
 456 46 l 2
 456 33.4325380233 467.432573364 22 480 22 c 0
408 342 m 1
 408 564.566172452 l 1
 215.490995532 342 l 1
 408 342 l 1
456 318 m 2
 456 307.699291841 446.527236341 294 432 294 c 2
 163 294 l 2
 158.236199437 294 152.892933502 295.638604107 148.771996215 298.672198566 c 0
 142.426527642 303.343363632 139.10540403 310.701680221 139.10540403 318.097849879 c 0
 139.10540403 323.651227558 140.977748411 329.2259456 144.848064378 333.700548818 c 2
 413.848064378 644.700548818 l 2
 417.8039551 649.274087906 423.831560216 652.431355364 430.117029949 652.926019807 c 0
 430.733288215 652.974519134 431.346287462 652.998331894 431.955082416 652.998331894 c 0
 444.932791113 652.998331894 456 642.177423954 456 629 c 2
 456 318 l 2
EndSplineSet
EndChar

StartChar: five
Encoding: 53 53 21
Width: 672
Flags: HW
LayerCount: 2
Back
SplineSet
128 155.704101562 m 0
 165.8359375 86.712890625 238.322265625 40 322 40 c 0
 444.607421875 40 544 140.288085938 544 264 c 0
 544 387.711914062 444.607421875 488 322 488 c 0
 249.788085938 488 184 456 136 400 c 0
 168 688 l 0
 488 688 l 1024
EndSplineSet
Fore
SplineSet
136 328 m 0
 100.106311285 328 64 356.447128616 64 400 c 2
 64 405 l 2
 64 405.846927505 64.0766384249 407.01898914 64.1467903678 407.650356626 c 2
 96.1649426439 695.81372711 l 2
 100.683666636 731.963519044 131.411524704 760 168 760 c 2
 488 760 l 2
 527.432573364 760 560 727.432538023 560 688 c 0
 560 648.567426636 527.432538023 616 488 616 c 2
 232.445388 616 l 1
 224.373502767 544.429284269 l 1
 256.121515167 554.89339373 287.918116658 560 322 560 c 0
 484.418283176 560 616 427.105640925 616 264 c 0
 616 100.894342293 484.418254946 -32 322 -32 c 0
 210.836757273 -32 114.821265992 30.4026138486 65.0542054052 121.281594051 c 0
 59.0815207467 131.733792203 56 144.118770582 56 156 c 0
 56 195.432573364 88.5674619767 228 128 228 c 0
 154.936432338 228 179.116836305 212.905931929 191.079670977 190.475616918 c 0
 216.957344649 143.895804308 266.369520673 112 322 112 c 0
 404.613693892 112 472 179.049891294 472 264 c 0
 472 348.951576419 404.611852826 416 322 416 c 0
 271.191178392 416 226.169731722 394.719789911 190.024713341 353.153018773 c 0
 178.78323476 340.506355369 160.568812892 328 136 328 c 0
136 376 m 0
 143.431187108 376 149.21676524 379.493644631 153.975286659 384.846981227 c 0
 197.830268278 435.280210089 256.808821608 464 322 464 c 0
 431.388147174 464 520 375.048423581 520 264 c 0
 520 152.950108706 431.386306108 64 322 64 c 0
 247.630479327 64 183.042655351 106.104195692 148.920329023 167.524383082 c 0
 144.883163695 175.094068071 137.063567662 180 128 180 c 0
 115.432538023 180 104 168.567426636 104 156 c 0
 104 151.881229418 104.918479253 148.266207797 106.945794595 144.718405949 c 0
 149.178734008 67.5973861514 229.163242727 16 322 16 c 0
 457.581745054 16 568 127.105657707 568 264 c 0
 568 400.894359075 457.581716824 512 322 512 c 0
 280.585529431 512 242.371561403 502.894643395 206.511266159 485.424243148 c 0
 203.724172536 484.066428306 199.08720199 482.882015699 195.189683996 483.013683318 c 0
 181.401961674 483.479466047 170.605104905 495.981037094 172.151196364 509.689714696 c 2
 187.151196364 642.689714696 l 2
 188.375761191 653.547522828 198.386749116 664 211 664 c 2
 488 664 l 2
 500.567461977 664 512 675.432573364 512 688 c 0
 512 700.567461977 500.567426636 712 488 712 c 2
 168 712 l 2
 156.588475296 712 145.316333364 702.036480956 143.835057356 690.18627289 c 2
 112 403.670756685 l 1
 112 400 l 2
 112 385.552871384 123.893688715 376 136 376 c 0
EndSplineSet
EndChar

StartChar: six
Encoding: 54 54 22
Width: 672
Flags: HW
LayerCount: 2
Back
SplineSet
518 624 m 4
 518 624 470 696 358 696 c 4
 278 696 118 624.52734375 118 368 c 4
 118 101.782226562 271.99609375 40 358 40 c 4
 488.828125 40 562 131.782226562 562 222 c 4
 562 318 470 404 350 404 c 4
 230.387695312 404 148.70703125 340.1796875 148.70703125 204 c 1028
EndSplineSet
Fore
SplineSet
590 624 m 0
 590 584.567426636 557.432538023 552 518 552 c 0
 493.924414196 552 471.484974746 565.017284092 459.011666248 582.283868315 c 0
 456.598175872 585.240478888 449.465897347 594.627955276 433.275570558 604.650538527 c 0
 417.806878704 614.420238645 393.576368108 624 358 624 c 0
 335.205755883 624 285.413723374 610.560267355 247.524691259 564.740972705 c 0
 225.177379862 537.50518694 204.139713752 496.468068371 194.829330879 437.491851311 c 1
 242.286293001 465.607046285 294.207431906 476 350 476 c 0
 452.546797627 476 543.135422799 427.459376562 593.878801915 352.447424825 c 0
 619.527532211 314.531910475 634 268.946654795 634 222 c 0
 634 150.885789094 601.772839172 78.9676619615 542.283992405 30.4952682991 c 0
 494.834526716 -9.22986576629 430.89556598 -32 358 -32 c 0
 305.15617428 -32 237.834579071 -15.619972563 176.906032308 33.3404667998 c 0
 100.156591306 95.8364401876 46 204.750377144 46 368 c 0
 46 495.598972848 82.5119844983 590.423812838 136.480601339 656.265525385 c 0
 204.359130825 738.150735557 292.068115853 768 358 768 c 0
 504.527782059 768 571.714144841 673.695398044 578.164941283 664.019203381 c 0
 585.558756322 652.189099318 590 639.053022407 590 624 c 0
542 624 m 0
 542 629.005637608 540.838357603 632.993449915 537.855049721 637.945682617 c 0
 533.765047868 643.875249635 479.012082351 720 358 720 c 0
 305.931884147 720 231.640869175 695.849264443 173.519398661 625.734474615 c 0
 127.488015502 569.576187162 94 486.401027152 94 368 c 0
 94 215.249622856 143.843408694 122.163559812 207.093967692 70.6595332002 c 0
 258.165420929 29.619972563 314.84382572 16 358 16 c 0
 421.10443402 16 473.165473284 35.2298657663 511.716007595 67.5047317009 c 0
 560.227160828 107.032338038 586 165.114210906 586 222 c 0
 586 259.053345205 574.472467789 295.468089525 554.121198085 325.552575175 c 0
 512.864577201 386.540623438 437.453202373 428 350 428 c 0
 292.541228287 428 242.191499935 414.864499715 202.46799414 384.851184226 c 0
 195.076234562 379.307364542 189.197968838 374.256843341 182.970562748 368.029437252 c 0
 179.159797428 364.218671931 173.130122043 361.308645855 167.126849806 361.026468564 c 0
 166.758113749 361.009136526 166.39081714 361.000566675 166.025155302 361.000566675 c 0
 152.970938412 361.000566675 142.00024858 371.92290533 142.00024858 385.016246813 c 0
 142.00024858 483.506223225 176.180203871 553.461868235 210.446239108 595.22359868 c 0
 258.609795108 653.467898959 320.786047925 672 358 672 c 0
 402.423631892 672 436.193121296 659.579761355 458.724429442 645.349461473 c 0
 480.282768906 632.003822758 492.483785967 617.198158163 496.015411558 612.858464314 c 0
 496.623903444 612.154634615 497.202519331 611.426729769 497.732612599 610.661039492 c 0
 502.276857672 604.097129942 510.005958192 600 518 600 c 0
 530.567461977 600 542 611.432573364 542 624 c 0
221.007942645 206.474524241 m 1
 235.322548114 177.642337805 252.185594891 157.386520427 268.024337895 144.715526024 c 0
 298.993319912 119.76829051 334.719195917 112 358 112 c 0
 401.256087784 112 430.175978894 124.251482508 450.577305713 141.388597035 c 0
 476.341128128 162.996964222 490 193.494518322 490 222 c 0
 490 238.716787706 484.74529173 255.200374169 473.990982516 271.745465267 c 0
 451.895865564 304.478971862 407.266949124 332 350 332 c 0
 307.759464377 332 279.258412901 321.943809675 260.452746855 307.839560141 c 0
 238.425948441 291.129575138 221.76008645 264.796209587 221.007942645 206.474524241 c 1
173 204 m 2
 173 274.035197698 195.705338015 318.970021484 231.547253145 346.160439859 c 0
 260.741587099 368.056190325 300.240535623 380 350 380 c 0
 422.733050876 380 482.104134436 345.521028138 514.009017484 298.254534733 c 0
 529.25470827 274.799625831 538 249.283212294 538 222 c 0
 538 178.505481678 517.658871872 135.003035778 481.422694287 104.611402965 c 0
 451.824021106 79.7485174924 410.743912216 64 358 64 c 0
 325.265717732 64 279.039849955 74.2049893197 237.944091091 107.309906182 c 0
 214.687099727 125.915499273 192.610558612 153.962680265 175.284351147 190.780871128 c 0
 173.915771544 193.689102785 173 197.488861454 173 201 c 2
 173 204 l 2
EndSplineSet
EndChar

StartChar: seven
Encoding: 55 55 23
Width: 672
Flags: HW
LayerCount: 2
Back
SplineSet
104 688 m 0
 552 688 l 0
 552 630 l 0
 552 630 280 480 280 80 c 0
 280 48 l 1024
EndSplineSet
Fore
SplineSet
552 760 m 2
 594.465760034 760 624 724.358417774 624 688 c 2
 624 630 l 2
 624 604.000418755 609.558639327 579.231274308 586.282531971 566.817350385 c 0
 585.197948423 566.220131952 568.050595416 556.625984479 537.901773173 530.0240825 c 0
 513.151331753 508.129461245 482.437317754 476.458580454 452.809990478 433.451169892 c 0
 400.24578619 356.038432668 352 243.066321773 352 80 c 2
 352 48 l 2
 352 8.56742663621 319.432538023 -24 280 -24 c 0
 240.567426636 -24 208 8.5674619767 208 48 c 2
 208 80 l 2
 208 356.858381158 328.929144947 527.660867618 419.358860315 616 c 1
 104 616 l 2
 64.5674266362 616 32 648.567461977 32 688 c 0
 32 727.432573364 64.5674619767 760 104 760 c 2
 552 760 l 2
552 712 m 2
 104 712 l 2
 91.4325380233 712 80 700.567426636 80 688 c 0
 80 675.432538023 91.4325733638 664 104 664 c 2
 483 664 l 2
 489.368113025 664 496.103470074 661.19719764 500.65012867 656.262624571 c 0
 504.845862962 651.70891617 506.891932486 645.882037109 506.891932486 640.071573561 c 0
 506.891932486 632.936430515 503.80658422 625.826041061 497.827717246 621.128359868 c 0
 417.466090776 557.987081927 256 392.859305492 256 80 c 2
 256 48 l 2
 256 35.4325380233 267.432573364 24 280 24 c 0
 292.567461977 24 304 35.4325733638 304 48 c 2
 304 80 l 2
 304 252.933678227 355.75421381 375.961567332 413.190009522 460.548830108 c 0
 445.562682246 507.541419546 478.848668247 541.870538755 506.098226827 565.9759175 c 0
 541.030529787 596.798537758 561.223842232 607.858194994 563.874867927 609.266287715 c 0
 570.256624657 612.855111716 576 621.906916502 576 630 c 2
 576 688 l 2
 576 699.641582226 565.534239966 712 552 712 c 2
EndSplineSet
EndChar

StartChar: eight
Encoding: 56 56 24
Width: 672
Flags: HW
LayerCount: 2
Back
SplineSet
420 380 m 0
 420 380 540 451.756835938 540 544 c 0
 540 628.595703125 446.474609375 696 336 696 c 0
 217.525390625 696 132 628.333007812 132 544 c 0
 132 456 220.186523438 386 346 386 c 0
 489.069335938 386 556 297.151367188 556 216 c 0
 556 125.171875 478.12109375 40 336 40 c 0
 204 40 116 136 116 228 c 0
 116 352 244 400 244 400 c 1024
EndSplineSet
Fore
SplineSet
156 544 m 0
 156 557.677024268 158.408876039 573.483383538 165.413165712 587.491962885 c 0
 187.573023841 634.418721274 250.610942124 672 336 672 c 0
 403.462827026 672 462.056351437 644.041755101 492.711454126 606.029427768 c 0
 507.523079706 587.514895792 516 566.190071091 516 544 c 0
 516 512.493005749 497.970121944 480.151563479 472.37543414 453.444063161 c 0
 453.027374424 433.021111239 433.756210323 417.993063345 420.312804709 409.030792936 c 0
 415.326982768 405.706911641 409.134272302 404.365682401 403.256898237 405.293688832 c 0
 385.195682397 408.145459754 366.542753242 410 346 410 c 0
 254.58617299 410 189.688824972 449.371246725 166.229398675 498.896702242 c 0
 159.848869783 512.933865804 156 527.900355151 156 544 c 0
204 544 m 0
 204 536.099644849 206.151130217 527.066134196 209.770601325 519.103297758 c 0
 222.311175028 492.628753275 267.41382701 458 346 458 c 0
 365.763150795 458 383.443478103 456.544295923 401.051795005 454.137727333 c 1
 411.051256512 461.525645629 424.425157405 472.623227914 437.62456586 486.555936839 c 0
 458.029878056 507.848436521 468 531.506994251 468 544 c 0
 468 553.826478011 464.507626923 564.446720922 455.259148573 576.007318859 c 0
 435.966041879 599.93077116 390.529784115 624 336 624 c 0
 263.389057876 624 220.426976159 591.581278726 208.586834288 566.508037115 c 0
 205.591123961 560.516616462 204 552.322975732 204 544 c 0
532 216 m 0
 532 164.453441092 502.783753467 116.059061004 445.560022609 87.4471955746 c 0
 416.975189207 73.7264755414 380.62930955 64 336 64 c 0
 215.423382425 64 140 150.75537979 140 228 c 0
 140 293.481810023 182.729411801 336.028915308 217.75954654 359.017441231 c 0
 227.581984753 365.565733373 234.932328899 369.347966435 238.65210187 371.579830217 c 0
 244.314396712 374.977207122 251.839737689 375.614749464 257.183903613 374.18963855 c 0
 285.490191677 366.641295067 315.428420132 362 346 362 c 0
 405.457933887 362 448.029308706 345.522336842 477.607369105 323.043010939 c 0
 514.79385946 294.253470019 532 253.306967582 532 216 c 0
484 216 m 0
 484 238.693032418 473.20614054 265.746529981 448.392630895 284.956989061 c 0
 427.970691294 300.477663158 396.542066113 314 346 314 c 0
 314.07722835 314 283.996807171 318.210866049 254.504201352 325.343315236 c 0
 252.240569573 324.031902736 248.345835762 321.719480304 244.24045346 318.982558769 c 0
 215.270588199 299.971084692 188 270.518189977 188 228 c 0
 188 181.24462021 238.576617575 112 336 112 c 0
 373.37069045 112 403.024810793 120.273524459 424.439977391 130.552804425 c 0
 467.216246533 151.940938996 484 183.546558908 484 216 c 0
168.197706966 382.425024819 m 0
 127.97750791 349.517589228 92 299.14343861 92 228 c 0
 92 121.154240067 192.486053148 16 336 16 c 0
 403.517480402 16 458.41237612 34.6589930006 499.966918587 64.4698604225 c 0
 551.974011509 102.13016909 580 157.91276124 580 216 c 0
 580 268.94383543 556.159804117 322.473513543 507.408007462 360.945305318 c 0
 503.915061956 363.485971499 499.904109438 365.821917921 494.6 369.8 c 0
 488.284604359 374.536546731 485.188492855 381.788948836 485.188492855 389.005366656 c 0
 485.188492855 395.23425642 487.495211056 401.436336553 492.029437252 405.970562748 c 0
 498.139115457 412.080240954 503.377727992 416.542472035 506.56268929 420.364425592 c 0
 506.84782391 420.706587136 507.265285919 421.173711166 507.491107101 421.414587093 c 0
 535.785078027 451.594822748 564 493.199200658 564 544 c 0
 564 577.898933044 551.345295024 609.649635795 530.243628216 636.026719305 c 0
 488.703714724 688.172568157 415.97790802 720 336 720 c 0
 237.322138428 720 155.514735347 676.831215909 122.664978955 607.67383403 c 0
 113.090777773 587.655049741 108 566.30209147 108 544 c 0
 108 520.523451545 113.174059344 498.170816065 122.722142184 478.206642855 c 0
 133.184288424 455.538659334 148.640099788 436.476877864 168.686876888 419.163752186 c 0
 174.266402941 414.345070596 176.636702856 407.843736335 176.636702856 401.464455744 c 0
 176.636702856 393.977265586 173.371594354 386.658205409 168.197706966 382.425024819 c 0
117.750304044 401.532316794 m 1
 102.990332509 417.293632006 88.8828248611 436.982595215 79.2778578164 457.793357145 c 0
 66.8259406558 483.829183935 60 513.476548455 60 544 c 0
 60 573.717557635 66.8921511039 602.309256093 79.3487786807 628.354931935 c 0
 122.47341939 719.143649219 224.682160369 768 336 768 c 0
 428.027874633 768 515.281694817 731.845747525 567.771851941 665.953848157 c 0
 594.643147632 632.364728544 612 590.09634666 612 544 c 0
 612 476.927710984 576.47716159 425.639786766 545.480773734 391.792505275 c 1
 599.600275119 345.375215942 628 280.230976751 628 216 c 0
 628 142.08723876 592.025988491 71.86983091 528.033081413 25.5301395775 c 0
 477.58762388 -10.6589930006 412.482519598 -32 336 -32 c 0
 169.513946852 -32 44 90.8457599329 44 228 c 0
 44 304.08756299 77.4704035294 361.524295332 117.750304044 401.532316794 c 1
EndSplineSet
EndChar

StartChar: nine
Encoding: 57 57 25
Width: 672
Flags: HW
LayerCount: 2
Back
SplineSet
154 112 m 0
 154 112 202 40 314 40 c 0
 394 40 554 111.47265625 554 368 c 0
 554 634.217773438 400.00390625 696 314 696 c 0
 183.171875 696 110 604.217773438 110 514 c 0
 110 418 202 332 322 332 c 0
 441.612304688 332 523.29296875 395.8203125 523.29296875 532 c 1024
EndSplineSet
Fore
SplineSet
82 112 m 0
 82 151.432573364 114.567461977 184 154 184 c 0
 178.075585804 184 200.515025254 170.982715908 212.988333752 153.716131685 c 0
 215.401824128 150.759521112 222.534102653 141.372044724 238.724429442 131.349461473 c 0
 254.193121296 121.579761355 278.423631892 112 314 112 c 0
 336.794244117 112 386.586276626 125.439732645 424.475308741 171.259027295 c 0
 446.822620138 198.49481306 467.860286248 239.531931629 477.170669121 298.508148689 c 1
 429.713706999 270.392953715 377.792568094 260 322 260 c 0
 219.453202373 260 128.864577201 308.540623438 78.1211980849 383.552575175 c 0
 52.4724677892 421.468089525 38 467.053345205 38 514 c 0
 38 585.114210906 70.2271608277 657.032338038 129.716007595 705.504731701 c 0
 177.165473284 745.229865766 241.10443402 768 314 768 c 0
 366.84382572 768 434.165420929 751.619972563 495.093967692 702.6595332 c 0
 571.843408694 640.163559812 626 531.249622856 626 368 c 0
 626 240.401027152 589.488015502 145.576187162 535.519398661 79.7344746154 c 0
 467.640869175 -2.1507355575 379.931884147 -32 314 -32 c 0
 167.472217941 -32 100.285855159 62.3046019556 93.835058717 71.980796619 c 0
 86.4412436776 83.810900682 82 96.946977593 82 112 c 0
130 112 m 0
 130 106.994362392 131.161642397 103.006550085 134.144950279 98.0543173828 c 0
 138.234952132 92.1247503648 192.987917649 16 314 16 c 0
 366.068115853 16 440.359130825 40.1507355575 498.480601339 110.265525385 c 0
 544.511984498 166.423812838 578 249.598972848 578 368 c 0
 578 520.750377144 528.156591306 613.836440188 464.906032308 665.3404668 c 0
 413.834579071 706.380027437 357.15617428 720 314 720 c 0
 250.89556598 720 198.834526716 700.770134234 160.283992405 668.495268299 c 0
 111.772839172 628.967661962 86 570.885789094 86 514 c 0
 86 476.946654795 97.5275322108 440.531910475 117.878801915 410.447424825 c 0
 159.135422799 349.459376562 234.546797627 308 322 308 c 0
 379.458771713 308 429.808500065 321.135500285 469.53200586 351.148815774 c 0
 476.923765438 356.692635458 482.802031162 361.743156659 489.029437252 367.970562748 c 0
 492.840202572 371.781328069 498.869877957 374.691354145 504.873150194 374.973531436 c 0
 505.241886251 374.990863474 505.60918286 374.999433325 505.974844698 374.999433325 c 0
 519.029061588 374.999433325 529.99975142 364.07709467 529.99975142 350.983753187 c 0
 529.99975142 252.493776775 495.819796129 182.538131765 461.553760892 140.77640132 c 0
 413.390204892 82.532101041 351.213952075 64 314 64 c 0
 269.576368108 64 235.806878704 76.420238645 213.275570558 90.6505385265 c 0
 191.717231094 103.996177242 179.516214033 118.801841837 175.984588442 123.141535686 c 0
 175.376096556 123.845365385 174.797480669 124.573270231 174.267387401 125.338960508 c 0
 169.723142328 131.902870058 161.994041808 136 154 136 c 0
 141.432538023 136 130 124.567426636 130 112 c 0
450.992057355 529.525475759 m 1
 436.677451886 558.357662195 419.814405109 578.613479573 403.975662105 591.284473976 c 0
 373.006680088 616.23170949 337.280804083 624 314 624 c 0
 270.743912216 624 241.824021106 611.748517492 221.422694287 594.611402965 c 0
 195.658871872 573.003035778 182 542.505481678 182 514 c 0
 182 497.283212294 187.25470827 480.799625831 198.009017484 464.254534733 c 0
 220.104134436 431.521028138 264.733050876 404 322 404 c 0
 364.240535623 404 392.741587099 414.056190325 411.547253145 428.160439859 c 0
 433.574051559 444.870424862 450.23991355 471.203790413 450.992057355 529.525475759 c 1
499 532 m 2
 499 461.964802302 476.294661985 417.029978516 440.452746855 389.839560141 c 0
 411.258412901 367.943809675 371.759464377 356 322 356 c 0
 249.266949124 356 189.895865564 390.478971862 157.990982516 437.745465267 c 0
 142.74529173 461.200374169 134 486.716787706 134 514 c 0
 134 557.494518322 154.341128128 600.996964222 190.577305713 631.388597035 c 0
 220.175978894 656.251482508 261.256087784 672 314 672 c 0
 346.734282268 672 392.960150045 661.79501068 434.055908909 628.690093818 c 0
 457.312900273 610.084500727 479.389441388 582.037319735 496.715648853 545.219128872 c 0
 498.084228456 542.310897215 499 538.511138546 499 535 c 2
 499 532 l 2
EndSplineSet
EndChar

StartChar: colon
Encoding: 58 58 26
Width: 288
Flags: HW
LayerCount: 2
Back
SplineSet
166.717353187 456 m 1
 162.615859143 443.068811843 149.307929572 432 136 432 c 0
 128 432 120 440 120 448 c 0
 120 450.692070428 120.452952699 453.384140857 121.282646813 456 c 1025
121.282646813 456 m 1
 125.384140857 468.931188157 138.692070428 480 152 480 c 0
 160 480 168 472 168 464 c 0
 168 461.307929572 167.547047301 458.615859143 166.717353187 456 c 1025
166.717353187 72 m 1
 162.615859143 59.0688118425 149.307929572 48 136 48 c 0
 128 48 120 56 120 64 c 0
 120 66.6920704285 120.452952699 69.384140857 121.282646813 72 c 1025
121.282646813 72 m 1
 125.384140857 84.9311881575 138.692070428 96 152 96 c 0
 160 96 168 88 168 80 c 0
 168 77.3079295715 167.547047301 74.615859143 166.717353187 72 c 1025
EndSplineSet
Fore
SplineSet
98.3701093398 78.2156641754 m 0
 97.2220705144 74.7715476992 96 68.730653837 96 64 c 0
 96 50.7051129808 101.87800347 41.6770430908 110.186309975 34.5851390153 c 0
 118.122021495 28.3218570432 125.620381895 24 136 24 c 0
 148.410261051 24 157.259098425 27.683809154 166.687195291 33.9692070641 c 0
 178.442151445 41.8058445001 183.633770126 46.6963357701 190.231600847 67.5894663844 c 0
 191.230199365 70.5852619377 192 75.269346163 192 80 c 0
 192 90.3613368889 188.335835602 97.0446679306 181.414860985 105.813690025 c 0
 174.878461409 113.471211973 165.479214613 120 152 120 c 0
 139.589738949 120 130.740901575 116.316190846 121.312804709 110.030792936 c 0
 110.726999616 102.97358954 103.109063146 92.6526576429 98.3701093398 78.2156641754 c 0
236.218642843 53.8085145353 m 0
 227.945823357 28.6057702711 212.19128533 6.61644668328 193.312804709 -5.96920706411 c 0
 178.740901575 -15.683809154 159.589738949 -24 136 -24 c 0
 110.335560345 -24 91.933989946 -12.2821882965 79.8199290815 -2.5909396049 c 0
 63.4917693294 11.0158601886 48 33.3742151757 48 64 c 0
 48 72.8094777932 49.1077854171 81.6114308931 51.7813571573 90.1914854647 c 0
 60.0541766426 115.394229729 75.8087146695 137.383553317 94.6871952906 149.969207064 c 0
 109.259098425 159.683809154 128.410261051 168 152 168 c 0
 182.611615161 168 204.997806862 152.49183021 218.590939605 136.180070918 c 0
 228.285232827 124.062204391 240 105.668198883 240 80 c 0
 240 71.1905222068 238.892214583 62.3885691069 236.218642843 53.8085145353 c 0
98.3701093398 462.215664175 m 0
 97.2220705144 458.771547699 96 452.730653837 96 448 c 0
 96 437.638663111 99.6641643983 430.955332069 106.585139015 422.186309975 c 0
 113.121538591 414.528788027 122.520785387 408 136 408 c 0
 148.410261051 408 157.259098425 411.683809154 166.687195291 417.969207064 c 0
 178.442151445 425.8058445 183.633770126 430.69633577 190.231600847 451.589466384 c 0
 191.230199365 454.585261938 192 459.269346163 192 464 c 0
 192 474.361336889 188.335835602 481.044667931 181.414860985 489.813690025 c 0
 174.878461409 497.471211973 165.479214613 504 152 504 c 0
 139.589738949 504 130.740901575 500.316190846 121.312804709 494.030792936 c 0
 110.726999616 486.97358954 103.109063146 476.652657643 98.3701093398 462.215664175 c 0
236.218642843 437.808514535 m 0
 227.945823357 412.605770271 212.19128533 390.616446683 193.312804709 378.030792936 c 0
 178.740901575 368.316190846 159.589738949 360 136 360 c 0
 105.388384839 360 83.0021931379 375.50816979 69.4090603951 391.819929082 c 0
 59.7147671731 403.937795609 48 422.331801117 48 448 c 0
 48 456.809477793 49.1077854171 465.611430893 51.7813571573 474.191485465 c 0
 60.0541766426 499.394229729 75.8087146695 521.383553317 94.6871952906 533.969207064 c 0
 109.259098425 543.683809154 128.410261051 552 152 552 c 0
 182.611615161 552 204.997806862 536.49183021 218.590939605 520.180070918 c 0
 228.285232827 508.062204391 240 489.668198883 240 464 c 0
 240 455.190522207 238.892214583 446.388569107 236.218642843 437.808514535 c 0
EndSplineSet
EndChar

StartChar: semicolon
Encoding: 59 59 27
Width: 296
Flags: HW
LayerCount: 2
Back
SplineSet
152 96 m 0
 160 96 168 88.0009765625 168 79.9990234375 c 0
 168 64 152 48 136 48 c 0
 128.000976562 48 120 56 120 64 c 0
 120 80 136 96 152 96 c 0
 160 96 176 88 176 64 c 0
 176 24 142 -56 142 -56 c 1024
166.717353187 456 m 1
 162.615859143 443.068811843 149.307929572 432 136 432 c 0
 128 432 120 440 120 448 c 0
 120 450.692070428 120.452952699 453.384140857 121.282646813 456 c 1025
121.282646813 456 m 1
 125.384140857 468.931188157 138.692070428 480 152 480 c 0
 160 480 168 472 168 464 c 0
 168 461.307929572 167.547047301 458.615859143 166.717353187 456 c 1025
EndSplineSet
Fore
SplineSet
98.3701093398 462.215664175 m 0
 97.2220705144 458.771547699 96 452.730653837 96 448 c 0
 96 437.638663111 99.6641643983 430.955332069 106.585139015 422.186309975 c 0
 113.121538591 414.528788027 122.520785387 408 136 408 c 0
 148.410261051 408 157.259098425 411.683809154 166.687195291 417.969207064 c 0
 178.442151445 425.8058445 183.633770126 430.69633577 190.231600847 451.589466384 c 0
 191.230199365 454.585261938 192 459.269346163 192 464 c 0
 192 474.361336889 188.335835602 481.044667931 181.414860985 489.813690025 c 0
 174.878461409 497.471211973 165.479214613 504 152 504 c 0
 139.589738949 504 130.740901575 500.316190846 121.312804709 494.030792936 c 0
 110.726999616 486.97358954 103.109063146 476.652657643 98.3701093398 462.215664175 c 0
236.218642843 437.808514535 m 0
 227.945823357 412.605770271 212.19128533 390.616446683 193.312804709 378.030792936 c 0
 178.740901575 368.316190846 159.589738949 360 136 360 c 0
 105.388384839 360 83.0021931379 375.50816979 69.4090603951 391.819929082 c 0
 59.7147671731 403.937795609 48 422.331801117 48 448 c 0
 48 456.809477793 49.1077854171 465.611430893 51.7813571573 474.191485465 c 0
 60.0541766426 499.394229729 75.8087146695 521.383553317 94.6871952906 533.969207064 c 0
 109.259098425 543.683809154 128.410261051 552 152 552 c 0
 182.611615161 552 204.997806862 536.49183021 218.590939605 520.180070918 c 0
 228.285232827 508.062204391 240 489.668198883 240 464 c 0
 240 455.190522207 238.892214583 446.388569107 236.218642843 437.808514535 c 0
248 64 m 0
 248 50.0933554067 246.61882097 34.9951297192 243.422514358 21.7344930208 c 0
 239.417027795 2.54480076906 233.787881697 -10.6037327329 229.96532698 -23.9826742428 c 0
 220.732774947 -52.6035855454 211.150853132 -76.0966312681 209.049283069 -81.688518261 c 0
 208.778841301 -82.609625556 208.374491772 -83.6954673339 208.192274363 -84.1379953261 c 0
 197.506776277 -110.08849068 171.769436187 -128 142 -128 c 0
 102.567426636 -128 70 -95.4325380233 70 -56 c 0
 70 -44.3356647134 73.2738580336 -35.2837620553 75.2316008468 -29.4105336156 c 0
 75.3487466842 -29.0590961034 75.5279843762 -28.568884089 75.6272411181 -28.3132480172 c 2
 75.6272411181 -28.3132480172 79.3896661709 -18.5618227296 83.7872594913 -6.49449319156 c 1
 77.0600920179 -0.990447076932 73.7919683288 2.69785912052 69.5131888549 7.68976850679 c 0
 59.6052310784 20.0747157274 48 38.2724659807 48 64 c 0
 48 99.223346136 65.6431832035 126.195878545 85.6800587783 142.475839949 c 0
 101.149006262 155.564949359 123.904074648 168 152 168 c 0
 164.16013663 168 173.642719906 165.417314646 181.96466775 162.643332031 c 0
 218.659358851 149.052705698 248 113.148479036 248 64 c 0
200 64 m 0
 200 92.6488057764 184.106216419 110.425841 166.0217274 117.360393442 c 0
 162.352948403 118.545691272 155.84764717 120 152 120 c 0
 138.095925352 120 126.850993738 114.435050641 116.319941222 105.524160051 c 0
 104.356816797 95.804121455 96 82.776653864 96 64 c 0
 96 53.6946176089 99.7656260902 46.826777947 106.489326638 38.3077062954 c 0
 111.090116788 33.0072263952 116.561751812 28.2423446007 121.201833514 26.5550421637 c 0
 129.869357358 23.4032153115 136.930002695 13.9431796503 136.930002695 3.57108592463 c 0
 136.930002695 1.11317364506 136.533501692 -1.39595660684 135.667923121 -3.88449499859 c 0
 128.418395185 -24.7268878156 122.203948697 -40.9412799476 120.586862292 -45.1338308913 c 0
 118.951031403 -50.0572274675 118 -53.9771603718 118 -56 c 0
 118 -68.5674619767 129.432573364 -80 142 -80 c 0
 151.765968183 -80 159.544688511 -74.7545307673 163.4083903 -66.7766460515 c 0
 165.752792389 -60.0210374742 174.201298104 -40.2478303588 184.020309747 -10.0643674806 c 0
 188.345833348 4.80132021838 194.099694543 19.8749410391 196.466063783 31.7067872433 c 0
 196.51870331 31.9699848746 196.628628165 32.4690476757 196.716579997 32.8208550009 c 0
 199.10080471 42.3577538535 200 52.2068674161 200 64 c 0
EndSplineSet
EndChar

StartChar: less
Encoding: 60 60 28
Width: 640
Flags: HW
LayerCount: 2
Back
SplineSet
536 152 m 0
 104 368 l 1024
536 584 m 0
 104 368 l 1024
EndSplineSet
Fore
SplineSet
608 152 m 0
 608 112.567426636 575.432538023 80 536 80 c 0
 523.947176775 80 513.126870082 83.1037492292 504.266873708 87.533747416 c 2
 75.6002452494 301.867061645 l 2
 73.3889638763 302.508624709 72.1545614858 303.050900541 70.7058823529 303.823529412 c 0
 48.4837622822 315.675326783 32 339.451828994 32 368 c 0
 32 398.090895058 50.6554861703 423.22830686 74.9912252009 433.82842833 c 2
 504.266873708 648.466252584 l 2
 504.667591705 648.666611583 505.240653949 648.928645198 505.545936834 649.05948072 c 0
 513.436479369 652.441141807 523.757083932 656 536 656 c 0
 575.432573364 656 608 623.432538023 608 584 c 0
 608 556.306410958 592.904203397 531.619303817 568.708359939 519.521382088 c 2
 264.789749624 368 l 1
 568.733126292 216.466252584 l 2
 592.882163643 204.391733909 608 179.691444669 608 152 c 0
560 152 m 0
 560 162.308555331 555.117836357 169.608266091 547.266873708 173.533747416 c 2
 200.291640061 346.521382088 l 2
 197.359269264 347.983342168 192.793032648 351.702806688 190.427736811 355.639498906 c 0
 188.15096208 359.42886057 187.078452386 363.632378609 187.078452386 367.798052978 c 0
 187.078452386 376.63198785 191.901693538 385.295733911 200.291640061 389.478617912 c 2
 547.291640061 562.478617912 l 2
 555.095796603 566.380696183 560 573.693589042 560 584 c 0
 560 596.567461977 548.567426636 608 536 608 c 0
 532.29104106 608 530.958269406 607.67812422 525.078164945 605.206266743 c 2
 95.733126292 390.533747416 l 2
 95.3625915631 390.348480052 94.6534053779 390.019953305 94.1379953261 389.807725637 c 0
 86.0864223752 386.492372069 80 378.234938848 80 368 c 0
 80 359.632207364 83.9144963291 352.617260681 90.789529243 347.706522885 c 0
 91.7506592966 347.353683129 92.7818322235 346.941899618 93.733126292 346.466252584 c 2
 525.733126292 130.466252584 l 2
 528.873129918 128.896250771 532.052823225 128 536 128 c 0
 548.567461977 128 560 139.432573364 560 152 c 0
EndSplineSet
EndChar

StartChar: equal
Encoding: 61 61 29
Width: 640
Flags: HW
AnchorPoint: "middle" 320 368 basechar 0
LayerCount: 2
Back
SplineSet
104 248 m 0
 536 248 l 1024
104 488 m 0
 536 488 l 1024
EndSplineSet
Fore
SplineSet
104 416 m 2
 64.5674266362 416 32 448.567461977 32 488 c 0
 32 527.432573364 64.5674619767 560 104 560 c 2
 536 560 l 2
 575.432573364 560 608 527.432538023 608 488 c 0
 608 448.567426636 575.432538023 416 536 416 c 2
 104 416 l 2
104 464 m 2
 536 464 l 2
 548.567461977 464 560 475.432573364 560 488 c 0
 560 500.567461977 548.567426636 512 536 512 c 2
 104 512 l 2
 91.4325380233 512 80 500.567426636 80 488 c 0
 80 475.432538023 91.4325733638 464 104 464 c 2
104 176 m 2
 64.5674266362 176 32 208.567461977 32 248 c 0
 32 287.432573364 64.5674619767 320 104 320 c 2
 536 320 l 2
 575.432573364 320 608 287.432538023 608 248 c 0
 608 208.567426636 575.432538023 176 536 176 c 2
 104 176 l 2
104 224 m 2
 536 224 l 2
 548.567461977 224 560 235.432573364 560 248 c 0
 560 260.567461977 548.567426636 272 536 272 c 2
 104 272 l 2
 91.4325380233 272 80 260.567426636 80 248 c 0
 80 235.432538023 91.4325733638 224 104 224 c 2
EndSplineSet
EndChar

StartChar: greater
Encoding: 62 62 30
Width: 640
Flags: HW
LayerCount: 2
Back
SplineSet
104 152 m 0
 536 368 l 1024
104 584 m 0
 536 368 l 1024
EndSplineSet
Fore
SplineSet
104 80 m 0
 64.5674266362 80 32 112.567461977 32 152 c 0
 32 179.693589042 47.0957966028 204.380696183 71.2916400611 216.478617912 c 2
 375.210250376 368 l 1
 71.266873708 519.533747416 l 2
 47.1178363571 531.608266091 32 556.308555331 32 584 c 0
 32 623.432573364 64.5674619767 656 104 656 c 0
 116.052823225 656 126.873129918 652.896250771 135.733126292 648.466252584 c 2
 564.399754751 434.132938355 l 2
 566.611036124 433.491375291 567.845438514 432.949099459 569.294117647 432.176470588 c 0
 591.516237718 420.324673217 608 396.548171006 608 368 c 0
 608 337.909104942 589.34451383 312.77169314 565.008774799 302.17157167 c 2
 135.733126292 87.533747416 l 2
 135.332408295 87.3333884174 134.759346051 87.0713548016 134.454063166 86.9405192796 c 0
 126.563520631 83.5588581933 116.242916068 80 104 80 c 0
104 128 m 0
 107.70895894 128 109.041730594 128.32187578 114.921835055 130.793733257 c 2
 544.266873708 345.466252584 l 2
 544.637408437 345.651519948 545.346594622 345.980046695 545.862004674 346.192274363 c 0
 553.913577625 349.507627931 560 357.765061152 560 368 c 0
 560 376.367792636 556.085503671 383.382739319 549.210470757 388.293477115 c 0
 548.249340703 388.646316871 547.218167776 389.058100382 546.266873708 389.533747416 c 2
 114.266873708 605.533747416 l 2
 111.126870082 607.103749229 107.947176775 608 104 608 c 0
 91.4325380233 608 80 596.567426636 80 584 c 0
 80 573.691444669 84.8821636429 566.391733909 92.733126292 562.466252584 c 2
 439.708359939 389.478617912 l 2
 442.640730736 388.016657832 447.206967352 384.297193312 449.572263189 380.360501094 c 0
 451.84903792 376.57113943 452.921547614 372.367621391 452.921547614 368.201947022 c 0
 452.921547614 359.36801215 448.098306462 350.704266089 439.708359939 346.521382088 c 2
 92.7083599389 173.521382088 l 2
 84.9042033972 169.619303817 80 162.306410958 80 152 c 0
 80 139.432538023 91.4325733638 128 104 128 c 0
EndSplineSet
EndChar

StartChar: question
Encoding: 63 63 31
Width: 640
Flags: HW
LayerCount: 2
Back
SplineSet
326.717353187 72 m 1
 322.615859143 59.0688118425 309.307929572 48 296 48 c 0
 288 48 280 56 280 64 c 0
 280 66.6920704285 280.452952699 69.384140857 281.282646813 72 c 1025
281.282646813 72 m 1
 285.384140857 84.9311881575 298.692070428 96 312 96 c 0
 320 96 328 88 328 80 c 0
 328 77.3079295715 327.547047301 74.615859143 326.717353187 72 c 1025
112 536 m 0
 112 642.828125 196.243164062 696 304 696 c 0
 416 696 496 648 496 560 c 0
 496 490.232421875 460.931640625 459.178710938 400 424 c 0
 324.504882812 380.413085938 304 344 304 240 c 1024
EndSplineSet
Fore
SplineSet
258.37010934 78.2156641754 m 0
 257.222070514 74.7715476992 256 68.730653837 256 64 c 0
 256 50.7051129808 261.87800347 41.6770430908 270.186309975 34.5851390153 c 0
 278.122021495 28.3218570432 285.620381895 24 296 24 c 0
 308.410261051 24 317.259098425 27.683809154 326.687195291 33.9692070641 c 0
 338.442151445 41.8058445001 343.633770126 46.6963357701 350.231600847 67.5894663844 c 0
 351.230199365 70.5852619377 352 75.269346163 352 80 c 0
 352 93.2948870192 346.12199653 102.322956909 337.813690025 109.414860985 c 0
 329.877978505 115.678142957 322.379618105 120 312 120 c 0
 299.589738949 120 290.740901575 116.316190846 281.312804709 110.030792936 c 0
 270.726999616 102.97358954 263.109063146 92.6526576429 258.37010934 78.2156641754 c 0
396.218642843 53.8085145353 m 0
 387.945823357 28.6057702711 372.19128533 6.61644668328 353.312804709 -5.96920706411 c 0
 338.740901575 -15.683809154 319.589738949 -24 296 -24 c 0
 270.335560345 -24 251.933989946 -12.2821882965 239.819929082 -2.5909396049 c 0
 223.491769329 11.0158601886 208 33.3742151757 208 64 c 0
 208 72.8094777932 209.107785417 81.6114308931 211.781357157 90.1914854647 c 0
 220.054176643 115.394229729 235.80871467 137.383553317 254.687195291 149.969207064 c 0
 269.259098425 159.683809154 288.410261051 168 312 168 c 0
 337.664439655 168 356.066010054 156.282188296 368.180070918 146.590939605 c 0
 384.508230671 132.984139811 400 110.625784824 400 80 c 0
 400 71.1905222068 398.892214583 62.3885691069 396.218642843 53.8085145353 c 0
184 536 m 0
 184 496.567426636 151.432538023 464 112 464 c 0
 72.5674266362 464 40 496.567461977 40 536 c 0
 40 625.363342136 84.0378351749 689.435333289 141.237564819 725.325359732 c 0
 188.960320808 755.290811167 245.598746141 768 304 768 c 0
 393.418255033 768 469.566817566 741.771252151 518.545326438 689.375638009 c 0
 550.821746001 654.793759905 568 609.53219049 568 560 c 0
 568 518.35307448 558.047867826 478.222733262 535.959270801 445.671116593 c 0
 509.641420524 405.622213998 471.470743827 381.484112764 435.849612428 361.129180536 c 0
 398.110752584 339.840592932 390.496645607 329.457948933 385.054575955 316.53303351 c 0
 380.336935932 305.749856312 376 282.799184894 376 240 c 0
 376 200.567426636 343.432538023 168 304 168 c 0
 264.567426636 168 232 200.567461977 232 240 c 0
 232 301.227420274 237.861171095 354.749333843 267.741946566 401.86901824 c 0
 291.864278818 439.775540349 326.730244075 465.044197023 363.826900481 486.683913259 c 0
 395.147101112 505.280282384 411.049885792 518.570889838 415.781813104 525.931665656 c 0
 420.880451963 533.943812434 424 539.401555044 424 560 c 0
 424 575.308764489 419.755787094 583.658078234 412.336455743 591.751894252 c 0
 395.760576887 609.709096347 355.75260089 624 304 624 c 0
 266.265100661 624 235.840911073 615.460705028 217.916403744 603.770808944 c 0
 205.436387824 595.970798994 197.806364892 586.692819355 191.639805643 574.614142467 c 0
 186.989581924 564.311179267 184 552.599050901 184 536 c 0
136 536 m 0
 136 559.403661336 140.566458601 578.498611223 148.366083241 595.397797943 c 0
 158.310559172 615.286749803 172.504240626 631.992093787 192.083596256 644.229191056 c 0
 220.159088927 662.539294972 259.734899339 672 304 672 c 0
 362.236173127 672 416.266886005 658.261152187 447.635282671 624.278722466 c 0
 462.272285693 608.311082805 472 586.704159006 472 560 c 0
 472 532.598444956 465.119548037 514.056187566 456.218186896 500.068334344 c 0
 442.950114208 479.429110162 420.852898888 464.719717616 388.173099519 445.316086741 c 0
 353.261108019 424.950758365 326.147759142 404.243376444 308.247875706 376.114988187 c 0
 286.147905496 341.265035164 280 298.766984922 280 240 c 0
 280 227.432538023 291.432573364 216 304 216 c 0
 316.567461977 216 328 227.432573364 328 240 c 0
 328 285.200815106 331.663064068 314.250143688 340.945424045 335.46696649 c 0
 351.503354393 360.542051067 371.889247416 380.159407068 412.150387572 402.870819464 c 0
 446.529256173 422.515887236 476.358579476 442.377786002 496.040729199 472.328883407 c 0
 511.952132174 495.777266738 520 525.64692552 520 560 c 0
 520 598.46780951 507.178253999 631.206240095 483.454673562 656.624361991 c 0
 446.433182434 696.228747849 384.581744967 720 304 720 c 0
 252.401253859 720 205.039679192 708.709188833 166.762435181 684.674640268 c 0
 121.962164825 656.564666711 88 608.636657864 88 536 c 0
 88 523.432538023 99.4325733638 512 112 512 c 0
 124.567461977 512 136 523.432573364 136 536 c 0
EndSplineSet
EndChar

StartChar: at
Encoding: 64 64 32
Width: 880
Flags: HW
LayerCount: 2
Back
SplineSet
556.618164062 444.380859375 m 0
 534.170898438 504.428710938 486.078125 545.881835938 430.352539062 545.881835938 c 0
 353.163085938 545.881835938 290.587890625 466.2421875 290.587890625 368 c 0
 290.587890625 269.7578125 353.163085938 190.118164062 430.352539062 190.118164062 c 0
 486.061523438 190.118164062 534.158203125 231.599609375 556.61328125 291.619140625 c 1024
578.24609375 70.470703125 m 0
 536.235351562 50.9169921875 489.392578125 40 440 40 c 0
 258.850585938 40 112 186.850585938 112 368 c 0
 112 549.149414062 258.850585938 696 440 696 c 0
 621.149414062 696 768 549.149414062 768 368 c 0
 768 325.0078125 765.706054688 282.721679688 744.69140625 246.32421875 c 0
 728.013671875 217.439453125 688 200 656 200 c 0
 607.497070312 200 557.412109375 231.52734375 557.412109375 272 c 0
 557.412109375 539.529296875 l 1024
EndSplineSet
Fore
SplineSet
485 427.96575946 m 1
 469.170361882 461.997336459 445.869073508 474 430 474 c 0
 421.59988111 474 411.829250951 471.051018639 402.460450188 463.844248821 c 0
 382.831413947 449.304221976 363 413.668504517 363 368 c 0
 363 322.332444339 382.833030559 286.694580534 402.460450188 272.155751179 c 0
 411.831940877 264.946912187 421.597766024 262 430 262 c 0
 446.127826849 262 469.619468156 274.968181175 485 308.03424054 c 1
 485 427.96575946 l 1
531.138583719 442.267314115 m 0
 532.213799228 439.698743732 533 436.151419415 533 433 c 2
 533 303 l 2
 533 300.215463736 532.355466787 296.639684324 531.138583719 293.732685885 c 0
 510.558788131 244.569840869 471.480918732 214 430 214 c 0
 410.402233976 214 390.168059123 221.053087813 373.539549812 233.844248821 c 0
 339.166969441 259.305419466 315 309.667555661 315 368 c 0
 315 426.331495483 339.168586053 476.695778024 373.539549812 502.155751179 c 0
 390.170749049 514.948981361 410.40011889 522 430 522 c 0
 471.503507208 522 510.544933196 491.463257031 531.138583719 442.267314115 c 0
578 95 m 0
 575.431825507 95 572.208284835 94.2713266877 568.491962885 92.4131657125 c 0
 528.705399538 73.625066354 485.565687753 64 440 64 c 0
 271.77053879 64 136 199.770606989 136 368 c 0
 136 536.22946121 271.770606989 672 440 672 c 0
 503.74868628 672 563.011103816 652.446548515 611.85443609 618.999856566 c 0
 691.7020933 564.322178584 744 472.349190591 744 368 c 0
 744 325.354029347 741.7194059 288.744887865 723.730693622 257.907095387 c 0
 723.559957479 257.614404857 723.222695743 257.06742831 722.969207064 256.687195291 c 0
 717.941451098 249.145561342 711.271549264 243.242774894 700.534972036 236.532414127 c 0
 685.045340178 227.238635012 669.107418499 224 656 224 c 0
 641.42411499 224 627.266278363 227.729144367 615.252676815 233.068522833 c 0
 615.018618112 233.172548923 614.576474188 233.378947176 614.266873708 233.533747416 c 0
 602.74269993 239.295834305 595.21832236 246.840552143 592.029437252 250.029437252 c 0
 587.857378476 254.201496027 585.671445892 257.415450777 584.041252681 260.299638765 c 0
 582.249644049 263.641584097 581 267.883915151 581 272 c 2
 581 540 l 2
 581 547.549090286 576.932061691 555.041181586 570.358901954 559.654532646 c 0
 566.333019172 562.480085552 561.736300209 564 557 564 c 0
 549.567280595 564 543.635782912 560.84771055 538.2 553.6 c 0
 533.696703105 547.595604139 526.287325619 544.113923047 518.742255691 544.113923047 c 0
 514.515638401 544.113923047 510.246440197 545.206490607 506.421661784 547.560200399 c 0
 483.622124371 561.590684961 458.067332386 570 430 570 c 0
 398.722131262 570 369.771277356 559.078458017 345.4 540.8 c 0
 296.422242904 504.066682178 267 440.69824633 267 368 c 0
 267 295.300638168 296.421371052 231.933971711 345.4 195.2 c 0
 369.772791757 176.920406182 398.719608796 166 430 166 c 0
 468.839694711 166 503.998967839 182.816530853 531.30988574 209.246451402 c 0
 535.551841161 213.351569552 541.822422535 215.750915432 548.234312927 215.750915432 c 0
 553.852264851 215.750915432 559.578697787 213.908970187 564.144147056 209.758561762 c 0
 573.591721542 201.169857683 582.89952784 194.940810652 594.397797943 189.633916759 c 0
 601.040890089 186.312370686 606.413304061 184.179352408 612.881701886 182.161479024 c 0
 626.137708945 178.026151461 640.406472539 176 656 176 c 0
 678.876472291 176 701.643718832 181.827456207 723.353564399 193.984969725 c 0
 740.148360526 203.222107594 754.808329444 216.390461543 765.248863885 234.059058288 c 0
 789.553044454 276.591374283 792 324.602049507 792 368 c 0
 792 562.763686152 634.764121188 720 440 720 c 0
 245.236313848 720 88 562.764121188 88 368 c 0
 88 173.236313848 245.235878812 16 440 16 c 0
 493.218602435 16 541.746436443 27.7493413559 587.575343741 48.6228235558 c 0
 595.553552219 52.8022910317 602 62.1149513685 602 71 c 0
 602 81.037447302 594.593742056 90.8299797052 584.73644391 93.950750755 c 0
 582.556076751 94.6410440391 580.314960329 95 578 95 c 0
531.638470184 607.21705548 m 1
 503.221472645 618.027518999 472.288870417 624 440 624 c 0
 298.229393011 624 184 509.77053879 184 368 c 0
 184 226.229393011 298.22946121 112 440 112 c 0
 478.434312247 112 515.294600462 120.374933646 547.508037115 135.586834288 c 0
 555.791715165 139.728673312 566.568174493 143 578 143 c 0
 578.91949968 143 579.956787061 142.977162872 580.929920685 142.938940781 c 1
 578.562124679 143.985474631 575.248937654 145.55514065 573.611595036 146.359966151 c 0
 563.554133054 151.090765144 556.47840736 155.352870045 548.716154089 160.730243152 c 1
 516.020707901 134.79023407 475.358749551 118 430 118 c 0
 387.280391204 118 348.227208243 133.079593818 316.6 156.8 c 0
 253.578628948 204.066028289 219 282.699361832 219 368 c 0
 219 453.30175367 253.577757096 531.933317822 316.6 579.2 c 0
 348.228722644 602.921541983 387.277868738 618 430 618 c 0
 461.101228987 618 490.181073505 609.92309297 514.885625392 597.712167474 c 1
 519.984240389 601.583304978 525.510805643 604.71229279 531.638470184 607.21705548 c 1
629 540.954186496 m 1
 629 281.064849458 l 2
 631.261888603 279.107080331 633.455208326 277.666304244 635.260013509 276.70737335 c 0
 641.391876434 274.079338937 650.734597209 272 656 272 c 0
 658.892581501 272 670.954659822 274.761364988 675.465027964 277.467585873 c 0
 679.210266284 279.808359824 682.588761837 282.919613286 682.968390269 283.321220207 c 0
 692.715188879 301.175204451 696 327.749917265 696 368 c 0
 696 434.760625051 670.606541091 495.388382151 629 540.954186496 c 1
616.070890686 131.860401819 m 1
 635.892889162 118.960559431 650 96.4213438424 650 71 c 0
 650 41.7483023893 632.448332717 17.3913506283 608.369395963 5.35188225131 c 0
 556.738889226 -18.312100003 500.882156753 -32 440 -32 c 0
 218.764121188 -32 40 146.763686152 40 368 c 0
 40 589.235878812 218.763686152 768 440 768 c 0
 661.235878812 768 840 589.236313848 840 368 c 0
 840 323.397950493 838.446955546 265.408625717 806.751136115 209.940941712 c 0
 791.191670556 183.609538457 769.851639474 164.777892406 746.646435601 152.015030275 c 0
 718.356281168 136.172543793 687.123527709 128 656 128 c 0
 642.432422545 128 629.070329622 129.229391986 616.070890686 131.860401819 c 1
EndSplineSet
EndChar

StartChar: A
Encoding: 65 65 33
Width: 688
Flags: HW
HStem: -0 21G<82.7602 106.528 581.472 605.24> 144 96<212.766 475.234> 716 20G<315.947 382.204>
LayerCount: 2
Back
SplineSet
148 192 m 4
 540 192 l 1028
96 48 m 0
 316 688 l 0
 372 688 l 0
 592 48 l 1024
EndSplineSet
Fore
SplineSet
246.602377303 264 m 1
 441.397622697 264 l 1
 344 548.014441757 l 1
 246.602377303 264 l 1
213 216 m 2
 212.339676468 216 208.876151026 216.279379 207.019842116 216.756985745 c 0
 196.223146495 219.534850256 189.033691622 229.563895265 189.033691622 240.197193462 c 0
 189.033691622 242.722157854 189.439079251 245.281193921 190.297818281 247.785303155 c 2
 321.297818281 629.785303155 l 2
 323.141719714 635.162176035 328.13863806 641.283238665 334.457548094 644.021389866 c 0
 337.485391892 645.333434837 340.653588023 645.949912072 343.782997073 645.949912072 c 0
 353.736443933 645.949912072 363.297508478 639.713434285 366.702181719 629.785303155 c 2
 497.702181719 247.785303155 l 2
 498.09150507 246.650024373 498.998331894 242.519039911 498.998331894 240.044917584 c 0
 498.998331894 227.067208887 488.177423954 216 475 216 c 2
 213 216 l 2
96 -24 m 0
 56.5674266362 -24 24 8.5674619767 24 48 c 0
 24 56.1045867316 25.6014623739 64.4843943636 28.6194875771 72.7210881472 c 2
 248.3889338 712.05038625 l 2
 258.906303906 740.59753368 285.451541506 760 316 760 c 2
 372 760 l 2
 402.543951866 760 429.099006244 740.583120416 439.6110662 712.05038625 c 2
 659.380512423 72.7210881472 l 2
 663.425700268 61.6810963212 664 56.3969607828 664 48 c 0
 664 8.56742663621 631.432538023 -24 592 -24 c 0
 561.062502864 -24 533.30945452 -4.34604135928 524.219555241 24.4386396885 c 2
 490.943724419 120 l 1
 197.056275581 120 l 1
 163.780444759 24.4386396885 l 2
 154.696660536 -4.32667701715 126.933254069 -24 96 -24 c 0
96 24 m 0
 107.066745931 24 115.303339464 30.3266770171 118.219555241 39.5613603115 c 2
 157.334808326 151.892343529 l 2
 160.208246222 160.144267743 169.362114015 168 180 168 c 2
 508 168 l 2
 516.737900123 168 527.166947898 161.938582065 530.665191674 151.892343529 c 2
 569.780444759 39.5613603115 l 2
 572.69054548 30.3460413593 580.937497136 24 592 24 c 0
 604.567461977 24 616 35.4325733638 616 48 c 0
 616 49.9057953855 615.316321792 53.5872178352 614.716559419 55.0866237675 c 0
 614.61301371 55.3454880387 614.425943172 55.8419501212 614.303521617 56.1980855557 c 2
 394.391677669 695.941631585 l 2
 390.704346458 705.389444511 381.602568926 712 372 712 c 2
 316 712 l 2
 306.642457233 712 297.537576591 706.009308465 293.608322331 695.941631585 c 2
 73.6964783833 56.1980855557 l 2
 73.6058444038 55.9344230699 73.4233023282 55.436278135 73.2834405812 55.0866237675 c 0
 72.6836782083 53.5872178352 72 49.9057953855 72 48 c 0
 72 35.4325380233 83.4325733638 24 96 24 c 0
EndSplineSet
EndChar

StartChar: B
Encoding: 66 66 34
Width: 696
Flags: HW
AnchorPoint: "above" 348 784 basechar 0
LayerCount: 2
Back
SplineSet
160 388 m 0
 400 388 l 0
 496 388 560 458 560 538 c 0
 560 618 496 688 400 688 c 0
 144 688 l 0
 144 48 l 0
 416 48 l 0
 520 48 576 138 576 218 c 0
 576 298 520 388 416 388 c 1024
EndSplineSet
Fore
SplineSet
192 664 m 2
 400 664 l 2
 436.987968272 664 468.683280353 652.338265076 491.32486073 633.470281429 c 0
 519.816390776 609.933800086 536 574.967728764 536 538 c 0
 536 501.031877209 519.817030294 466.066728211 491.32486073 442.529718571 c 0
 468.683928783 423.662275282 436.987481482 412 400 412 c 2
 192 412 l 2
 177.472763659 412 168 425.699291841 168 436 c 2
 168 640 l 2
 168 654.527236341 181.699291841 664 192 664 c 2
216 616 m 1
 216 460 l 1
 400 460 l 2
 427.012518518 460 447.316071217 468.337724718 460.67513927 479.470281429 c 0
 478.182969706 493.933271789 488 514.968122791 488 538 c 0
 488 561.032271236 478.183609224 582.066199914 460.67513927 596.529718571 c 0
 447.316719647 607.661734924 427.012031728 616 400 616 c 2
 216 616 l 1
168 96 m 2
 168 340 l 2
 168 354.527236341 181.699291841 364 192 364 c 2
 400 364 l 1
 411 364 l 1
 416 364 l 2
 449.43005214 364 476.024525822 352.782564337 496.703892918 336.968930676 c 0
 513.914807913 323.446068894 526.407434815 306.999083703 535.702713267 287.246616991 c 0
 546.110056673 265.27555869 552 241.128232567 552 218 c 0
 552 194.871585067 546.110174481 170.724690017 535.702713267 148.753383009 c 0
 526.412081819 129.010791182 513.903936023 112.545388907 496.703892918 99.0310693244 c 0
 475.988102163 83.1895822767 449.482976367 72 416 72 c 2
 192 72 l 2
 177.472763659 72 168 85.6992918406 168 96 c 2
216 120 m 1
 416 120 l 2
 438.517023633 120 454.011897837 126.810417723 467.296107082 136.968930676 c 0
 478.084530005 145.445548686 485.602949462 155.021150292 492.284351147 169.219128872 c 0
 499.90494964 185.307059024 504 203.113766687 504 218 c 0
 504 232.856867554 499.87475207 250.756511741 492.310291867 266.725927726 c 0
 485.578676509 281.03061036 478.095350483 290.54594951 467.296107082 299.031069324 c 0
 453.975474178 309.217435663 438.56994786 316 416 316 c 2
 411 316 l 1
 400 316 l 1
 216 316 l 1
 216 120 l 1
600 218 m 0
 600 285.381757865 568.531670919 340.66336631 527.957792524 373.298877193 c 0
 521.921622329 378.154057567 519.426759173 384.932776829 519.426759173 391.543838303 c 0
 519.426759173 398.727193488 522.372259125 405.712607554 526.920851503 409.817434821 c 0
 562.926247821 442.310109548 584 488.877816041 584 538 c 0
 584 589.920033223 561.263233422 637.979272082 521.69635609 670.512037888 c 0
 490.240146909 696.725545539 447.914662601 712 400 712 c 2
 144 712 l 2
 130.535115849 712 120 702.391232248 120 688 c 2
 120 48 l 2
 120 35.4325733638 131.432538023 24 144 24 c 2
 416 24 l 2
 459.672398783 24 497.479070859 38.2648944284 526.032939476 60.7618818235 c 0
 548.580479016 78.9733560677 566.91378488 103.727093678 579.400104689 128.464703403 c 0
 593.332381758 158.492108314 600 187.761868586 600 218 c 0
648 218 m 0
 648 180.072545304 639.259197569 143.073710929 622.60209318 107.5385549 c 0
 606.972628496 76.2796255313 585.467635551 47.0655056984 555.967060524 23.2381181765 c 0
 518.520929141 -6.2648944284 470.327601217 -24 416 -24 c 2
 144 -24 l 2
 104.567461977 -24 72 8.56742663621 72 48 c 2
 72 688 l 2
 72 729.608767752 105.464884151 760 144 760 c 2
 400 760 l 2
 458.085337399 760 511.759853091 741.274454461 552.30364391 707.487962112 c 0
 602.736766578 666.020727918 632 604.079966777 632 538 c 0
 632 484.104467083 612.792765216 433.633352667 577.587172369 393.010595846 c 1
 618.467975275 351.256817462 648 289.974267068 648 218 c 0
EndSplineSet
EndChar

StartChar: C
Encoding: 67 67 35
Width: 684
Flags: HW
AnchorPoint: "bottom" 368 40 basechar 0
AnchorPoint: "above" 368 784 basechar 0
LayerCount: 2
Back
SplineSet
564 200 m 0
 564 176 504 40 368 40 c 0
 232 40 120 186.850585938 120 368 c 0
 120 549.149414062 231.033203125 696 368 696 c 0
 504 696 548 576 548 576 c 1024
EndSplineSet
Fore
SplineSet
564 272 m 0
 603.432573364 272 636 239.432538023 636 200 c 0
 636 185.954935775 632.969955376 175.925286491 631.283420003 169.179144999 c 0
 631.141291679 168.610631702 630.906231564 167.824030847 630.768399153 167.410533616 c 0
 627.340694989 157.127421124 623.363049546 147.200088328 617.664946066 134.664260673 c 0
 604.656187112 108.646742765 586.544737143 77.6036116463 557.080756562 48.1396310647 c 0
 515.742013474 5.71302631726 451.475294017 -32 368 -32 c 0
 304.993130828 -32 246.875955233 -8.73455909679 199.325259974 28.0091599666 c 0
 104.287116402 101.447725454 48 228.781644145 48 368 c 0
 48 507.076419298 103.193379233 634.479841279 198.325259974 707.990840033 c 0
 246.003350753 744.83300109 305.036275302 768 368 768 c 0
 427.68878077 768 477.642186328 750.452933839 515.380267477 724.924231886 c 0
 548.250345285 703.01084668 571.515900596 676.39976126 586.570060189 654.893818984 c 0
 605.594396217 628.471130056 614.206652068 605.164283892 615.45836111 601.50321417 c 0
 619.316192253 591.02182735 620 584.754073605 620 576 c 0
 620 536.567426636 587.432538023 504 548 504 c 0
 516.819990358 504 492.048973879 523.725023185 481.377061516 548.449573279 c 0
 477.723139287 555.917333409 474.133437614 566.750676419 462.592815499 580.599422957 c 0
 444.503435926 602.134398639 417.675344215 624 368 624 c 0
 339.731504624 624 312.210485009 614.259203106 286.835379301 594.134119269 c 0
 234.793873442 553.559385888 192 469.654258433 192 368 c 0
 192 266.569640963 235.810995083 182.427265036 287.679808156 141.987173488 c 0
 314.195363995 121.658580678 341.04015326 112 368 112 c 0
 416.12245226 112 447.292834238 137.691004959 469.834782406 167.446376541 c 0
 481.429316285 182.905755046 490.400996685 201.249339972 492.308581326 206.572481304 c 0
 495.908080166 243.289708066 526.771681375 272 564 272 c 0
536.201390875 186.973173965 m 2
 531.163580587 174.379447139 521.743834277 156.658445703 508.165217594 138.553623459 c 0
 480.707165762 102.308995041 435.87754774 64 368 64 c 0
 328.95984674 64 291.804636005 78.341419322 258.320191844 104.012826512 c 0
 192.189004917 155.572734964 144 253.430359037 144 368 c 0
 144 482.345741567 191.206126558 580.440614112 257.164620699 631.865880731 c 0
 289.789514991 657.740796894 328.268495376 672 368 672 c 0
 434.313102441 672 475.525416801 639.831252877 499.376916755 611.436610074 c 0
 514.134416618 593.727610238 521.246549089 576.761431275 523.905133744 570.788845334 c 0
 524.055225793 570.521683669 524.991916584 568.666070209 525.368112117 567.698710268 c 0
 529.041168784 558.25370741 537.394698939 552 548 552 c 0
 560.567461977 552 572 563.432573364 572 576 c 0
 572 579.367235973 571.300588825 582.626550251 570.716559419 584.086623768 c 0
 570.593206506 584.39500605 570.373276053 584.985507996 570.231600847 585.410533616 c 0
 569.75127143 586.851521865 563.82495149 604.335331461 547.429939811 627.106181016 c 0
 534.484099404 645.60023874 515.749654715 666.98915332 488.619732523 685.075768114 c 0
 458.357813672 705.547066161 418.31121923 720 368 720 c 0
 316.963724698 720 267.996649247 701.16699891 227.674740026 670.009159967 c 0
 146.806620767 607.520158721 96 494.923580702 96 368 c 0
 96 241.218355855 147.712883598 128.552274546 228.674740026 65.9908400334 c 0
 269.124044767 34.7345590968 317.006869172 16 368 16 c 0
 436.524705983 16 488.257986526 46.2869736827 522.919243438 81.8603689353 c 0
 547.525039326 106.466164823 562.584355305 131.935333913 574.338501599 155.342804154 c 0
 578.505513887 164.573527577 581.895244886 172.827295288 584.950038205 181.747291778 c 0
 586.766473795 188.889318575 588 192.625311422 588 200 c 0
 588 212.567461977 576.567426636 224 564 224 c 0
 551.432538023 224 540 212.567426636 540 200 c 0
 540 199 536.201390875 186.973173965 536.201390875 186.973173965 c 2
EndSplineSet
EndChar

StartChar: D
Encoding: 68 68 36
Width: 696
Flags: HW
AnchorPoint: "above" 348 784 basechar 0
LayerCount: 2
Back
SplineSet
144 48 m 0
 144 688 l 0
 352 688 l 0
 416 688 576 624 576 368 c 0
 576 111.98046875 416 48 352 48 c 0
 144 48 l 0
EndSplineSet
Fore
SplineSet
72 688 m 2
 72 729.608232074 105.464776846 760 144 760 c 2
 352 760 l 2
 385.316394298 760 424.062679119 750.839122844 463.848532916 730.408549272 c 0
 496.783636874 713.940997293 530.58195419 687.63362151 559.51920453 652.265871095 c 0
 612.464063083 588.515939368 648 495.39090836 648 368 c 0
 648 240.608818331 612.464364637 147.484423728 559.51920453 83.7341289052 c 0
 530.581637487 48.3659914082 496.799149767 22.0667591536 463.848532916 5.5914507282 c 0
 424.072748513 -14.8339520733 385.308452419 -24 352 -24 c 2
 144 -24 l 2
 104.567426636 -24 72 8.5674619767 72 48 c 2
 72 688 l 2
120 688 m 2
 120 48 l 2
 120 35.4325380233 131.432573364 24 144 24 c 2
 352 24 l 2
 376.691547581 24 407.927251487 30.8339520733 442.151467084 48.4085492718 c 0
 469.200850233 61.9332408464 497.418362513 83.6340085918 522.48079547 114.265871095 c 0
 567.535635363 168.515576272 600 249.391181669 600 368 c 0
 600 486.60909164 567.535936917 567.484060632 522.48079547 621.734128905 c 0
 497.41804581 652.36637849 469.216363126 674.059002707 442.151467084 687.591450728 c 0
 407.937320881 705.160877156 376.683605702 712 352 712 c 2
 144 712 l 2
 130.535223154 712 120 702.391767926 120 688 c 2
216 616 m 1
 216 120 l 1
 352 120 l 2
 356.904905359 120 377.339961726 123.145500729 397.695241791 134.171277431 c 0
 414.745099351 143.144886673 432.700004756 155.978238 448.550617126 175.351208674 c 0
 477.574270752 209.651890233 504 267.175756614 504 368 c 0
 504 468.820128333 477.56967401 526.353542281 448.550617126 560.648791326 c 0
 432.666876879 580.062251627 414.75552588 592.84962568 397.695241791 601.828722569 c 0
 377.285782427 612.883846391 356.974637398 616 352 616 c 2
 216 616 l 1
168 640 m 2
 168 650.300708159 177.472763659 664 192 664 c 2
 352 664 l 2
 367.025362602 664 392.714217573 659.116153609 420.304758209 644.171277431 c 0
 441.24447412 633.15037432 465.333123121 615.937748373 485.449382874 591.351208674 c 0
 522.43032599 547.646457719 552 477.179871667 552 368 c 0
 552 258.824243386 522.425729248 188.348109767 485.449382874 144.648791326 c 0
 465.299995244 120.021762 441.254900649 102.855113327 420.304758209 91.8287225687 c 0
 392.660038274 76.8544992707 367.095094641 72 352 72 c 2
 192 72 l 2
 181.699291841 72 168 81.4727636587 168 96 c 2
 168 640 l 2
EndSplineSet
EndChar

StartChar: E
Encoding: 69 69 37
Width: 696
Flags: HW
AnchorPoint: "above" 348 784 basechar 0
AnchorPoint: "bottom" 348 48 basechar 0
LayerCount: 2
Back
SplineSet
146 388 m 0
 432 388 l 1024
560 688 m 0
 144 688 l 0
 144 48 l 0
 576 48 l 1024
EndSplineSet
Fore
SplineSet
72 688 m 2
 72 729.608232074 105.464776846 760 144 760 c 2
 560 760 l 2
 599.432573364 760 632 727.432538023 632 688 c 0
 632 648.567426636 599.432538023 616 560 616 c 2
 216 616 l 1
 216 460 l 1
 432 460 l 2
 471.432573364 460 504 427.432538023 504 388 c 0
 504 348.567426636 471.432538023 316 432 316 c 2
 216 316 l 1
 216 120 l 1
 576 120 l 2
 615.432573364 120 648 87.4325380233 648 48 c 0
 648 8.56742663621 615.432538023 -24 576 -24 c 2
 144 -24 l 2
 104.567426636 -24 72 8.5674619767 72 48 c 2
 72 688 l 2
120 688 m 2
 120 48 l 2
 120 35.4325380233 131.432573364 24 144 24 c 2
 576 24 l 2
 588.567461977 24 600 35.4325733638 600 48 c 0
 600 60.5674619767 588.567426636 72 576 72 c 2
 192 72 l 2
 181.699291841 72 168 81.4727636587 168 96 c 2
 168 340 l 2
 168 350.300708159 177.472763659 364 192 364 c 2
 432 364 l 2
 444.567461977 364 456 375.432573364 456 388 c 0
 456 400.567461977 444.567426636 412 432 412 c 2
 192 412 l 2
 181.699291841 412 168 421.472763659 168 436 c 2
 168 640 l 2
 168 650.300708159 177.472763659 664 192 664 c 2
 560 664 l 2
 572.567461977 664 584 675.432573364 584 688 c 0
 584 700.567461977 572.567426636 712 560 712 c 2
 144 712 l 2
 130.535223154 712 120 702.391767926 120 688 c 2
EndSplineSet
EndChar

StartChar: F
Encoding: 70 70 38
Width: 664
Flags: HW
AnchorPoint: "above" 332 784 basechar 0
LayerCount: 2
Back
SplineSet
144 48 m 0
 144 688 l 0
 544 688 l 1024
146 388 m 0
 440 388 l 1024
EndSplineSet
Fore
SplineSet
72 688 m 2
 72 729.608232074 105.464776846 760 144 760 c 2
 544 760 l 2
 583.432573364 760 616 727.432538023 616 688 c 0
 616 648.567426636 583.432538023 616 544 616 c 2
 216 616 l 1
 216 460 l 1
 440 460 l 2
 479.432573364 460 512 427.432538023 512 388 c 0
 512 348.567426636 479.432538023 316 440 316 c 2
 216 316 l 1
 216 48 l 2
 216 8.56742663621 183.432538023 -24 144 -24 c 0
 104.567426636 -24 72 8.5674619767 72 48 c 2
 72 688 l 2
120 688 m 2
 120 48 l 2
 120 35.4325380233 131.432573364 24 144 24 c 0
 156.567461977 24 168 35.4325733638 168 48 c 2
 168 340 l 2
 168 350.300708159 177.472763659 364 192 364 c 2
 440 364 l 2
 452.567461977 364 464 375.432573364 464 388 c 0
 464 400.567461977 452.567426636 412 440 412 c 2
 192 412 l 2
 181.699291841 412 168 421.472763659 168 436 c 2
 168 640 l 2
 168 650.300708159 177.472763659 664 192 664 c 2
 544 664 l 2
 556.567461977 664 568 675.432573364 568 688 c 0
 568 700.567461977 556.567426636 712 544 712 c 2
 144 712 l 2
 130.535223154 712 120 702.391767926 120 688 c 2
EndSplineSet
EndChar

StartChar: G
Encoding: 71 71 39
Width: 672
Flags: HW
AnchorPoint: "above" 368 784 basechar 0
LayerCount: 2
Back
SplineSet
548 576 m 0
 548 576 504 696 368 696 c 0
 231.033203125 696 120 549.149414062 120 368 c 0
 120 186.850585938 232 40 368 40 c 0
 496 40 552 152 552 152 c 0
 552 344 l 0
 384 344 l 1024
EndSplineSet
Fore
SplineSet
552 416 m 2
 595.551885564 416 624 379.893122518 624 344 c 2
 624 152 l 2
 624 140.387989125 620.789768567 130.24994181 617.05948072 121.545936834 c 0
 616.882998438 121.134144841 616.614789161 120.563946862 616.466252584 120.266873708 c 0
 613.572467606 114.479303751 582.615850828 52.2547095945 509.348757716 7.41962276468 c 0
 472.1904658 -14.4381960092 425.126429883 -32 368 -32 c 0
 304.993130828 -32 246.875955233 -8.73455909679 199.325259974 28.0091599666 c 0
 104.287116402 101.447725454 48 228.781644145 48 368 c 0
 48 507.076419298 103.193379233 634.479841279 198.325259974 707.990840033 c 0
 246.003350753 744.83300109 305.036275302 768 368 768 c 0
 427.68878077 768 477.642186328 750.452933839 515.380267477 724.924231886 c 0
 548.250345285 703.01084668 571.515900596 676.39976126 586.570060189 654.893818984 c 0
 605.594396217 628.471130056 614.206652068 605.164283892 615.45836111 601.50321417 c 0
 619.316192253 591.02182735 620 584.754073605 620 576 c 0
 620 536.567426636 587.432538023 504 548 504 c 0
 516.819990358 504 492.048973879 523.725023185 481.377061516 548.449573279 c 0
 477.723139287 555.917333409 474.133437614 566.750676419 462.592815499 580.599422957 c 0
 444.503435926 602.134398639 417.675344215 624 368 624 c 0
 339.731504624 624 312.210485009 614.259203106 286.835379301 594.134119269 c 0
 234.793873442 553.559385888 192 469.654258433 192 368 c 0
 192 266.569640963 235.810995083 182.427265036 287.679808156 141.987173488 c 0
 314.195363995 121.658580678 341.04015326 112 368 112 c 0
 414.08720403 112 444.46691417 132.516815829 465.856286271 154.797411768 c 0
 472.067934126 161.009059623 475.533209071 166.207408323 480 172.674744382 c 1
 480 272 l 1
 384 272 l 2
 344.567426636 272 312 304.567461977 312 344 c 0
 312 383.432573364 344.567461977 416 384 416 c 2
 552 416 l 2
552 368 m 2
 384 368 l 2
 371.432538023 368 360 356.567426636 360 344 c 0
 360 331.432538023 371.432573364 320 384 320 c 2
 504 320 l 2
 514.300708159 320 528 310.527236341 528 296 c 2
 528 165 l 2
 528 160.480562763 526.328636145 154.77151486 523.2 150.6 c 0
 518.744820842 144.659761123 512.039867028 133.098741531 500.143713729 121.202588232 c 0
 473.53308583 93.4831841706 429.91279597 64 368 64 c 0
 328.95984674 64 291.804636005 78.341419322 258.320191844 104.012826512 c 0
 192.189004917 155.572734964 144 253.430359037 144 368 c 0
 144 482.345741567 191.206126558 580.440614112 257.164620699 631.865880731 c 0
 289.789514991 657.740796894 328.268495376 672 368 672 c 0
 434.313102441 672 475.525416801 639.831252877 499.376916755 611.436610074 c 0
 514.134416618 593.727610238 521.246549089 576.761431275 523.905133744 570.788845334 c 0
 524.055225793 570.521683669 524.991916584 568.666070209 525.368112117 567.698710268 c 0
 529.041168784 558.25370741 537.394698939 552 548 552 c 0
 560.567461977 552 572 563.432573364 572 576 c 0
 572 579.367235973 571.300588825 582.626550251 570.716559419 584.086623768 c 0
 570.593206506 584.39500605 570.373276053 584.985507996 570.231600847 585.410533616 c 0
 569.75127143 586.851521865 563.82495149 604.335331461 547.429939811 627.106181016 c 0
 534.484099404 645.60023874 515.749654715 666.98915332 488.619732523 685.075768114 c 0
 458.357813672 705.547066161 418.31121923 720 368 720 c 0
 316.963724698 720 267.996649247 701.16699891 227.674740026 670.009159967 c 0
 146.806620767 607.520158721 96 494.923580702 96 368 c 0
 96 241.218355855 147.712883598 128.552274546 228.674740026 65.9908400334 c 0
 269.124044767 34.7345590968 317.006869172 16 368 16 c 0
 414.873570117 16 453.8095342 30.4381960092 484.651242284 48.5803772353 c 0
 542.445371628 83.9469339979 569.782817706 134.395635008 573.209535354 141.090309516 c 0
 574.848269542 145.042475483 576 149.93063167 576 152 c 2
 576 344 l 2
 576 356.106877482 566.448114436 368 552 368 c 2
EndSplineSet
EndChar

StartChar: H
Encoding: 72 72 40
Width: 712
Flags: HW
AnchorPoint: "above" 356 784 basechar 0
LayerCount: 2
Back
SplineSet
146 388 m 0
 566 388 l 1024
568 688 m 0
 568 48 l 1024
144 48 m 0
 144 688 l 1024
EndSplineSet
Fore
SplineSet
496 688 m 2
 496 727.432573364 528.567461977 760 568 760 c 0
 607.432573364 760 640 727.432538023 640 688 c 2
 640 48 l 2
 640 8.56742663621 607.432538023 -24 568 -24 c 0
 528.567426636 -24 496 8.5674619767 496 48 c 2
 496 316 l 1
 216 316 l 1
 216 48 l 2
 216 8.56742663621 183.432538023 -24 144 -24 c 0
 104.567426636 -24 72 8.5674619767 72 48 c 2
 72 688 l 2
 72 727.432573364 104.567461977 760 144 760 c 0
 183.432573364 760 216 727.432538023 216 688 c 2
 216 460 l 1
 496 460 l 1
 496 688 l 2
544 688 m 2
 544 436 l 2
 544 425.699291841 534.527236341 412 520 412 c 2
 192 412 l 2
 181.699291841 412 168 421.472763659 168 436 c 2
 168 688 l 2
 168 700.567461977 156.567426636 712 144 712 c 0
 131.432538023 712 120 700.567426636 120 688 c 2
 120 48 l 2
 120 35.4325380233 131.432573364 24 144 24 c 0
 156.567461977 24 168 35.4325733638 168 48 c 2
 168 340 l 2
 168 350.300708159 177.472763659 364 192 364 c 2
 520 364 l 2
 530.300708159 364 544 354.527236341 544 340 c 2
 544 48 l 2
 544 35.4325380233 555.432573364 24 568 24 c 0
 580.567461977 24 592 35.4325733638 592 48 c 2
 592 688 l 2
 592 700.567461977 580.567426636 712 568 712 c 0
 555.432538023 712 544 700.567426636 544 688 c 2
EndSplineSet
EndChar

StartChar: I
Encoding: 73 73 41
Width: 336
Flags: HW
HStem: 0 21G<154.754 181.246> 716 20G<154.754 181.246>
VStem: 120 96<7.56638 728.434>
AnchorPoint: "above" 168 784 basechar 0
LayerCount: 2
Back
SplineSet
168 688 m 0
 168 48 l 1024
EndSplineSet
Fore
SplineSet
96 688 m 2
 96 727.432573364 128.567461977 760 168 760 c 0
 207.432573364 760 240 727.432538023 240 688 c 2
 240 48 l 2
 240 8.56742663621 207.432538023 -24 168 -24 c 0
 128.567426636 -24 96 8.5674619767 96 48 c 2
 96 688 l 2
144 688 m 2
 144 48 l 2
 144 35.4325380233 155.432573364 24 168 24 c 0
 180.567461977 24 192 35.4325733638 192 48 c 2
 192 688 l 2
 192 700.567461977 180.567426636 712 168 712 c 0
 155.432538023 712 144 700.567426636 144 688 c 2
EndSplineSet
EndChar

StartChar: J
Encoding: 74 74 42
Width: 544
Flags: HW
AnchorPoint: "above" 272 784 basechar 0
LayerCount: 2
Back
SplineSet
96 280 m 0
 96 216 l 0
 96 216 l 0
 96 118.797851562 164.052734375 40 248 40 c 0
 331.947265625 40 400 129.54296875 400 240 c 0
 400 688 l 1024
EndSplineSet
Fore
SplineSet
24 280 m 2
 24 319.432573364 56.5674619767 352 96 352 c 0
 135.432573364 352 168 319.432538023 168 280 c 2
 168 216 l 2
 168 173.539131825 188.846257823 139.973077773 211.555919915 123.806046219 c 0
 223.981760895 115.685361246 235.456335203 112 248 112 c 0
 258.927190244 112 268.938891602 114.886109621 280.156638872 123.860307437 c 0
 304.3114312 142.56079182 328 185.475914695 328 240 c 2
 328 688 l 2
 328 727.432573364 360.567461977 760 400 760 c 0
 439.432573364 760 472 727.432538023 472 688 c 2
 472 240 l 2
 472 147.725136558 434.725432424 61.5060250942 368.679808156 10.0128265119 c 0
 334.894444614 -15.8892855366 293.786215936 -32 248 -32 c 0
 204.91487108 -32 164.343173011 -18.4065255441 130.687195291 4.03079293589 c 0
 63.1926970367 49.0271251052 24 128.949710396 24 216 c 2
 24 280 l 2
72 280 m 2
 72 216 l 2
 72 143.050289604 104.807302963 78.9728748948 157.312804709 43.9692070641 c 0
 183.656826989 26.4065255441 215.08512892 16 248 16 c 0
 282.213784064 16 313.105555386 27.8892855366 339.320191844 47.9871734881 c 0
 391.274567576 88.4939749058 424 160.274863442 424 240 c 2
 424 688 l 2
 424 700.567461977 412.567426636 712 400 712 c 0
 387.432538023 712 376 700.567426636 376 688 c 2
 376 240 l 2
 376 172.524085305 347.6885688 115.43920818 309.843361128 86.1396925625 c 0
 291.061108398 71.1138903788 269.072809756 64 248 64 c 0
 224.463234879 64 203.175836481 71.7050321424 184.460301779 84.1820552773 c 0
 147.208826521 110.258087958 120 158.291447693 120 216 c 2
 120 280 l 2
 120 292.567461977 108.567426636 304 96 304 c 0
 83.4325380233 304 72 292.567426636 72 280 c 2
EndSplineSet
EndChar

StartChar: K
Encoding: 75 75 43
Width: 672
Flags: HW
AnchorPoint: "above" 336 784 basechar 0
LayerCount: 2
Back
SplineSet
576 48 m 0
 302 434 l 1024
560 688 m 0
 146 282 l 1024
144 688 m 0
 144 48 l 1024
EndSplineSet
Fore
SplineSet
648 48 m 0
 648 8.56742663621 615.432538023 -24 576 -24 c 0
 551.679026811 -24 531.009001389 -12.0120018523 517.610559108 5.85258785593 c 2
 291.712654692 324.163271351 l 1
 216 249.920765294 l 1
 216 48 l 2
 216 8.56742663621 183.432538023 -24 144 -24 c 0
 104.567426636 -24 72 8.5674619767 72 48 c 2
 72 688 l 2
 72 727.432573364 104.567461977 760 144 760 c 0
 183.432573364 760 216 727.432538023 216 688 c 2
 216 451.206508878 l 1
 509.183939671 739.123671189 l 2
 509.454169567 739.389046656 509.845684985 739.751527752 510.055267868 739.937823648 c 0
 522.318101286 750.83812002 539.499773504 760 560 760 c 0
 599.432573364 760 632 727.432538023 632 688 c 0
 632 668.728986412 624.518722544 650.577597047 610.877320713 636.936195216 c 2
 395.447145485 426.189284667 l 1
 634.382880429 90.156159428 l 2
 643.474054548 78.0345939358 648 62.611665823 648 48 c 0
600 48 m 0
 600 53.388334177 598.525945452 57.9654060642 595.617119571 61.843840572 c 2
 344.440490693 415.092246923 l 2
 341.607965563 419.075838041 340.151143956 423.984846684 340.151143956 428.94509578 c 0
 340.151143956 435.179752613 342.452715657 441.495362102 347.216940269 446.156016614 c 2
 577.122679287 671.063804784 l 2
 581.481277456 675.422402953 584 681.271013588 584 688 c 0
 584 700.567461977 572.567426636 712 560 712 c 0
 554.62478153 712 548.096658838 709.37041288 542.339553544 704.408382028 c 2
 208.816060329 376.876328811 l 2
 205.246242941 373.370639878 199.537440692 370.518985211 193.882970051 370.073980193 c 0
 193.266711785 370.025480866 192.653712538 370.001668106 192.044917584 370.001668106 c 0
 179.067208887 370.001668106 168 380.822576046 168 394 c 2
 168 688 l 2
 168 700.567461977 156.567426636 712 144 712 c 0
 131.432538023 712 120 700.567426636 120 688 c 2
 120 48 l 2
 120 35.4325380233 131.432573364 24 144 24 c 0
 156.567461977 24 168 35.4325733638 168 48 c 2
 168 260 l 2
 168 265.439092272 170.513107924 272.543544418 175.196622842 277.136117299 c 2
 278.196622842 378.136117299 l 2
 282.245620204 382.106493354 288.664940819 384.558006014 295.27710393 384.558006014 c 0
 302.388775859 384.558006014 309.723526976 381.722109025 314.572171474 374.889928143 c 2
 556.376435936 34.1657373087 l 2
 561.144555909 28.0431975682 568.210179152 24 576 24 c 0
 588.567461977 24 600 35.4325733638 600 48 c 0
EndSplineSet
EndChar

StartChar: L
Encoding: 76 76 44
Width: 656
Flags: HW
AnchorPoint: "above" 328 784 basechar 0
LayerCount: 2
Back
SplineSet
144 688 m 0
 144 48 l 0
 560 48 l 1024
EndSplineSet
Fore
SplineSet
72 688 m 2
 72 727.432573364 104.567461977 760 144 760 c 0
 183.432573364 760 216 727.432538023 216 688 c 2
 216 120 l 1
 560 120 l 2
 599.432573364 120 632 87.4325380233 632 48 c 0
 632 8.56742663621 599.432538023 -24 560 -24 c 2
 144 -24 l 2
 104.567426636 -24 72 8.5674619767 72 48 c 2
 72 688 l 2
120 688 m 2
 120 48 l 2
 120 35.4325380233 131.432573364 24 144 24 c 2
 560 24 l 2
 572.567461977 24 584 35.4325733638 584 48 c 0
 584 60.5674619767 572.567426636 72 560 72 c 2
 192 72 l 2
 181.699291841 72 168 81.4727636587 168 96 c 2
 168 688 l 2
 168 700.567461977 156.567426636 712 144 712 c 0
 131.432538023 712 120 700.567426636 120 688 c 2
EndSplineSet
EndChar

StartChar: M
Encoding: 77 77 45
Width: 830
Flags: HW
AnchorPoint: "above" 415 784 basechar 0
LayerCount: 2
Back
SplineSet
144 48 m 0
 144 688 l 0
 184 688 l 0
 416 48 l 0
 648 688 l 0
 688 688 l 0
 688 48 l 1024
EndSplineSet
Fore
SplineSet
72 688 m 2
 72 729.608232074 105.464776846 760 144 760 c 2
 184 760 l 2
 214.524299895 760 241.15675163 740.426382939 251.539679455 712.244150273 c 2
 416 259.318668558 l 1
 580.460320545 712.244150273 l 2
 590.844639273 740.430158248 617.474123895 760 648 760 c 2
 688 760 l 2
 706.375714327 760 725.059930003 752.881195494 738.970562748 738.970562748 c 0
 752.881195494 725.059930003 760 706.375714327 760 688 c 2
 760 48 l 2
 760 8.56742663621 727.432538023 -24 688 -24 c 0
 648.567426636 -24 616 8.5674619767 616 48 c 2
 616 388.576729113 l 1
 483.46645072 23.5541604262 l 2
 473.398966598 -2.33365588851 449.279991893 -24 416 -24 c 0
 384.466339957 -24 358.665586157 -3.94415693439 348.460233928 23.7560848298 c 2
 216 388.576729113 l 1
 216 48 l 2
 216 8.56742663621 183.432538023 -24 144 -24 c 0
 104.567426636 -24 72 8.5674619767 72 48 c 2
 72 688 l 2
120 688 m 2
 120 48 l 2
 120 35.4325380233 131.432573364 24 144 24 c 0
 156.567461977 24 168 35.4325733638 168 48 c 2
 168 525 l 2
 168 533.8112984 173.387984209 542.900984855 182.064520757 546.846881979 c 0
 185.205225049 548.275204901 188.512961193 548.946007685 191.781385852 548.946007685 c 0
 201.581585049 548.946007685 211.028347017 542.915030221 214.559047533 533.190810362 c 2
 393.539766072 40.2439151702 l 2
 397.334413843 29.9441569344 405.533660043 24 416 24 c 0
 426.644564559 24 434.160611831 29.7113622253 438.534939478 40.4496684428 c 2
 617.440952467 533.190810362 l 2
 620.44810556 541.473081172 628.614759305 548.178194168 638.117029949 548.926019807 c 0
 638.733288215 548.974519134 639.346287462 548.998331894 639.955082416 548.998331894 c 0
 652.932791113 548.998331894 664 538.177423954 664 525 c 2
 664 48 l 2
 664 35.4325380233 675.432573364 24 688 24 c 0
 700.567461977 24 712 35.4325733638 712 48 c 2
 712 688 l 2
 712 693.624285673 709.118804506 700.940069997 705.029437252 705.029437252 c 0
 700.940069997 709.118804506 693.624285673 712 688 712 c 2
 648 712 l 2
 638.525876105 712 629.155360727 705.569841752 625.539679455 695.755849727 c 2
 438.558876511 180.808718626 l 2
 436.454624119 175.013585033 431.802755072 169.821573273 425.935935385 167.15332547 c 0
 422.795101163 165.724864317 419.487202277 165.05399688 416.218615365 165.05399688 c 0
 406.418594411 165.05399688 396.97196714 171.084737448 393.441123489 180.808718626 c 2
 206.460320545 695.755849727 l 2
 202.84324837 705.573617061 193.475700105 712 184 712 c 2
 144 712 l 2
 130.535223154 712 120 702.391767926 120 688 c 2
EndSplineSet
EndChar

StartChar: N
Encoding: 78 78 46
Width: 720
Flags: HW
AnchorPoint: "above" 360 784 basechar 0
LayerCount: 2
Back
SplineSet
144 48 m 0
 144 688 l 0
 184 688 l 0
 544 48 l 0
 576 48 l 0
 576 688 l 1024
EndSplineSet
Fore
SplineSet
72 688 m 2
 72 729.608232074 105.464776846 760 144 760 c 2
 184 760 l 2
 209.955930723 760 234.885753603 745.339211994 247.050289056 722.53070802 c 2
 504 265.63668558 l 1
 504 688 l 2
 504 727.432573364 536.567461977 760 576 760 c 0
 615.432573364 760 648 727.432538023 648 688 c 2
 648 48 l 2
 648 8.56742663621 615.432538023 -24 576 -24 c 2
 544 -24 l 2
 518.04439444 -24 493.113374628 -9.33757742697 480.95069693 13.4674432568 c 2
 216 484.395940058 l 1
 216 48 l 2
 216 8.56742663621 183.432538023 -24 144 -24 c 0
 104.567426636 -24 72 8.5674619767 72 48 c 2
 72 688 l 2
120 688 m 2
 120 48 l 2
 120 35.4325380233 131.432573364 24 144 24 c 0
 156.567461977 24 168 35.4325733638 168 48 c 2
 168 576 l 2
 168 583.893229463 172.036080348 591.506277736 178.627132055 595.92903417 c 0
 182.655766083 598.63234585 187.255056633 599.9119584 191.819599497 599.9119584 c 0
 200.234458821 599.9119584 208.531224904 595.563076322 212.916799004 587.768072035 c 2
 523.04930307 36.5325567432 l 2
 526.886625372 29.337577427 535.95560556 24 544 24 c 2
 576 24 l 2
 588.567461977 24 600 35.4325733638 600 48 c 2
 600 688 l 2
 600 700.567461977 588.567426636 712 576 712 c 0
 563.432538023 712 552 700.567426636 552 688 c 2
 552 174 l 2
 552 166.0884829 547.958606494 158.488489329 541.369388537 154.068631503 c 0
 537.341537171 151.366864693 532.743633 150.088010098 528.180489755 150.088010098 c 0
 519.76416925 150.088010098 511.466100522 154.438493293 507.081146849 162.235579792 c 2
 204.949710944 699.46929198 l 2
 201.114246397 706.660788006 192.044069277 712 184 712 c 2
 144 712 l 2
 130.535223154 712 120 702.391767926 120 688 c 2
EndSplineSet
EndChar

StartChar: O
Encoding: 79 79 47
Width: 736
Flags: HW
HStem: -8 96<290.543 445.457> 648 96<290.543 445.457>
VStem: 72 96<242.362 493.638> 568 96<242.362 493.638>
AnchorPoint: "above" 368 784 basechar 0
AnchorPoint: "middle" 368 368 basechar 0
LayerCount: 2
Back
SplineSet
616 368 m 0
 616 186.850585938 504.966796875 40 368 40 c 0
 231.033203125 40 120 186.850585938 120 368 c 0
 120 549.149414062 231.033203125 696 368 696 c 0
 504.966796875 696 616 549.149414062 616 368 c 0
EndSplineSet
Fore
SplineSet
688 368 m 0
 688 228.923580702 632.806620767 101.520158721 537.674740026 28.0091599666 c 0
 489.996649247 -8.83300109015 430.963724698 -32 368 -32 c 0
 305.03624436 -32 246.003375599 -8.83302028923 198.325259974 28.0091599666 c 0
 103.193372393 101.520164007 48 228.923562716 48 368 c 0
 48 507.076419298 103.193379233 634.479841279 198.325259974 707.990840033 c 0
 246.003350753 744.83300109 305.036275302 768 368 768 c 0
 430.96375564 768 489.996624401 744.833020289 537.674740026 707.990840033 c 0
 632.806627607 634.479835993 688 507.076437284 688 368 c 0
640 368 m 0
 640 494.923562716 589.193372393 607.520164007 508.325259974 670.009159967 c 0
 468.003375599 701.166979711 419.03624436 720 368 720 c 0
 316.963724698 720 267.996649247 701.16699891 227.674740026 670.009159967 c 0
 146.806620767 607.520158721 96 494.923580702 96 368 c 0
 96 241.076437284 146.806627607 128.479835993 227.674740026 65.9908400334 c 0
 267.996624401 34.8330202892 316.96375564 16 368 16 c 0
 419.036275302 16 468.003350753 34.8330010901 508.325259974 65.9908400334 c 0
 589.193379233 128.479841279 640 241.076419298 640 368 c 0
544 368 m 0
 544 469.654022819 501.205782721 553.559653964 449.164620699 594.134119269 c 0
 423.782689941 614.264616077 396.272735898 624 368 624 c 0
 339.731504624 624 312.210485009 614.259203106 286.835379301 594.134119269 c 0
 234.793873442 553.559385888 192 469.654258433 192 368 c 0
 192 266.345977181 234.794217279 182.440346036 286.835379301 141.865880731 c 0
 312.217310059 121.735383923 339.727264102 112 368 112 c 0
 396.268495376 112 423.789514991 121.740796894 449.164620699 141.865880731 c 0
 501.206126558 182.440614112 544 266.345741567 544 368 c 0
592 368 m 0
 592 253.654258433 544.793873442 155.559385888 478.835379301 104.134119269 c 0
 446.210485009 78.2592031061 407.731504624 64 368 64 c 0
 328.272735898 64 289.782689941 78.2646160774 257.164620699 104.134119269 c 0
 191.205782721 155.559653964 144 253.654022819 144 368 c 0
 144 482.345741567 191.206126558 580.440614112 257.164620699 631.865880731 c 0
 289.789514991 657.740796894 328.268495376 672 368 672 c 0
 407.727264102 672 446.217310059 657.735383923 478.835379301 631.865880731 c 0
 544.794217279 580.440346036 592 482.345977181 592 368 c 0
EndSplineSet
EndChar

StartChar: P
Encoding: 80 80 48
Width: 680
Flags: HW
AnchorPoint: "above" 340 784 basechar 0
LayerCount: 2
Back
SplineSet
144 48 m 0
 144 688 l 0
 384 688 l 0
 480 688 560 632 560 520 c 0
 560 408 480 352 384 352 c 0
 145 352 l 1024
EndSplineSet
Fore
SplineSet
192 664 m 2
 384 664 l 2
 422.092981096 664 456.991806485 654.070967712 482.880951293 635.578721421 c 0
 516.681993581 611.792802774 536 572.707527886 536 520 c 0
 536 467.28502764 516.746488258 428.25258237 482.880951293 404.421278579 c 0
 456.992367897 385.929433296 422.092594624 376 384 376 c 2
 192 376 l 2
 177.472763659 376 168 389.699291841 168 400 c 2
 168 640 l 2
 168 654.527236341 181.699291841 664 192 664 c 2
216 616 m 1
 216 424 l 1
 384 424 l 2
 413.907405376 424 439.007632103 432.070566704 455.119048707 443.578721421 c 0
 475.253511742 457.74741763 488 478.71497236 488 520 c 0
 488 561.292472114 475.318006419 582.207197226 455.119048707 596.421278579 c 0
 439.008193515 607.929032288 413.907018904 616 384 616 c 2
 216 616 l 1
144 712 m 2
 130.535115849 712 120 702.391232248 120 688 c 2
 120 48 l 2
 120 35.4325733638 131.432538023 24 144 24 c 0
 156.567426636 24 168 35.4325380233 168 48 c 2
 168 304 l 2
 168 318.527236341 181.699291841 328 192 328 c 2
 384 328 l 2
 430.921638711 328 474.963370665 340.005028881 510.999630283 365.494090562 c 0
 552.802149836 395.975094403 584 446.354625485 584 520 c 0
 584 593.645544307 552.802584698 644.024588511 510.999630283 674.505909438 c 0
 474.981082129 699.982443498 430.908669014 712 384 712 c 2
 144 712 l 2
144 760 m 2
 384 760 l 2
 439.091330986 760 493.018917871 746.017556502 539.000369717 713.494090562 c 0
 593.197415302 673.975411489 632 608.354455693 632 520 c 0
 632 431.645374515 593.197850164 366.024905597 539.000369717 326.505909438 c 0
 493.036629335 293.994971119 439.078361289 280 384 280 c 2
 216 280 l 1
 216 48 l 2
 216 8.5674619767 183.432573364 -24 144 -24 c 0
 104.567461977 -24 72 8.56742663621 72 48 c 2
 72 688 l 2
 72 729.608767752 105.464884151 760 144 760 c 2
EndSplineSet
EndChar

StartChar: Q
Encoding: 81 81 49
Width: 736
Flags: HW
AnchorPoint: "above" 368 784 basechar 0
LayerCount: 2
Back
SplineSet
421.155273438 170.032226562 m 0
 484 136 464 16 570 3 c 1024
616 368 m 0
 616 186.850585938 504.966796875 40 368 40 c 0
 231.033203125 40 120 186.850585938 120 368 c 0
 120 549.149414062 231.033203125 696 368 696 c 0
 504.966796875 696 616 549.149414062 616 368 c 0
EndSplineSet
Fore
SplineSet
455.066549107 -16.8992112191 m 1
 425.550909561 -27.2458817638 398.41565246 -32 368 -32 c 0
 305.03624436 -32 246.003375599 -8.83302028923 198.325259974 28.0091599666 c 0
 103.193372393 101.520164007 48 228.923562716 48 368 c 0
 48 507.076419298 103.193379233 634.479841279 198.325259974 707.990840033 c 0
 246.003350753 744.83300109 305.036275302 768 368 768 c 0
 430.96375564 768 489.996624401 744.833020289 537.674740026 707.990840033 c 0
 632.806627607 634.479835993 688 507.076437284 688 368 c 0
 688 253.993166842 650.585039182 148.845225773 585.63110135 73.6594927671 c 1
 618.840639184 66.1440440941 642 36.644749931 642 3 c 0
 642 -36.4325733638 609.432538023 -69 570 -69 c 2
 564 -69 l 2
 562.996710263 -69 561.61995426 -68.8937007986 560.869091698 -68.794903093 c 0
 518.080161652 -63.1647807185 481.593109775 -44.7133294612 456.8321318 -18.7732572972 c 0
 456.095096869 -18.0362223656 455.066549107 -16.8992112191 455.066549107 -16.8992112191 c 1
453.457421497 34.0213350074 m 0
 461.923877067 37.6901324211 472.941729608 35.999395889 479.970562748 28.9705627485 c 0
 488.07882007 20.8623054266 490.692038749 15.2490867477 491.1678682 14.7732572972 c 0
 508.186735674 -3.05603243775 532.512720808 -16.2424879363 565.623174336 -21 c 1
 570 -21 l 2
 582.567461977 -21 594 -9.56742663621 594 3 c 0
 594 15.1334219102 584.512438128 25.7491719891 573.18627289 27.1649426439 c 0
 551.566675467 29.5671201354 536.395479281 38.6633952222 527.029437252 48.0294372515 c 0
 522.751529216 52.3073452868 520.282815484 58.6946098022 520.282815484 65.2142945392 c 0
 520.282815484 71.4457126975 522.538048041 77.7981000839 527.624361991 82.5453264378 c 0
 596.901977154 147.204433923 640 251.714052737 640 368 c 0
 640 494.923562716 589.193372393 607.520164007 508.325259974 670.009159967 c 0
 468.003375599 701.166979711 419.03624436 720 368 720 c 0
 316.963724698 720 267.996649247 701.16699891 227.674740026 670.009159967 c 0
 146.806620767 607.520158721 96 494.923580702 96 368 c 0
 96 241.076437284 146.806627607 128.479835993 227.674740026 65.9908400334 c 0
 267.996624401 34.8330202892 316.96375564 16 368 16 c 0
 397.59048681 16 426.286816516 22.2474061825 453.457421497 34.0213350074 c 0
349 170 m 0
 349 209.432573364 381.567461977 242 421 242 c 0
 432.930577234 242 445.156535664 238.981149044 455.817129131 232.889381348 c 0
 473.286124072 223.106744181 488.04226624 209.221681504 497.616499481 197.58730232 c 1
 525.924839065 242.810885817 544 301.600344673 544 368 c 0
 544 469.654022819 501.205782721 553.559653964 449.164620699 594.134119269 c 0
 423.782689941 614.264616077 396.272735898 624 368 624 c 0
 339.731504624 624 312.210485009 614.259203106 286.835379301 594.134119269 c 0
 234.793873442 553.559385888 192 469.654258433 192 368 c 0
 192 266.345977181 234.794217279 182.440346036 286.835379301 141.865880731 c 0
 312.217310059 121.735383923 339.727264102 112 368 112 c 0
 371.0662019 112 376.062828756 112.256884709 377.881043073 112.404974563 c 1
 359.362203779 126.460252025 349 146.777419762 349 170 c 0
478.666831267 140.392043236 m 0
 477.167685804 142.573509164 474.539614061 146.43994284 474.229769148 146.975129507 c 0
 464.246804605 164.2184319 452.275469714 179.858763299 432.182870869 191.110618652 c 0
 428.843464336 193.018850956 425.069422766 194 421 194 c 0
 408.432538023 194 397 182.567426636 397 170 c 0
 397 161.017636844 402.313049627 152.899706865 409.0155281 149.32505168 c 0
 418.840377397 144.412627031 425.953606433 135.391604437 432.579830217 124.34789813 c 0
 432.804080576 123.974147531 433.204180903 123.257269654 433.466252584 122.733126292 c 0
 436.170839016 117.323953429 437.932665671 112.800300117 440.466252584 107.733126292 c 0
 442.044780506 104.576070448 442.811230368 101.048290374 442.811230368 97.4832268868 c 0
 442.811230368 87.8702425214 437.238530087 77.9861780862 426.987682826 74.368231994 c 0
 407.619135448 67.5322740961 387.83608424 64 368 64 c 0
 328.272735898 64 289.782689941 78.2646160774 257.164620699 104.134119269 c 0
 191.205782721 155.559653964 144 253.654022819 144 368 c 0
 144 482.345741567 191.206126558 580.440614112 257.164620699 631.865880731 c 0
 289.789514991 657.740796894 328.268495376 672 368 672 c 0
 407.727264102 672 446.217310059 657.735383923 478.835379301 631.865880731 c 0
 544.794217279 580.440346036 592 482.345977181 592 368 c 0
 592 276.688936362 561.46674252 195.432230123 515.376916755 140.563389926 c 0
 511.467866679 135.909758883 504.433909572 132.977514713 497.021736343 132.977514713 c 0
 490.590031544 132.977514713 483.873552229 135.185322274 478.666831267 140.392043236 c 0
EndSplineSet
EndChar

StartChar: R
Encoding: 82 82 50
Width: 704
Flags: HW
AnchorPoint: "above" 352 784 basechar 0
LayerCount: 2
Back
SplineSet
144 48 m 0
 144 688 l 0
 408 688 l 0
 504 688 584 648 584 536 c 0
 584 424 504 384 408 384 c 0
 145 384 l 1024
572 48 m 0
 428 383 l 1024
EndSplineSet
Fore
SplineSet
216 616 m 1
 216 456 l 1
 408 456 l 2
 441.750916177 456 468.539020301 463.511981276 483.871011462 472.711175972 c 0
 494.320352414 478.682227945 499.925554034 484.736285583 505.388731646 496.443094752 c 0
 509.280251896 504.226135251 512 515.881982847 512 536 c 0
 512 556.115092136 509.27826283 567.77784288 505.388731646 575.556905248 c 0
 499.924380319 587.266229521 494.319393977 593.318319733 483.871011462 599.288824028 c 0
 468.53443836 608.490767889 441.754356223 616 408 616 c 2
 216 616 l 1
168 640 m 2
 168 650.300708159 177.472763659 664 192 664 c 2
 408 664 l 2
 448.245643777 664 483.46556164 655.509232111 508.128988538 640.711175972 c 0
 525.680606023 630.681680267 540.075619681 614.733770479 548.611268354 596.443094752 c 0
 556.72173717 580.22215712 560 559.884907864 560 536 c 0
 560 512.118017153 556.719748104 491.773864749 548.611268354 475.556905248 c 0
 540.074445966 457.263714417 525.679647586 441.317772055 508.128988538 431.288824028 c 0
 483.460979699 416.488018724 448.249083823 408 408 408 c 2
 192 408 l 2
 181.699291841 408 168 417.472763659 168 432 c 2
 168 640 l 2
144 760 m 2
 408 760 l 2
 458.411493734 760 512.302944613 751.656738444 558.316849599 723.599479307 c 0
 591.499684766 704.147472485 618.974161307 673.055465799 635.820092604 635.994416943 c 0
 649.519019772 606.313408081 656 571.838405186 656 536 c 0
 656 500.159613029 649.520211007 465.689172929 635.820092604 436.005583057 c 0
 618.926910316 398.840582022 591.338457165 368.034080391 558.455987595 348.480765584 c 0
 547.141349965 341.51345336 537.504663584 337.040742446 528.329598938 333.404920457 c 1
 637.737355555 77.2084237132 l 2
 643.208810908 65.4458803107 644 57.2935525605 644 48 c 0
 644 8.56742663621 611.432538023 -24 572 -24 c 0
 542.250966257 -24 516.440470955 -5.96037681324 505.878379849 19.6904158714 c 2
 380.194780159 312 l 1
 216 312 l 1
 216 48 l 2
 216 8.56742663621 183.432538023 -24 144 -24 c 0
 104.567426636 -24 72 8.5674619767 72 48 c 2
 72 688 l 2
 72 729.608232074 105.464776846 760 144 760 c 2
144 712 m 2
 130.535223154 712 120 702.391767926 120 688 c 2
 120 48 l 2
 120 35.4325380233 131.432573364 24 144 24 c 0
 156.567461977 24 168 35.4325733638 168 48 c 2
 168 336 l 2
 168 346.300708159 177.472763659 360 192 360 c 2
 396 360 l 2
 404.459271057 360 414.151645033 354.542783834 418.048321123 345.480059897 c 2
 550.121620151 38.3095841286 l 2
 553.559529045 29.9603768132 561.749033743 24 572 24 c 0
 584.567461977 24 596 35.4325733638 596 48 c 0
 596 52.7617186812 595.540255429 54.2538576823 594.533747416 56.266873708 c 0
 594.381910238 56.5705480644 594.108173295 57.1532962296 593.928349315 57.5743840492 c 2
 473.928349315 338.574384049 l 2
 472.921471289 340.932156761 472.39214992 343.79713903 472.39214992 346.848113462 c 0
 472.39214992 356.40828887 477.589404756 367.794668022 489.576547269 371.124429831 c 0
 506.570161824 375.844878319 519.406890497 380.681249957 533.568875184 389.532490386 c 0
 558.602845217 404.207576267 579.009306363 427.019094671 592.179907396 455.994416943 c 0
 602.479788993 478.310827071 608 505.840386971 608 536 c 0
 608 566.161594814 602.480980228 593.686591919 592.179907396 616.005583057 c 0
 579.025838693 644.944534201 558.500315234 667.852527515 533.683150401 682.400520693 c 0
 497.697055387 704.343261556 453.588506266 712 408 712 c 2
 144 712 l 2
EndSplineSet
EndChar

StartChar: S
Encoding: 83 83 51
Width: 672
Flags: HW
AnchorPoint: "above" 336 784 basechar 0
AnchorPoint: "bottom" 336 40 basechar 0
LayerCount: 2
Back
SplineSet
536 576 m 0
 536 576 496 696 336 696 c 0
 224 696 136 640 136 544 c 0
 136 483.973632812 175.7578125 410.435546875 352 384 c 0
 512 360 552 283.774414062 552 216 c 0
 552 120 472 40 336 40 c 0
 176 40 120 168 120 168 c 1024
EndSplineSet
Fore
SplineSet
608 576 m 0
 608 536.567426636 575.432538023 504 536 504 c 0
 505.033948656 504 477.394159817 523.3857252 468.114016037 552.77284717 c 0
 468.020178327 553.069999917 467.862947803 553.620130392 467.862947803 553.620130392 c 2
 466.660110214 556.286420379 464.275793661 560.809462111 461.736393842 565.127555575 c 0
 456.297114315 573.22047272 448.785953795 582.973018113 438.605578913 591.587181475 c 0
 419.327369707 607.512658645 390.607757468 624 336 624 c 0
 283.076027807 624 242.419453107 607.421368452 222.992416288 586.117203977 c 0
 213.169317195 574.552184452 208 562.332887444 208 544 c 0
 208 535.548935327 208.853205426 530.423434602 210.89052275 525.839470622 c 0
 214.890347863 517.039855375 218.95688473 509.481348701 232.489717667 499.13271175 c 0
 251.981876702 484.513592474 292.335634544 465.31625736 362.63588177 454.723069421 c 0
 442.233064169 442.318313723 502.898927278 419.23448321 547.507010028 381.317612872 c 0
 604.652452902 333.136161038 624 269.520389231 624 216 c 0
 624 139.155347135 587.015003754 68.8330083791 523.989789011 23.4990819849 c 0
 473.367152541 -12.8171572215 409.14973977 -32 336 -32 c 0
 133.985447324 -32 59.0951796528 127.555953705 54.2359982392 138.848860343 c 0
 48.8218674938 150.488167213 48 158.736819852 48 168 c 0
 48 207.432573364 80.5674619767 240 120 240 c 0
 149.189021793 240 174.922982399 222.996731623 185.816593065 198.035904698 c 0
 194.000409281 182.185625383 208.589393069 162.863481884 225.076719144 149.673621025 c 0
 248.949474338 130.221746422 282.956833047 112 336 112 c 0
 383.60139914 112 417.749096015 124.83690286 440.035170355 140.519695914 c 0
 467.170554976 160.254521093 480 185.732693464 480 216 c 0
 480 237.824915744 474.733614284 254.555766931 454.648791326 271.550617126 c 0
 437.10351154 285.905846041 403.245053047 303.756859953 341.318427292 313.284033146 c 0
 256.076001932 326.635256396 192.047453451 349.410598249 145.474827912 384.894503421 c 0
 113.555374976 409.109260821 90.3870124118 438.833311142 77.723329387 471.068140659 c 0
 67.4371151398 496.21221993 64 521.714611069 64 544 c 0
 64 596.877952262 83.2335834105 644.570309541 114.949561998 680.817142213 c 0
 163.609753357 736.267127715 242.750916977 768 336 768 c 0
 437.595165608 768 513.778292914 726.803502762 560.125748593 672.731471137 c 0
 590.51808247 638.147091208 602.241358328 607.121222174 604.798818803 598.581978094 c 0
 608.610270385 587.643500976 608 580.903738406 608 576 c 0
560 576 m 0
 560 580.437472345 559.732128925 582.03079941 559.713578371 582.092543119 c 0
 559.334263116 583.060906952 559.07748095 583.805622095 558.773765615 584.954294961 c 0
 557.887770232 587.827841916 548.903621947 612.786831351 523.874251407 641.268528863 c 0
 486.221707086 685.196497238 424.404834392 720 336 720 c 0
 253.244626925 720 188.401218533 691.745375136 151.039016538 649.16984263 c 0
 126.777799749 621.442737729 112 585.116597874 112 544 c 0
 112 526.285388931 114.56288486 507.78778007 122.276670613 488.931859341 c 0
 131.609069124 465.17666313 148.46671558 442.873980826 174.505275553 423.120590502 c 0
 211.986707422 394.563309077 267.876419112 373.37219573 348.713759425 360.71092556 c 0
 416.720105315 350.248410808 458.906837198 330.085686809 485.351208674 308.449382874 c 0
 517.266385716 281.444233069 528 248.175084256 528 216 c 0
 528 170.267306536 506.829445024 129.745478907 467.964829645 101.480304086 c 0
 436.250903985 79.1630971403 392.39860086 64 336 64 c 0
 271.043166953 64 225.050525662 87.7782535777 194.923280856 112.326378975 c 0
 171.615340225 130.97273148 153.140796406 156.052775728 142.533747416 177.266873708 c 0
 142.348480052 177.637408437 142.019953305 178.346594622 141.807725637 178.862004674 c 0
 138.772263968 186.233840154 131.159623827 192 120 192 c 0
 107.432538023 192 96 180.567426636 96 168 c 0
 96 163.238281319 96.4597445712 161.746142318 97.466252584 159.733126292 c 0
 97.6543698406 159.356891779 97.9823380119 158.650555249 98.2169073181 158.077968029 c 0
 101.180386007 151.243622917 164.037659133 16 336 16 c 0
 400.85026023 16 454.632847459 32.8171572215 496.010210989 62.5009180151 c 0
 546.984996246 99.1669916209 576 154.844652865 576 216 c 0
 576 258.467811646 561.312591259 306.893311533 516.529665939 344.651464253 c 0
 481.064124791 374.79717423 429.784188155 395.678997603 355.36411823 407.276930579 c 0
 279.664365456 418.68374264 232.018123298 439.486407526 203.510282333 460.86728825 c 0
 183.04311527 476.518651299 173.109652137 492.960144625 167.10947725 506.160529378 c 0
 161.146794574 519.576565398 160 532.451064673 160 544 c 0
 160 573.616884291 170.23110843 598.527155711 186.995624938 617.870828604 c 0
 219.828397737 654.491998265 274.742102546 672 336 672 c 0
 401.392242532 672 442.672630293 650.487341355 469.394421087 628.412818525 c 0
 485.03298982 615.180183444 495.229454563 601.42243346 501.969207064 591.312804709 c 0
 502.118094128 591.089474114 502.393256208 590.658854812 502.579830217 590.34789813 c 0
 509.0695145 579.53175766 511.828007387 574.880410872 514.200874974 566.298539763 c 0
 517.267496672 558.347535626 525.193114623 552 536 552 c 0
 548.567461977 552 560 563.432573364 560 576 c 0
EndSplineSet
EndChar

StartChar: T
Encoding: 84 84 52
Width: 688
Flags: HW
AnchorPoint: "above" 344 784 basechar 0
AnchorPoint: "bottom" 344 48 basechar 0
LayerCount: 2
Back
SplineSet
344 686 m 0
 344 48 l 1024
96 688 m 0
 592 688 l 1024
EndSplineSet
Fore
SplineSet
96 616 m 2
 56.5674266362 616 24 648.567461977 24 688 c 0
 24 727.432573364 56.5674619767 760 96 760 c 2
 592 760 l 2
 631.432573364 760 664 727.432538023 664 688 c 0
 664 648.567426636 631.432538023 616 592 616 c 2
 416 616 l 1
 416 48 l 2
 416 8.56742663621 383.432538023 -24 344 -24 c 0
 304.567426636 -24 272 8.5674619767 272 48 c 2
 272 616 l 1
 96 616 l 2
96 664 m 2
 296 664 l 2
 306.300708159 664 320 654.527236341 320 640 c 2
 320 48 l 2
 320 35.4325380233 331.432573364 24 344 24 c 0
 356.567461977 24 368 35.4325733638 368 48 c 2
 368 640 l 2
 368 650.300708159 377.472763659 664 392 664 c 2
 592 664 l 2
 604.567461977 664 616 675.432573364 616 688 c 0
 616 700.567461977 604.567426636 712 592 712 c 2
 96 712 l 2
 83.4325380233 712 72 700.567426636 72 688 c 0
 72 675.432538023 83.4325733638 664 96 664 c 2
EndSplineSet
EndChar

StartChar: U
Encoding: 85 85 53
Width: 712
Flags: HW
AnchorPoint: "above" 356 784 basechar 0
LayerCount: 2
Back
SplineSet
568 688 m 0
 568 216 l 0
 568 118.797851562 473.083984375 40 356 40 c 0
 238.916015625 40 144 118.797851562 144 216 c 0
 144 216 l 0
 144 688 l 1024
EndSplineSet
Fore
SplineSet
496 688 m 2
 496 727.432573364 528.567461977 760 568 760 c 0
 607.432573364 760 640 727.432538023 640 688 c 2
 640 216 l 2
 640 167.810830776 624.094583741 122.575641118 597.530145249 86.0495381915 c 0
 545.731268866 12.2085867516 454.938756694 -32 356 -32 c 0
 257.057578433 -32 166.273099801 12.2023590771 114.469854751 86.0495381915 c 0
 87.906338295 122.574373318 72 167.811770959 72 216 c 2
 72 688 l 2
 72 727.432573364 104.567461977 760 144 760 c 0
 183.432573364 760 216 727.432538023 216 688 c 2
 216 216 l 2
 216 199.347322211 221.098315984 184.204114545 231.68739492 168.727768408 c 0
 253.357813277 138.228661091 299.150485661 112 356 112 c 0
 412.850666008 112 458.640624054 138.22646178 480.31260508 168.727768408 c 0
 490.882882415 184.176635282 496 199.371740631 496 216 c 2
 496 688 l 2
544 688 m 2
 544 216 l 2
 544 188.628259369 535.117117585 163.823364718 519.68739492 141.272231592 c 0
 487.359375946 95.7735382203 427.149333992 64 356 64 c 0
 284.849514339 64 224.642186723 95.7713389087 192.31260508 141.272231592 c 0
 176.901684016 163.795885455 168 188.652677789 168 216 c 2
 168 688 l 2
 168 700.567461977 156.567426636 712 144 712 c 0
 131.432538023 712 120 700.567426636 120 688 c 2
 120 216 l 2
 120 178.188229041 132.093661705 143.425626682 153.530145249 113.950461809 c 0
 195.726900199 53.7976409229 270.942421567 16 356 16 c 0
 441.061243306 16 516.268731134 53.7914132485 558.469854751 113.950461809 c 0
 579.905416259 143.424358882 592 178.189169224 592 216 c 2
 592 688 l 2
 592 700.567461977 580.567426636 712 568 712 c 0
 555.432538023 712 544 700.567426636 544 688 c 2
EndSplineSet
EndChar

StartChar: V
Encoding: 86 86 54
Width: 688
Flags: HW
AnchorPoint: "above" 344 784 basechar 0
LayerCount: 2
Back
SplineSet
96 688 m 0
 336 48 l 0
 352 48 l 0
 592 688 l 1024
EndSplineSet
Fore
SplineSet
24 688 m 0
 24 727.432573364 56.5674619767 760 96 760 c 0
 127.410573726 760 152.995852903 740.37023396 163.422588796 713.55862738 c 2
 344 231.425834903 l 1
 524.577411204 713.55862738 l 2
 535.006219132 740.37556205 560.586616245 760 592 760 c 0
 631.432573364 760 664 727.432538023 664 688 c 0
 664 679.500874785 662.585090396 670.340748305 659.380313662 662.328806468 c 2
 419.496255441 22.637984548 l 2
 408.96011097 -5.96012187318 381.628451553 -24 352 -24 c 2
 336 -24 l 2
 306.370823644 -24 279.040984729 -5.96309591479 268.503744559 22.637984548 c 2
 28.6196863384 662.328806468 l 2
 25.4149096037 670.340748305 24 679.500874785 24 688 c 0
72 688 m 0
 72 684.499125215 72.5850903963 681.659251695 73.3803136616 679.671193532 c 2
 313.496255441 39.362015452 l 2
 316.959015271 29.9630959148 325.629176356 24 336 24 c 2
 352 24 l 2
 362.371548447 24 371.03988903 29.9601218732 374.503744559 39.362015452 c 2
 614.619686338 679.671193532 l 2
 615.414909604 681.659251695 616 684.499125215 616 688 c 0
 616 700.567461977 604.567426636 712 592 712 c 0
 581.413383755 712 572.993780868 705.62443795 569.422588796 696.44137262 c 2
 366.475306699 154.582126827 l 2
 364.454684343 149.187164672 359.876479582 143.926241435 354.15527207 141.254415409 c 0
 350.952255706 139.758594385 347.565881555 139.056199158 344.219022104 139.056199158 c 0
 334.504823196 139.056199158 325.123511974 144.97345825 321.524693301 154.582126827 c 2
 118.577411204 696.44137262 l 2
 115.004147097 705.62976604 106.589426274 712 96 712 c 0
 83.4325380233 712 72 700.567426636 72 688 c 0
EndSplineSet
EndChar

StartChar: W
Encoding: 87 87 55
Width: 872
Flags: HW
AnchorPoint: "above" 436 784 basechar 0
LayerCount: 2
Back
SplineSet
96 688 m 0
 264 48 l 0
 280 48 l 0
 432 688 l 0
 440 688 l 0
 592 48 l 0
 608 48 l 0
 776 688 l 1024
EndSplineSet
Fore
SplineSet
24 688 m 0
 24 727.432573364 56.5674619767 760 96 760 c 0
 128.983880049 760 157.785974224 737.316667356 165.281242225 705.836541752 c 2
 268.778261643 312.87129615 l 1
 361.62164352 704.428167546 l 2
 369.179619692 737.683262702 399.281649843 760 432 760 c 2
 440 760 l 2
 472.737797882 760 502.812544403 737.717740685 510.37835648 704.428167546 c 2
 603.221738357 312.87129615 l 1
 706.718757775 705.836541752 l 2
 714.20262564 737.268786785 743.023123602 760 776 760 c 0
 815.432573364 760 848 727.432538023 848 688 c 0
 848 679.928778914 846.312420657 674.295147611 845.249281266 670.042590048 c 2
 677.147756638 29.655829563 l 2
 668.376683479 -1.04292649562 641.612077686 -24 608 -24 c 2
 592 -24 l 2
 559.262135298 -24 529.187709578 -1.71885820005 521.62124849 31.5735705854 c 2
 436 392.910949535 l 1
 350.37875151 31.5735705854 l 2
 342.820045408 -1.68473626228 312.718476523 -24 280 -24 c 2
 264 -24 l 2
 230.422990505 -24 203.609938651 -0.996103950908 194.852243362 29.655829563 c 2
 26.7507187342 670.042590048 l 2
 25.6875793435 674.295147611 24 679.928778914 24 688 c 0
72 688 m 2
 72 688 72.2998487179 685.755140143 73.2492812658 681.957409952 c 2
 241.148341748 42.3419414475 l 2
 244.598084117 31.0219819128 253.421820882 24 264 24 c 2
 280 24 l 2
 291.281523477 24 301.179954592 31.6847362623 303.62124849 42.4264294146 c 2
 412.646672467 502.533723263 l 2
 414.523744741 510.455312675 420.676779727 517.282204421 428.65110047 519.847180914 c 0
 431.021108991 520.609504921 433.432005153 520.9700144 435.810542059 520.9700144 c 0
 446.612192171 520.9700144 456.746484181 513.535080525 459.353327533 502.533723263 c 2
 568.37875151 42.4264294146 l 2
 570.812290422 31.7188582 580.737864702 24 592 24 c 2
 608 24 l 2
 618.30476765 24 627.216138184 30.4123723196 630.851658252 42.3419414475 c 2
 798.750718734 681.957409952 l 2
 799.700151282 685.755140143 800 688 800 688 c 2
 800 700.567461977 788.567426636 712 776 712 c 0
 764.976876398 712 755.79737436 704.731213215 753.281242225 694.163458248 c 2
 625.208551262 207.88745975 l 2
 623.238681182 200.408109289 617.173575563 193.670943945 609.352293051 191.153910906 c 0
 606.981236533 190.390861165 604.569192555 190.030013746 602.189521881 190.030013746 c 0
 591.389181216 190.030013746 581.25569063 197.463025076 578.647494676 208.462808016 c 2
 463.62164352 693.571832454 l 2
 461.187455597 704.282259315 451.262202118 712 440 712 c 2
 432 712 l 2
 420.718350157 712 410.820380308 704.316737298 408.37835648 693.571832454 c 2
 293.352505324 208.462808016 l 2
 291.568051011 200.93706591 285.671272237 194.052089284 277.914573585 191.342561377 c 0
 275.371012398 190.454058377 272.767880297 190.034821601 270.199289237 190.034821601 c 0
 259.615857451 190.034821601 249.618831836 197.15223955 246.791448738 207.88745975 c 2
 118.718757775 694.163458248 l 2
 116.214025776 704.683332644 107.016119951 712 96 712 c 0
 83.4325380233 712 72 700.567426636 72 688 c 2
EndSplineSet
EndChar

StartChar: X
Encoding: 88 88 56
Width: 632
Flags: HW
AnchorPoint: "above" 316 784 basechar 0
LayerCount: 2
Back
SplineSet
96 48 m 0
 536 688 l 1024
96 688 m 0
 536 48 l 1024
EndSplineSet
Fore
SplineSet
96 -24 m 0
 56.5674266362 -24 24 8.5674619767 24 48 c 0
 24 62.907765833 28.6454082576 76.5157626461 35.6480407039 87.7199745601 c 0
 35.8297454952 88.0107022262 36.0967326315 88.4135863862 36.2407197289 88.6224389582 c 2
 228.849140652 368 l 1
 36.2407197289 647.377561042 l 2
 36.0461232369 647.65982229 35.7824888905 648.064908341 35.6480407039 648.28002544 c 0
 28.6454082576 659.484237354 24 673.092234167 24 688 c 0
 24 727.432573364 56.5674619767 760 96 760 c 0
 120.014637258 760 142.254403151 748.129564251 155.757075186 728.625704644 c 2
 316 495.383225193 l 1
 476.242924814 728.625704644 l 2
 489.745840856 748.129916705 511.985174595 760 536 760 c 0
 575.432573364 760 608 727.432538023 608 688 c 0
 608 673.092234167 603.354591742 659.484237354 596.351959296 648.28002544 c 0
 596.170254505 647.989297774 595.903267368 647.586413614 595.759280271 647.377561042 c 2
 403.150859348 368 l 1
 595.759280271 88.6224389582 l 2
 595.953876763 88.3401777099 596.217511109 87.9350916588 596.351959296 87.7199745601 c 0
 603.354591742 76.5157626461 608 62.907765833 608 48 c 0
 608 8.56742663621 575.432538023 -24 536 -24 c 0
 511.985362742 -24 489.745596849 -12.1295642507 476.242924814 7.37429535564 c 2
 316 240.616774807 l 1
 155.499115217 6.99882028949 l 2
 141.990691494 -11.0124113409 121.118124761 -24 96 -24 c 0
96 24 m 0
 102.85642102 24 111.331317632 28.3667870123 116.544227611 35.064267605 c 2
 296.21858893 296.590282414 l 2
 296.594914874 297.138045731 299.199215994 300.277721587 300.899617882 301.654180762 c 0
 305.275953426 305.196782811 310.589180861 306.898208202 315.876647619 306.898208202 c 0
 323.544323022 306.898208202 331.157824608 303.320169376 335.78141107 296.590282414 c 2
 515.78141107 34.5902824142 l 2
 520.231781526 28.1619695323 528.02348388 24 536 24 c 0
 548.567461977 24 560 35.4325733638 560 48 c 0
 560 52.9716893492 558.79261272 57.0693855252 555.896623685 61.8766706508 c 2
 354.240719729 354.377561042 l 2
 348.80792319 362.257805527 348.585246955 373.419203696 354.240719729 381.622438958 c 2
 555.896623685 674.123329349 l 2
 558.320500626 678.146917639 560 683.049950271 560 688 c 0
 560 700.567461977 548.567426636 712 536 712 c 0
 528.005952849 712 520.276872178 707.902891011 515.732612599 701.338960508 c 2
 335.78141107 439.409717586 l 2
 335.405085126 438.861954269 332.800784006 435.722278413 331.100382118 434.345819238 c 0
 326.724046574 430.803217189 321.410819139 429.101791798 316.123352381 429.101791798 c 0
 308.455676978 429.101791798 300.842175392 432.679830624 296.21858893 439.409717586 c 2
 116.21858893 701.409717586 l 2
 111.768218474 707.838030468 103.97651612 712 96 712 c 0
 83.4325380233 712 72 700.567426636 72 688 c 0
 72 683.028310651 73.2073872802 678.930614475 76.1033763155 674.123329349 c 2
 277.759280271 381.622438958 l 2
 283.19207681 373.742194473 283.414753045 362.580796304 277.759280271 354.377561042 c 2
 76.1033763155 61.8766706508 l 2
 73.6794993737 57.8530823615 72 52.9500497289 72 48 c 0
 72 35.4325380233 83.4325733638 24 96 24 c 0
EndSplineSet
EndChar

StartChar: Y
Encoding: 89 89 57
Width: 656
Flags: HW
AnchorPoint: "above" 328 784 basechar 0
AnchorPoint: "middle" 328 368 basechar 0
LayerCount: 2
Back
SplineSet
328 384 m 0
 328 48 l 1024
96 688 m 0
 328 384 l 0
 560 688 l 1024
EndSplineSet
Fore
SplineSet
24 688 m 0
 24 727.432573364 56.5674619767 760 96 760 c 0
 119.415201682 760 140.113004114 748.849327848 153.136922362 731.484103518 c 2
 328 502.539661661 l 1
 503.170685119 731.886847333 l 2
 516.132998866 747.729675246 535.417465907 760 560 760 c 0
 599.432573364 760 632 727.432538023 632 688 c 0
 632 671.048415227 625.903640517 656.204854022 617.140984598 644.521312797 c 2
 400 359.890562716 l 1
 400 48 l 2
 400 8.56742663621 367.432538023 -24 328 -24 c 0
 288.567426636 -24 256 8.5674619767 256 48 c 2
 256 359.890562716 l 1
 38.8590154022 644.521312797 l 2
 30.0963594831 656.204854022 24 671.048415227 24 688 c 0
72 688 m 0
 72 682.951584773 73.9036405169 677.795145978 77.1409845978 673.478687203 c 2
 299.081326223 382.556888046 l 2
 301.88772625 378.87822855 304 373.28071226 304 368 c 2
 304 48 l 2
 304 35.4325380233 315.432573364 24 328 24 c 0
 340.567461977 24 352 35.4325733638 352 48 c 2
 352 368 l 2
 352 372.626923038 353.715726395 378.358429991 356.918673777 382.556888046 c 2
 578.859015402 673.478687203 l 2
 582.096359483 677.795145978 584 682.951584773 584 688 c 0
 584 700.567461977 572.567426636 712 560 712 c 0
 552.580098045 712 546.53224345 708.866161938 540.80609448 702.082750699 c 2
 347.073110346 448.432348791 l 2
 346.287209892 447.403386341 345.132224171 446.126316542 344.019166955 445.128618126 c 0
 339.498080326 441.076103215 333.781326237 439.107006283 328.083224582 439.107006283 c 0
 320.834167752 439.107006283 313.615299185 442.293915695 308.926889654 448.432348791 c 2
 114.863077638 702.515896482 l 2
 109.886995886 709.150672152 104.584798318 712 96 712 c 0
 83.4325380233 712 72 700.567426636 72 688 c 0
EndSplineSet
EndChar

StartChar: Z
Encoding: 90 90 58
Width: 632
Flags: HW
AnchorPoint: "above" 316 784 basechar 0
LayerCount: 2
Back
SplineSet
104 688 m 0
 528 688 l 0
 96 48 l 0
 536 48 l 1024
EndSplineSet
Fore
SplineSet
528 760 m 2
 571.551885564 760 600 723.893122518 600 688 c 0
 600 672.718423109 595.418011545 658.094054882 587.709147918 647.301645804 c 2
 231.19723872 120 l 1
 536 120 l 2
 575.432573364 120 608 87.4325380233 608 48 c 0
 608 8.56742663621 575.432538023 -24 536 -24 c 2
 96 -24 l 2
 52.4481144361 -24 24 12.1068774822 24 48 c 0
 24 63.2815768908 28.5819884546 77.9059451182 36.2908520815 88.6983541959 c 2
 392.80276128 616 l 1
 104 616 l 2
 64.5674266362 616 32 648.567461977 32 688 c 0
 32 727.432573364 64.5674619767 760 104 760 c 2
 528 760 l 2
528 712 m 2
 104 712 l 2
 91.4325380233 712 80 700.567426636 80 688 c 0
 80 675.432538023 91.4325733638 664 104 664 c 2
 438 664 l 2
 441.215162514 664 446.23659658 662.920108259 449.841120911 660.875532462 c 0
 457.594428371 656.477663749 461.911330904 648.207010377 461.911330904 639.821406493 c 0
 461.911330904 635.228828267 460.616489192 630.601770986 457.88216363 626.557546006 c 2
 75.7091479185 61.3016458041 l 2
 73.4180115454 58.0940548818 72 54.7184231092 72 48 c 0
 72 35.8931225178 81.5518855639 24 96 24 c 2
 536 24 l 2
 548.567461977 24 560 35.4325733638 560 48 c 0
 560 60.5674619767 548.567426636 72 536 72 c 2
 186 72 l 2
 182.784837486 72 177.76340342 73.0798917409 174.158879089 75.1244675379 c 0
 166.405571629 79.5223362513 162.088669096 87.7929896233 162.088669096 96.1785935072 c 0
 162.088669096 100.771171733 163.383510808 105.398229014 166.11783637 109.442453994 c 2
 548.290852082 674.698354196 l 2
 550.581988455 677.905945118 552 681.281576891 552 688 c 0
 552 700.106877482 542.448114436 712 528 712 c 2
EndSplineSet
EndChar

StartChar: bracketleft
Encoding: 91 91 59
Width: 312
Flags: HW
LayerCount: 2
Back
SplineSet
232 768 m 0
 112 768 l 0
 112 -32 l 0
 232 -32 l 1024
EndSplineSet
Fore
SplineSet
40 768 m 2
 40 808.519209601 73.0123331746 840 112 840 c 2
 232 840 l 2
 271.432573364 840 304 807.432538023 304 768 c 0
 304 728.567426636 271.432538023 696 232 696 c 2
 184 696 l 1
 184 40 l 1
 232 40 l 2
 271.432573364 40 304 7.4325380233 304 -32 c 0
 304 -71.4325733638 271.432538023 -104 232 -104 c 2
 112 -104 l 2
 72.5674266362 -104 40 -71.4325380233 40 -32 c 2
 40 768 l 2
88 768 m 2
 88 -32 l 2
 88 -44.5674619767 99.4325733638 -56 112 -56 c 2
 232 -56 l 2
 244.567461977 -56 256 -44.5674266362 256 -32 c 0
 256 -19.4325380233 244.567426636 -8 232 -8 c 2
 160 -8 l 2
 149.699291841 -8 136 1.4727636587 136 16 c 2
 136 720 l 2
 136 730.300708159 145.472763659 744 160 744 c 2
 232 744 l 2
 244.567461977 744 256 755.432573364 256 768 c 0
 256 780.567461977 244.567426636 792 232 792 c 2
 112 792 l 2
 98.9876668254 792 88 781.480790399 88 768 c 2
EndSplineSet
EndChar

StartChar: backslash
Encoding: 92 92 60
Width: 576
Flags: HW
LayerCount: 2
Back
SplineSet
464 48 m 0
 112 688 l 1024
EndSplineSet
Fore
SplineSet
536 48 m 0
 536 8.56742663621 503.432538023 -24 464 -24 c 0
 437.055857405 -24 412.904114966 -8.94521556121 400.896297767 13.5694416861 c 2
 49.0651003774 653.26252785 l 2
 43.0694174614 663.754972953 40 676.109240142 40 688 c 0
 40 727.432573364 72.5674619767 760 112 760 c 0
 138.944142595 760 163.095885034 744.945215561 175.103702233 722.430558314 c 2
 526.934899623 82.7374721503 l 2
 532.930582539 72.2450270473 536 59.8907598582 536 48 c 0
488 48 m 0
 488 52.1092401418 487.069417461 55.7549729527 485.065100377 59.2625278497 c 2
 132.896297767 699.569441686 l 2
 128.904114966 707.054784439 121.055857405 712 112 712 c 0
 99.4325380233 712 88 700.567426636 88 688 c 0
 88 683.890759858 88.9305825386 680.245027047 90.9348996226 676.73747215 c 2
 443.103702233 36.4305583139 l 2
 447.095885034 28.9452155612 454.944142595 24 464 24 c 0
 476.567461977 24 488 35.4325733638 488 48 c 0
EndSplineSet
EndChar

StartChar: bracketright
Encoding: 93 93 61
Width: 312
Flags: HW
LayerCount: 2
Back
SplineSet
80 768 m 0
 200 768 l 0
 200 -32 l 0
 80 -32 l 1024
EndSplineSet
Fore
SplineSet
200 840 m 2
 243.551885564 840 272 803.893122518 272 768 c 2
 272 -32 l 2
 272 -71.4325733638 239.432538023 -104 200 -104 c 2
 80 -104 l 2
 40.5674266362 -104 8 -71.4325380233 8 -32 c 0
 8 7.43257336379 40.5674619767 40 80 40 c 2
 128 40 l 1
 128 696 l 1
 80 696 l 2
 40.5674266362 696 8 728.567461977 8 768 c 0
 8 807.432573364 40.5674619767 840 80 840 c 2
 200 840 l 2
200 792 m 2
 80 792 l 2
 67.4325380233 792 56 780.567426636 56 768 c 0
 56 755.432538023 67.4325733638 744 80 744 c 2
 152 744 l 2
 162.300708159 744 176 734.527236341 176 720 c 2
 176 16 l 2
 176 5.69929184064 166.527236341 -8 152 -8 c 2
 80 -8 l 2
 67.4325380233 -8 56 -19.4325733638 56 -32 c 0
 56 -44.5674619767 67.4325733638 -56 80 -56 c 2
 200 -56 l 2
 212.567461977 -56 224 -44.5674266362 224 -32 c 2
 224 768 l 2
 224 780.106877482 214.448114436 792 200 792 c 2
EndSplineSet
EndChar

StartChar: asciicircum
Encoding: 94 94 62
Width: 512
Flags: HW
LayerCount: 2
Back
SplineSet
112 448 m 0
 256 688 l 0
 400 448 l 1024
EndSplineSet
Fore
SplineSet
112 376 m 0
 72.5674266362 376 40 408.567461977 40 448 c 0
 40 462.390620779 44.2639495057 474.585458125 50.2888240277 485.128988538 c 2
 194.288824028 725.128988538 l 2
 206.649104923 746.759480105 230.796875074 760 256 760 c 0
 281.205948043 760 305.34737674 746.765637195 317.711175972 725.128988538 c 2
 461.711175972 485.128988538 l 2
 467.736050494 474.585458125 472 462.390620779 472 448 c 0
 472 408.567426636 439.432538023 376 400 376 c 0
 374.792408943 376 350.65707634 389.226569915 338.283730518 410.879925104 c 2
 256 548.285766357 l 1
 173.716269482 410.879925104 l 2
 161.346300791 389.232479894 137.204873875 376 112 376 c 0
112 424 m 0
 120.795126125 424 128.653699209 428.767520106 132.283730518 435.120074896 c 2
 235.409614529 607.330288974 l 2
 236.51090181 609.16933181 239.430905234 612.667169389 242.092257609 614.559516906 c 0
 246.2375927 617.507046379 251.052323741 618.907269367 255.834563152 618.907269367 c 0
 264.022884748 618.907269367 272.115948956 614.802163542 276.590385471 607.330288974 c 2
 379.716269482 435.120074896 l 2
 383.34292366 428.773430085 391.207591057 424 400 424 c 0
 412.567461977 424 424 435.432573364 424 448 c 0
 424 451.683658157 422.685782613 456.498556007 420.288562482 460.871447371 c 2
 276.288824028 700.871011462 l 2
 272.65262326 707.234362805 264.794051957 712 256 712 c 0
 247.203124926 712 239.350895077 707.240519895 235.711175972 700.871011462 c 2
 91.711437518 460.871447371 l 2
 89.7855123596 457.358269177 88 451.65143898 88 448 c 0
 88 435.432538023 99.4325733638 424 112 424 c 0
EndSplineSet
EndChar

StartChar: underscore
Encoding: 95 95 63
Width: 576
Flags: HW
LayerCount: 2
Back
SplineSet
48 -96 m 0
 528 -96 l 1024
EndSplineSet
Fore
SplineSet
48 -168 m 2
 8.56742663621 -168 -24 -135.432538023 -24 -96 c 0
 -24 -56.5674266362 8.5674619767 -24 48 -24 c 2
 528 -24 l 2
 567.432573364 -24 600 -56.5674619767 600 -96 c 0
 600 -135.432573364 567.432538023 -168 528 -168 c 2
 48 -168 l 2
48 -120 m 2
 528 -120 l 2
 540.567461977 -120 552 -108.567426636 552 -96 c 0
 552 -83.4325380233 540.567426636 -72 528 -72 c 2
 48 -72 l 2
 35.4325380233 -72 24 -83.4325733638 24 -96 c 0
 24 -108.567461977 35.4325733638 -120 48 -120 c 2
EndSplineSet
EndChar

StartChar: grave
Encoding: 96 96 64
Width: 384
Flags: HW
LayerCount: 2
Back
SplineSet
112 688 m 0
 272 480 l 1024
EndSplineSet
Fore
SplineSet
40 688 m 0
 40 727.432573364 72.5674619767 760 112 760 c 0
 135.681342344 760 155.49508803 748.184235706 168.803215427 731.918746665 c 2
 329.112198386 523.517068818 l 2
 337.933798296 511.754935605 344 496.968948848 344 480 c 0
 344 440.567426636 311.432538023 408 272 408 c 0
 248.318657656 408 228.50491197 419.815764294 215.196784573 436.081253335 c 2
 54.8878016137 644.482931182 l 2
 46.066201704 656.245064395 40 671.031051152 40 688 c 0
88 688 m 0
 88 682.968948848 89.933798296 677.754935605 93.1121983863 673.517068818 c 2
 252.779763698 465.949233913 l 2
 257.651199953 460.209230828 265.572175874 456 272 456 c 0
 284.567461977 456 296 467.432573364 296 480 c 0
 296 485.031051152 294.066201704 490.245064395 290.887801614 494.482931182 c 2
 131.220236302 702.050766087 l 2
 126.348800047 707.790769172 118.427824126 712 112 712 c 0
 99.4325380233 712 88 700.567426636 88 688 c 0
EndSplineSet
EndChar

StartChar: a
Encoding: 97 97 65
Width: 588
Flags: HW
AnchorPoint: "above" 294 576 basechar 0
LayerCount: 2
Back
SplineSet
443 360.18359375 m 0
 414.734375 435.798828125 354.172851562 488 284 488 c 0
 186.797851562 488 108 387.711914062 108 264 c 0
 108 140.288085938 186.797851562 40 284 40 c 0
 354.15234375 40 414.717773438 92.2373046875 442.994140625 167.81640625 c 1024
444 480 m 0
 444 48 l 1024
443 360.18359375 m 0
 414.734375 435.798828125 354.172851562 488 284 488 c 0
 186.797851562 488 108 387.711914062 108 264 c 0
 108 140.288085938 186.797851562 40 284 40 c 0
 354.15234375 40 414.717773438 92.2373046875 442.994140625 167.81640625 c 1024
EndSplineSet
Fore
SplineSet
372 183.845880636 m 1
 372 344.154119364 l 1
 349.908847377 394.334189819 313.784388346 416 284 416 c 0
 268.518498098 416 253.809911826 411.153601418 238.236776913 399.678659904 c 0
 207.714981655 377.188916029 180 326.372103907 180 264 c 0
 180 201.627976586 207.714775585 150.811235812 238.236776913 128.321340096 c 0
 253.808722594 116.847274858 268.522620201 112 284 112 c 0
 314.079952175 112 350.41210323 134.808956244 372 183.845880636 c 1
420 179 m 2
 420 176.31095556 419.386949303 172.798333281 418.231089623 169.956844899 c 0
 391.599792132 104.488238568 339.360860323 64 284 64 c 0
 257.477379799 64 232.191277406 73.1527251418 209.763223087 89.6786599035 c 0
 164.285224415 123.188764188 132 188.372023414 132 264 c 0
 132 339.627896093 164.285018345 404.811083971 209.763223087 438.321340096 c 0
 232.190088174 454.846398582 257.481501902 464 284 464 c 0
 339.361297971 464 391.599655102 423.512098297 418.231089623 358.043155101 c 0
 419.244316537 355.552305603 420 352.067583385 420 349 c 2
 420 179 l 2
392.452720711 530.839216815 m 1
 406.285485537 544.494724453 424.317836307 552 444 552 c 0
 483.432573364 552 516 519.432538023 516 480 c 2
 516 48 l 2
 516 8.56742663621 483.432538023 -24 444 -24 c 0
 423.989662393 -24 404.756593647 -14.985424241 392.452720711 -2.8392168154 c 1
 360.04454704 -21.492110553 323.527493071 -32 284 -32 c 0
 234.474103916 -32 189.191398719 -14.9211079431 152.576506654 12.8174466519 c 0
 78.7264949678 67.9293956715 36 161.530991498 36 264 c 0
 36 366.474680522 78.719407537 460.065315201 152.576506654 515.182553348 c 0
 189.190945477 542.920764577 234.474471344 560 284 560 c 0
 323.57672393 560 361.61756625 548.586741418 392.452720711 530.839216815 c 1
421.368112117 489.301289732 m 0
 421.0485504 488.479559602 420.196813431 486.655622007 419.457345263 485.450218137 c 0
 414.951866306 478.105856331 406.940036422 474.094465442 398.841057629 474.094465442 c 0
 393.972590714 474.094465442 389.07263284 475.543967734 384.883879256 478.590333977 c 0
 355.582946794 499.90010304 321.685351558 512 284 512 c 0
 245.525528656 512 210.809054523 499.079235423 181.423493346 476.817446652 c 0
 121.280592463 431.934684799 84 353.525319478 84 264 c 0
 84 174.469008502 121.273505032 96.0706043285 181.423493346 51.1825533481 c 0
 210.808601281 28.9211079431 245.525896084 16 284 16 c 0
 321.685290102 16 355.582974024 28.0999167641 384.883879256 49.4096660233 c 0
 385.596925905 49.9282454044 387.299451186 51.0023086616 388.573166693 51.6166867765 c 0
 391.852326549 53.1983932402 395.336489123 53.9410569801 398.780976505 53.9410569801 c 0
 408.388580468 53.9410569801 417.687510445 48.1631145664 421.368112117 38.6987102677 c 0
 424.602922513 30.3806263914 433.503012828 24 444 24 c 0
 456.567461977 24 468 35.4325733638 468 48 c 2
 468 480 l 2
 468 492.567461977 456.567426636 504 444 504 c 0
 433.502920471 504 424.60295352 497.619453339 421.368112117 489.301289732 c 0
EndSplineSet
EndChar

StartChar: b
Encoding: 98 98 66
Width: 588
Flags: HW
LayerCount: 2
Back
SplineSet
144 688 m 0
 144 144 l 0
 144 80 136 48 136 48 c 1024
145 360.18359375 m 0
 173.265625 435.798828125 233.827148438 488 304 488 c 0
 401.202148438 488 480 387.711914062 480 264 c 0
 480 140.288085938 401.202148438 40 304 40 c 0
 233.84765625 40 173.282226562 92.2373046875 145.005859375 167.81640625 c 1024
EndSplineSet
Fore
SplineSet
216 344.154119364 m 1
 216 183.845880636 l 1
 238.091152623 133.665810181 274.215611654 112 304 112 c 0
 319.481501902 112 334.190088174 116.846398582 349.763223087 128.321340096 c 0
 380.285018345 150.811083971 408 201.627896093 408 264 c 0
 408 326.372023414 380.285224415 377.188764188 349.763223087 399.678659904 c 0
 334.191277406 411.152725142 319.477379799 416 304 416 c 0
 273.920047825 416 237.58789677 393.191043756 216 344.154119364 c 1
168 349 m 2
 168 351.68904444 168.613050697 355.201666719 169.768910377 358.043155101 c 0
 196.400207868 423.511761432 248.639139677 464 304 464 c 0
 330.522620201 464 355.808722594 454.847274858 378.236776913 438.321340096 c 0
 423.714775585 404.811235812 456 339.627976586 456 264 c 0
 456 188.372103907 423.714981655 123.188916029 378.236776913 89.6786599035 c 0
 355.809911826 73.1536014183 330.518498098 64 304 64 c 0
 248.638702029 64 196.400344898 104.487901703 169.768910377 169.956844899 c 0
 168.755683463 172.447694397 168 175.932416615 168 179 c 2
 168 349 l 2
72 688 m 2
 72 727.432573364 104.567461977 760 144 760 c 0
 183.432573364 760 216 727.432538023 216 688 c 2
 216 541.407829917 l 1
 243.809907346 553.787739304 272.56131086 560 304 560 c 0
 353.525896084 560 398.808601281 542.921107943 435.423493346 515.182553348 c 0
 509.273505032 460.070604329 552 366.469008502 552 264 c 0
 552 161.525319478 509.280592463 67.9346847989 435.423493346 12.8174466519 c 0
 398.809054523 -14.9207645774 353.525528656 -32 304 -32 c 0
 262.034544938 -32 222.286327959 -19.5612332218 189.63805725 0.396911839976 c 1
 176.408687472 -14.5515285871 157.529807829 -24 136 -24 c 0
 96.5674266362 -24 64 8.5674619767 64 48 c 0
 64 50.9222311317 64.5866909099 59.7253807027 65.3556664778 63.293427338 c 0
 66.2063741275 68.2842455496 67.4730984607 73.1411898606 69.2253521594 86.2830926008 c 0
 70.9765170566 98.5412468808 72 117.546654747 72 144 c 2
 72 688 l 2
120 688 m 2
 120 144 l 2
 120 116.453345253 119.023482943 95.4587531192 116.774647841 79.7169073992 c 0
 115.14071819 67.4624350166 113.310548432 58.6275261664 112.821626032 56.0623891085 c 0
 112.682666441 55.0456855505 112.522703295 54.1362781633 112.283420003 53.1791449991 c 0
 112.009572174 52.0837536827 112 52.2295243713 112 48 c 0
 112 35.4325380233 123.432573364 24 136 24 c 0
 146.572092519 24 155.800843344 31.1919298834 159.012169155 41.8963492536 c 0
 159.411561036 43.2276555246 160.78423194 46.4619407434 162.092288901 48.4045902131 c 0
 166.698403031 55.2453207346 174.384612691 58.8993949507 182.130268279 58.8993949507 c 0
 187.341658505 58.8993949507 192.579958684 57.2452704745 196.925171446 53.79466034 c 0
 226.999831413 29.9118421313 263.658240407 16 304 16 c 0
 342.474471344 16 377.190945477 28.9207645774 406.576506654 51.1825533481 c 0
 466.719407537 96.0653152011 504 174.474680522 504 264 c 0
 504 353.530991498 466.726494968 431.929395671 406.576506654 476.817446652 c 0
 377.191398719 499.078892057 342.474103916 512 304 512 c 0
 267.033210854 512 234.140543549 500.732424933 206.007265156 480.511631088 c 0
 203.242294044 478.524308101 198.258777434 476.418354825 193.882970051 476.073980193 c 0
 193.266711785 476.025480866 192.653712538 476.001668106 192.044917584 476.001668106 c 0
 179.067208887 476.001668106 168 486.822576046 168 500 c 2
 168 688 l 2
 168 700.567461977 156.567426636 712 144 712 c 0
 131.432538023 712 120 700.567426636 120 688 c 2
EndSplineSet
EndChar

StartChar: c
Encoding: 99 99 67
Width: 528
Flags: HW
AnchorPoint: "above" 280 576 basechar 0
AnchorPoint: "bottom" 280 40 basechar 0
AnchorPoint: "middle" 280 264 basechar 0
LayerCount: 2
Back
SplineSet
420 133.853515625 m 0
 388.802734375 77.0341796875 337.725585938 40 280 40 c 0
 185.006835938 40 108 140.288085938 108 264 c 0
 108 387.711914062 185.006835938 488 280 488 c 0
 333.024414062 488 380.448242188 456.751953125 412 407.625 c 1024
EndSplineSet
Fore
SplineSet
420 206 m 0
 459.432573364 206 492 173.432538023 492 134 c 0
 492 122.132820993 488.900635782 109.702566129 482.96185669 99.3097027175 c 0
 443.189063337 26.2137581765 370.922727239 -32 280 -32 c 0
 231.302878687 -32 186.316889392 -15.0161766341 149.436981202 12.9231477523 c 0
 77.3070731357 68.4076924183 36 162.681906542 36 264 c 0
 36 365.317741081 77.3111866224 459.595471802 149.436981202 515.076852248 c 0
 186.317840385 543.016897084 231.302127384 560 280 560 c 0
 363.066208676 560 431.020281931 510.396079912 471.764037623 447.635282141 c 0
 480.510280749 434.772078762 484 422.70073355 484 408 c 0
 484 368.567426636 451.432538023 336 412 336 c 0
 386.518595106 336 363.803480331 349.526331894 351.675833057 369.233758716 c 0
 330.2906078 402.594710117 303.251039579 416 280 416 c 0
 265.648021916 416 251.101533112 411.229847751 236.609238838 399.958063316 c 0
 206.726801902 377.344327256 180 327.696347104 180 264 c 0
 180 200.304127411 206.727621799 150.655052281 236.609238838 128.041936684 c 0
 251.111048035 116.762751753 265.641376034 112 280 112 c 0
 305.193552583 112 334.992385706 128.126367731 356.867943794 168.377394614 c 0
 368.927935232 190.989878561 393.047358251 206 420 206 c 0
420 158 m 0
 410.952641749 158 403.072064768 153.010121439 399.132056206 145.622605386 c 0
 371.007614294 93.8736322686 326.806447417 64 280 64 c 0
 254.358623966 64 228.888951965 73.2372482469 207.390761162 89.9580633156 c 0
 163.272378201 123.344947719 132 187.695872589 132 264 c 0
 132 340.303652896 163.273198098 404.655672744 207.390761162 438.041936684 c 0
 228.898466888 454.770152249 254.351978084 464 280 464 c 0
 322.748960421 464 363.7093922 439.405289883 392.324166943 394.766241284 c 0
 396.196519669 388.473668106 403.481404894 384 412 384 c 0
 424.567461977 384 436 395.432573364 436 408 c 0
 436 413.191861121 434.455359547 417.271335353 432.470396691 420.050283351 c 0
 432.312823851 420.270885327 432.02114877 420.696630549 431.822835443 421.004538082 c 0
 397.081684342 474.944746371 342.995031612 512 280 512 c 0
 242.697872616 512 207.682159615 498.983102916 178.563018798 476.923147752 c 0
 120.688813378 432.404528198 84 352.682258919 84 264 c 0
 84 175.318093458 120.692926864 95.5923075817 178.563018798 51.0768522477 c 0
 207.683110608 29.0161766341 242.697121313 16 280 16 c 0
 349.077272761 16 406.810936663 59.7862418235 441.03814331 122.690297283 c 0
 443.099364218 126.297433871 444 129.867179007 444 134 c 0
 444 146.567461977 432.567426636 158 420 158 c 0
EndSplineSet
EndChar

StartChar: d
Encoding: 100 100 68
Width: 592
Flags: HW
AnchorPoint: "above" 296 784 basechar 0
LayerCount: 2
Back
SplineSet
448 688 m 0
 448 144 l 0
 448 80 456 48 456 48 c 1024
447 360.18359375 m 0
 418.734375 435.798828125 358.172851562 488 288 488 c 0
 190.797851562 488 112 387.711914062 112 264 c 0
 112 140.288085938 190.797851562 40 288 40 c 0
 358.15234375 40 418.717773438 92.2373046875 446.994140625 167.81640625 c 1024
EndSplineSet
Fore
SplineSet
376 183.845880636 m 1
 376 344.154119364 l 1
 353.908847377 394.334189819 317.784388346 416 288 416 c 0
 272.518498098 416 257.809911826 411.153601418 242.236776913 399.678659904 c 0
 211.714981655 377.188916029 184 326.372103907 184 264 c 0
 184 201.627976586 211.714775585 150.811235812 242.236776913 128.321340096 c 0
 257.808722594 116.847274858 272.522620201 112 288 112 c 0
 318.079952175 112 354.41210323 134.808956244 376 183.845880636 c 1
424 179 m 2
 424 176.31095556 423.386949303 172.798333281 422.231089623 169.956844899 c 0
 395.599792132 104.488238568 343.360860323 64 288 64 c 0
 261.477379799 64 236.191277406 73.1527251418 213.763223087 89.6786599035 c 0
 168.285224415 123.188764188 136 188.372023414 136 264 c 0
 136 339.627896093 168.285018345 404.811083971 213.763223087 438.321340096 c 0
 236.190088174 454.846398582 261.481501902 464 288 464 c 0
 343.361297971 464 395.599655102 423.512098297 422.231089623 358.043155101 c 0
 423.244316537 355.552305603 424 352.067583385 424 349 c 2
 424 179 l 2
376 688 m 2
 376 727.432573364 408.567461977 760 448 760 c 0
 487.432573364 760 520 727.432538023 520 688 c 2
 520 144 l 2
 520 117.54756543 521.023656636 98.5400310357 522.774647841 86.2830926007 c 0
 524.562314132 72.8755954117 526.005073682 67.0437517341 526.644333522 63.293427338 c 0
 528.131243219 56.3941663426 528 51.6331600752 528 48 c 0
 528 8.56742663621 495.432538023 -24 456 -24 c 0
 434.058057508 -24 414.235536154 -13.0195778825 402.36194275 0.396911839976 c 1
 368.237521374 -20.4636157526 329.855220308 -32 288 -32 c 0
 238.474103916 -32 193.191398719 -14.9211079431 156.576506654 12.8174466519 c 0
 82.7264949678 67.9293956715 40 161.530991498 40 264 c 0
 40 366.474680522 82.719407537 460.065315201 156.576506654 515.182553348 c 0
 193.190945477 542.920764577 238.474471344 560 288 560 c 0
 319.362152846 560 349.979118407 552.991333317 376 541.407829917 c 1
 376 688 l 2
424 688 m 2
 424 500 l 2
 424 496.594927622 422.801506492 491.319125283 420.527265057 487.564912977 c 0
 416.037747763 480.153826001 407.983349169 476.093566185 399.837618743 476.093566185 c 0
 395.014298749 476.093566185 390.158956327 477.517159397 385.992734844 480.511631088 c 0
 357.859519744 500.732379441 324.966835946 512 288 512 c 0
 249.525528656 512 214.809054523 499.079235423 185.423493346 476.817446652 c 0
 125.280592463 431.934684799 88 353.525319478 88 264 c 0
 88 174.469008502 125.273505032 96.0706043285 185.423493346 51.1825533481 c 0
 214.808601281 28.9211079431 249.525896084 16 288 16 c 0
 328.341739925 16 365.000177639 29.9118493195 395.074828554 53.79466034 c 0
 396.163293548 54.6590296002 399.137848113 56.5290166136 401.32135059 57.3759032089 c 0
 404.095300819 58.4517990644 406.961267892 58.958229606 409.790301751 58.958229606 c 0
 420.078705901 58.958229606 429.878641233 52.2603146277 432.987830845 41.8963492536 c 0
 436.201914476 31.182737152 445.411953028 24 456 24 c 0
 468.567461977 24 480 35.4325733638 480 48 c 0
 480 52.2295243713 479.990427826 52.0837536827 479.716579997 53.1791449991 c 0
 479.572427048 53.7557567939 479.364518026 54.6805127954 479.180750865 56.0499186924 c 0
 478.953153364 57.2440116299 476.914126879 67.0510970008 475.225352159 79.7169073992 c 0
 472.976343364 95.4599689643 472 116.45243457 472 144 c 2
 472 688 l 2
 472 700.567461977 460.567426636 712 448 712 c 0
 435.432538023 712 424 700.567426636 424 688 c 2
EndSplineSet
EndChar

StartChar: e
Encoding: 101 101 69
Width: 544
Flags: HW
AnchorPoint: "bottom" 272 40 basechar 0
AnchorPoint: "above" 272 576 basechar 0
LayerCount: 2
Back
SplineSet
436 128 m 0
 436 128 387.875976562 40 276 40 c 0
 183.215820312 40 108 135.870117188 108 264 c 0
 108 392.129882812 183.215820312 488 276 488 c 0
 326.825195312 488 372.385742188 464.830078125 403.194335938 415.568359375 c 0
 428.568359375 374.998046875 436 336 436 288 c 0
 112 288 l 1024
EndSplineSet
Fore
SplineSet
276 416 m 0
 261.767261739 416 247.971317083 411.176746627 234.626864263 400.972165059 c 0
 223.356663292 392.263373399 211.142067576 377.53022143 201.834692968 360 c 1
 350.9290783 360 l 1
 348.329237422 365.633003832 344.980017873 371.769750657 341.690058957 377.210361458 c 0
 329.797953139 395.25058005 319.589519086 403.735917821 308.594048632 409.369675472 c 0
 298.337256392 413.979688756 288.875413758 416 276 416 c 0
276 464 m 0
 295.206368984 464 312.403418362 460.477476565 329.397797943 452.633916759 c 0
 350.69172306 441.9869542 367.153787051 426.108735399 382.304635495 402.799737794 c 0
 394.115553114 383.47278169 407.858092282 359.93004046 407.858092282 337.176048349 c 0
 407.858092282 326.302691014 399.440004687 312 384 312 c 2
 166 312 l 2
 164.638957347 312 162.336750234 312.213607228 160.590692526 312.61754092 c 0
 149.533032788 315.175624364 142.02898306 325.338491916 142.02898306 336.18712629 c 0
 142.02898306 338.525036241 142.377481723 340.894794171 143.114016037 343.22715283 c 0
 156.343690879 385.121123164 178.486647154 418.251911945 205.373135737 439.027834941 c 0
 226.028682917 454.823253373 250.232738261 464 276 464 c 0
508 288 m 0
 508 248.567426636 475.432538023 216 436 216 c 2
 184.932253847 216 l 1
 194.389867995 172.379167396 214.185800476 142.853257619 234.63560955 127.021147368 c 0
 247.960843655 116.831262464 261.772309721 112 276 112 c 0
 308.228084075 112 330.055238788 122.869135772 345.479003903 134.112096953 c 0
 358.466833545 144.420849427 368.992062348 155.972056494 372.998413854 162.635729403 c 0
 386.294473539 186.4025554 409.350642803 200 436 200 c 0
 475.432573364 200 508 167.432538023 508 128 c 0
 508 115.873487203 504.835909077 104.135704605 498.869286166 93.1131254137 c 0
 494.609452702 84.9629075355 428.147524162 -32 276 -32 c 0
 228.728046881 -32 183.275914489 -16.0777189512 147.387619724 11.9600113345 c 0
 75.1874239601 66.3878512178 36 161.299548103 36 264 c 0
 36 366.711680897 75.1729143737 461.601210786 147.387619724 516.039988666 c 0
 183.274704786 544.076773871 228.728956053 560 276 560 c 0
 308.346416381 560 340.098807744 553.219076088 370.441088954 538.60982958 c 0
 407.484195652 520.649535423 440.968952475 491.578818743 464.351114269 453.721985361 c 0
 498.244848962 400.148017621 508 343.605338113 508 288 c 0
460 288 m 0
 460 338.394661887 451.755151038 383.851982379 423.648885731 428.278014639 c 0
 405.023280352 458.433756682 378.548757694 481.334487197 349.529435844 495.404461427 c 0
 325.935445846 506.764530685 301.637714866 512 276 512 c 0
 239.271043947 512 204.725295214 499.923226129 176.612380276 477.960011334 c 0
 118.827085626 434.398789214 84 355.288319103 84 264 c 0
 84 172.700451897 118.81257604 93.6121487822 176.612380276 50.0399886655 c 0
 204.724085511 28.0777189512 239.271953119 16 276 16 c 0
 398.565150085 16 453.046187153 109.301034354 456.621308307 115.906492531 c 0
 456.73945409 116.137933033 456.983425872 116.594541765 457.162164589 116.907334521 c 0
 458.961588288 120.056325995 460 123.975667342 460 128 c 0
 460 140.567461977 448.567426636 152 436 152 c 0
 426.895100776 152 419.22465538 147.296228838 414.961194892 139.302240422 c 0
 404.793661276 121.872182795 390.875480892 108.737317018 374.535726068 95.898938228 c 0
 351.837432441 79.1738797659 319.847507419 64 276 64 c 0
 250.227690279 64 226.039156345 73.1687375356 205.36439045 88.9788526317 c 0
 171.069892851 115.529431417 133.02267983 173.315893469 133.02267983 239.555225517 c 0
 133.02267983 250.911564511 142.612055765 264 157 264 c 2
 436 264 l 2
 448.567461977 264 460 275.432573364 460 288 c 0
EndSplineSet
EndChar

StartChar: f
Encoding: 102 102 70
Width: 376
Flags: HW
AnchorPoint: "above" 188 784 basechar 0
LayerCount: 2
Back
SplineSet
84 480 m 0
 292 480 l 1024
180 48 m 0
 180 624 l 0
 180 680 236 704 268 704 c 0
 284 704 300 700 300 700 c 1024
EndSplineSet
Fore
SplineSet
84 408 m 2
 44.5674266362 408 12 440.567461977 12 480 c 0
 12 519.432573364 44.5674619767 552 84 552 c 2
 108 552 l 1
 108 624 l 2
 108 659.47457457 119.840959061 690.719944251 139.365474297 715.125588296 c 0
 156.139448596 735.493985658 175.99973289 749.406877917 195.731178828 758.692264241 c 0
 219.158155663 769.847967496 243.120392445 776 268 776 c 0
 291.265241626 776 310.302879815 771.70988401 314.723157706 770.84506155 c 0
 315.712628862 770.729952976 317.036856771 770.471643411 317.558892655 770.347349152 c 0
 350.163378826 762.584376255 372 732.548992408 372 700 c 0
 372 660.567426636 339.432538023 628 300 628 c 0
 295.796134461 628 290.419920546 627.65638611 281.72033108 629.831283476 c 0
 281.494925704 629.897171202 273.603417084 631.851179878 268.223956047 632.004878764 c 0
 266.336664808 631.864627719 261.427039426 630.880703983 258.733126292 629.533747416 c 0
 255.784882648 628.059625594 252.8916255 626.057578102 252.04669285 625.35346756 c 0
 251.986114358 624.409911654 252 624.612437484 252 624 c 2
 252 552 l 1
 292 552 l 2
 331.432573364 552 364 519.432538023 364 480 c 0
 364 440.567426636 331.432538023 408 292 408 c 2
 252 408 l 1
 252 48 l 2
 252 8.56742663621 219.432538023 -24 180 -24 c 0
 140.567426636 -24 108 8.5674619767 108 48 c 2
 108 408 l 1
 84 408 l 2
84 456 m 2
 132 456 l 2
 142.300708159 456 156 446.527236341 156 432 c 2
 156 48 l 2
 156 35.4325380233 167.432573364 24 180 24 c 0
 192.567461977 24 204 35.4325733638 204 48 c 2
 204 432 l 2
 204 442.300708159 213.472763659 456 228 456 c 2
 292 456 l 2
 304.567461977 456 316 467.432573364 316 480 c 0
 316 492.567461977 304.567426636 504 292 504 c 2
 228 504 l 2
 217.699291841 504 204 513.472763659 204 528 c 2
 204 624 l 2
 204 636.338519839 208.852154691 647.802872922 213.8 654.4 c 0
 220.999426725 663.999235633 229.50173444 668.58368295 237.266873708 672.466252584 c 0
 250.220333852 678.942982656 261.155183907 680 268 680 c 0
 280.581164051 680 289.926653797 677.369608346 294.033526783 676.23744336 c 0
 294.312915811 676.188938321 296.351099435 676 300 676 c 0
 312.567461977 676 324 687.432573364 324 700 c 0
 324 710.912961261 316.692386831 720.557782756 307.442231937 723.387546788 c 0
 301.45543923 724.412682525 287.781651666 728 268 728 c 0
 250.879607555 728 234.841844337 724.152032504 216.268821172 715.307735759 c 0
 202.00026711 708.593122083 187.860551404 698.506014342 176.634525703 684.874411704 c 0
 164.159040939 669.280055749 156 648.52542543 156 624 c 2
 156 528 l 2
 156 517.699291841 146.527236341 504 132 504 c 2
 84 504 l 2
 71.4325380233 504 60 492.567426636 60 480 c 0
 60 467.432538023 71.4325733638 456 84 456 c 2
EndSplineSet
EndChar

